<svg xmlns="http://www.w3.org/2000/svg" xmlns:xlink="http://www.w3.org/1999/xlink" viewBox="0 0 3015.9 3015.9"><defs><style>.cls-1{isolation:isolate;}.cls-2{fill:url(#Degradado_sin_nombre_16);}.cls-3{fill:#fff;}.cls-4{fill:#fafafa;}.cls-5{fill:#fcfcfc;}.cls-6{fill:#fefefe;}.cls-7{fill:#fbfbfb;}.cls-8{fill:#fdfdfd;}.cls-9{fill:#f9f9f9;}.cls-10{fill:#141414;}.cls-11{mix-blend-mode:multiply;}</style><radialGradient id="Degradado_sin_nombre_16" cx="1507.95" cy="1507.95" r="1507.95" gradientUnits="userSpaceOnUse"><stop offset="0" stop-color="red"/><stop offset="0.43" stop-color="#fd0000"/><stop offset="0.58" stop-color="#f60000"/><stop offset="0.69" stop-color="#eb0000"/><stop offset="0.78" stop-color="#da0000"/><stop offset="0.86" stop-color="#c40000"/><stop offset="0.92" stop-color="#a80000"/><stop offset="0.98" stop-color="#890000"/><stop offset="1" stop-color="#7f0000"/></radialGradient></defs><title>Recurso 5</title><g class="cls-1"><g id="Capa_2" data-name="Capa 2"><g id="Capa_1-2" data-name="Capa 1"><circle class="cls-2" cx="1507.95" cy="1507.95" r="1507.95"/><path class="cls-3" d="M2114.91,1176.83c.78-6,5.7-24.77,18-39.47,13.14-15.69,26.12-7.63,31.59-7.53,10.06,5.5,16.13,7.6,19.35,32.32,3.41,26.31,1.89,91.45,1.35,100.29-.24,3.92-3.29-5.38-3.37-7.74-1-31.14-10.4-95.69-10.68-97.06-2.75-8.22-25.41-15.36-33.82,4.32-5.3,12.39-16,128.75-23,150.58-11.53,35.6-13.19-4.73-12.32,5.23-9-10.6.85-70.4-1.61-79.56C2099.62,1221.49,2114,1193.7,2114.91,1176.83Z"/><path class="cls-4" d="M1741.38,1444c4,.24-2.83-6.6-2.82-10.08,0-54.92-1.75-101.18-20-153-3-8.51-7.81-16.62-13-24.08-12.07-17.46-27.2-20.71-45.22-9.51-20.89,13-35.59,32.26-50,51.67-1.4,1.89-15.73,25.76-16.62,27.94-7.81,19.15-29.75,70.26-44.21,85.93-12,16.71-37.72,26.33-55.35,37.13-7.06,4.32-28-3-36.26-1.6-.29-1.49,30.54-32.68,25.72-17.27,36.55-17.6,44.11-24.44,62.88-58.14,16.18-29,12.75-25.15,32.33-58.1,3.62-6.09,21.13-40.41,25.59-45.95,12-15,28.93-31.18,45.58-41.2,23.32-14,49.23-5.42,65.65,16.12,16.11,21.13,23,45.79,27.47,71.41,6.56,37.8,11.4,75.8,6.93,114.14-2.39,20.52,6.79,22,29.68,23-8.49,3.78-19.92,5.84-26.22-.1Z"/><path class="cls-5" d="M906.68,1137.24l-6.32,15.7c15.46-8.15,28.91-10.34,39.95,2.7,12.39,14.63,14.81,31.74,7.94,49.11-4.33,10.92-1.37,13,9,13.79,12.52.93,53.45-11.12,65.91-8.65.54,4.55-31.67,11.91-34.26,12.69-22.65,6.8-45.86,7.62-69.19,6-15.74-1.1-27.77-15-29.56-33.6-.75-7.83-1.18-15.76,1.57-23.47,1-2.89,4.16-6.47-2-6.66C895.55,1155.63,898.59,1144.94,906.68,1137.24Z"/><path d="M2117.14,1304.66l-4.6-7.62c.51-14.14-.14-35.32,3.21-55.62.69.38.73,14,1.42,14.42,6.88,13.93,3.4,29,4.65,43.56C2122,1301.76,2119.65,1303.72,2117.14,1304.66Z"/><path d="M1670.69,1493c-.6,1.85-1.09,3.68-1.6,5.35C1669.65,1496.6,1670.15,1494.81,1670.69,1493Z"/><path d="M1713.18,1455.53a13.22,13.22,0,0,1-3-2.87,61.1,61.1,0,0,0-4.1,8.21,138.64,138.64,0,0,0-5.6,16.54c-3.89,13-8.64,25.45-15.35,36.78h18c.81-2.12,1.65-4.31,2.56-6.65,1.85-4.78,1.85-4.78,5.39-16.66,1.76-10.7,7.46-29.55,7.2-40.53C1717.93,1451.69,1718.47,1458.34,1713.18,1455.53Z"/><path d="M1669.49,1326.88c-.38-1.17-.72-2.34-1.11-3.51A13.66,13.66,0,0,0,1669.49,1326.88Z"/><path d="M1670.28,1289.19l1.16,1.51a9.39,9.39,0,0,0-1.23-1.59Z"/><path d="M2184.46,1261.61c0,2.48.07,4.09.11,4.57s.75.69,1.85.3a12.86,12.86,0,0,0,1.57-.91,2.45,2.45,0,0,0,.55-.49c.08-1-.2-1.51-.26-1.4a7.83,7.83,0,0,1-1.52-.86A4.24,4.24,0,0,0,2184.46,1261.61Z"/><path d="M2188,1265.57a12.86,12.86,0,0,1-1.57.91A5.62,5.62,0,0,0,2188,1265.57Z"/><path d="M1694.9,1490.58c1.68-5.55,3.74-11.45-2.94-15.54-4.14-1.07-6.19,3.45-9.76,3.77-5.38.57-7.34,4.93-9.4,8.93a34.5,34.5,0,0,0-2.11,5.29c-.54,1.78-1,3.57-1.6,5.35.51-1.67,1-3.5,1.6-5.35,16.63-55.48,16.61-110.85-1.2-166.15a13.66,13.66,0,0,1-1.11-3.51c.39,1.17.73,2.34,1.11,3.51,1.15,2.36,3.22,4,7.13,2.91,3.71-2.58,3-5.81,2.23-9.71-1.61-8.71-6.27-16.7-6-25.8a10.31,10.31,0,0,0-1.4-3.58l-1.16-1.51-.07-.08a11.37,11.37,0,0,0-2.7-2.15,4.54,4.54,0,0,1,2.7,2.15,9.39,9.39,0,0,1,1.23,1.59c33.12,42.69,42.36,91.68,37.31,144.44-.57,6-2.53,12.42,1.38,17.52,2.37-3.72,5.34-6.3,8.14-2.31.47-3.51,6.36-2.51,12.65-2.57,4.79-.19,4.79-.19,10.78-.1.35-.07,2.5,1.06,5,2.27,2.69,1.3,6.3,5.26,6.5,5.39,0,0,0,0,0,0-2.71-2.61-4-6.84-3.89-13.4l.06-3.37c-1.46.31-6.8,3.72-6.76-.92,0-4.07-.87-15.83-1.07-19.82-.6-12.33-.31-19.76-1.61-32.14-1.38-13.24-1.82-34.54-4.12-47.83-5.12-29.58-8.2-51.89-23.47-78.33-14.68-25.45-32.85-26.66-57.32-10.72-14.41,9.4-25.31,20.38-35.89,33.75-27.92,35.3-49,85.61-72.86,123.62-17.67,29.33-57.37,39.77-82,38.57,29.82-10.45,39.91-11,59.2-25.58,13.93-15,25-33.32,38.84-65.91,10-23.53,23-52.76,32.67-66.41,14.59-19.27,19.76-25.86,43.66-47,26.41-23.36,59.19-20.23,77.79,9.51,5.08,8.13,16.64,32.05,19.34,41.25,14.46,49.22,14.44,97,13.56,148,.16,0,.29,0,.34,0,.38.47,4.54,17,3.49,16.75a10.78,10.78,0,0,0,3.83,2.39c2.54,1,6.79,2.52,10.63,2.46a24.93,24.93,0,0,0,8.42-2c30.85-10,62.54-16.64,93.12-28.5,26.57-10.31,52.63-22.24,79.31-32.37,23.93-9.08,46.92-21.83,70.45-32.71,9.35-4.31,28.2-11.4,38.92-16,.88,11.54,2.36,17.6,6.16,29.57,4.55,6.14,17.4,6.35,32.94,5.87,20.47-.64,35.92-.27,52.26-2,10.26-1.09,13.41-12.58,18.73-30.67,3.21-17,5-23.44,5.89-41.25.45-8.85.35-15.82.27-28.39-.37-7,1.14-6.39,1.34-9.51l5.09-3.08c2.73-1.2,4.59-2,5.83-2.67-1.1.39-1.81.09-1.85-.3s-.07-2.09-.11-4.57a7.16,7.16,0,0,1-1.37-3.61c-2.55-32.59-5.9-59.1-9.18-89.26-.68-6.63-1.56-13.29-4.84-19.22-5-9-12-7.34-20.6-4.31-4,1.41-3.71,2-10.34,9.83-9.68,16.75-9.68,18.56-15.5,38.78-1.81,7.42-2.64,11.35-5.59,23.7-1.44,9.44-2.11,13.89-2.61,19.49-2.13,23.59-.29,5.51-2,23.3-.19,3.4-1.12,13.79-1.21,18.08-.49,8.37.17,3.21-.6,16.88-1.41,10-1.26,12.06-3.15,23.17-2.68-27.39-4.18-31.71-2.95-55.18,1.59-30.1,6.52-64.59,16.73-91.93,7.48-20,30-52.71,47.83-37.69,3.95,4,10.21,8.47,12,27.52,2.73,28.23,3.09,84,3.34,100.45,1.87,2.49,4.79,2.65,3.82,3.7a11.94,11.94,0,0,0,1.61-1.72c3.18-4.11,1.81-12.3,2.11-14.8.52-2.3.71-27-.16-47.14-1-22.09-3.42-40.05-4-42.59-4.74-19.89-11.52-22.77-17.07-28-11-10.33-22.9-26.26-32.7-35.49-11.12-10.45-27-11.1-41.76-11.53-7.37-.22-9.93,1.29-14.65-4-5.08-5.68-6.63-11.72-16-21.63-6.69-5.86-18.49-11.06-29.76-9.49-12.89,1.8-20.76-9.53-21.71-18.92-3.5-34.66-12.24-68.44-15.86-103-1.34-12.9-6.91-23.19-20.55-28.1-12.67-4.57-24.6-10.8-37.59-15.13-16.81-5.6-33.92-8.64-51-12-22.89-4.55-45.94-1.75-69.1-.68-37.18,1.72-74.4,4.1-111.57,4.88-69.67,1.46-139.34,1-209,5.29-36,2.24-72.16-.6-108.19,2.8-20.4,1.92-38,6.38-46.93,28.24-4.9,12.06-5.7,14.43-10.5,26.63-11.58,28.53-19.82,45.81-31.58,72.75-4.27,9.77-6,20.84-16.38,28.18-9.07,6.39-12.75,5-27.57,7.82-30.59,3.77-31.51,4.36-55.38,6.67-42.3,4.87-41,4.42-63.5,7-21.08,4.24-47,.75-63.06,19.23a80.72,80.72,0,0,0-11.56,17.85c-6.69,14.09-16.11,21.93-32.89,20.67-16.14-1.22-32.44-.3-48.67-.32a205.58,205.58,0,0,0-52.43,7c-8.72,2.27-15.36,4.59-23.39,10.7-6.84,4.94-15.42,18.87-17.76,27.32,7.92-2.23,10.68-2.59,9.24,4.28a4.1,4.1,0,0,0,.35-1.12c.47-2.82,2.14-5.19,5-7.61a28.08,28.08,0,0,1,12.58-5.87c11.07-1.45,19.24,3.35,24.33,13.53,6.14,12.29,5.38,24.74,1.22,37.51-3.86,11.86,2.19,12.67,14.45,13.84,22.4,2.15,48.93-4.43,61.27-7.43-18,11.78-52.21,17.95-88.73,14.33-15.85-.43-25.55-11-30.74-26.07-3-8.57-3.81-17.34-1.16-25.83.66-2.11,1.13-3.84,1.43-5.28-2,4.15-10-1.46-9.24-4.28-5.3,15.11-20.24,21.4-30.54,31.71-9.15,9.17-18.83,19.07-25.56,28.94-7.34,10.77-12.53,21-16.87,38.4-9,28.21-11.94,47.52-17.8,71.27-3.27,13.22-8.31,29.39-26.41,32.9-2.7.52-4.39,2.56-5.63,5.76-5,12.92-.49,27.75,22.43,33,16.62,3.8,33.92,3.72,50.14,10.36,16.74,6.86,36.48,7.35,48.26,24.11,9.07,12.93,12.43,29.12,28.58,38.15,10,5.59,18.35,12.83,30.51,12.78,27.87-.1,55.74-.36,83.6.09,15.88.25,31-.38,45.44-8.86,4.49-2.64,7.68-7.07,12.72-8.61,24-7.32,48.66-1.46,72.94-3.88,28.42-.25,36.42.9,65,2.17,64.3,5.08,68.66,6.84,104.14,10.54,5.82.61,11.6,1.53,17.36,2.57,29.66,5.36,59.28,9,89.52,3.77,10.34-1.78,24.64-3.46,27.9,9.34a125.75,125.75,0,0,0,5.26,15.92H1685A117.24,117.24,0,0,0,1694.9,1490.58Z"/><path d="M2188.28,1265.31l-.29.26Z"/><path d="M899,1168c1.44-6.87-1.32-6.51-9.24-4.28C888.94,1166.58,897,1172.19,899,1168Z"/><path d="M1749.74,1438.57c0-.06-.18-.06-.34,0l-.06,3.37c-.12,6.56,1.18,10.79,3.89,13.4C1754.28,1455.61,1750.12,1439,1749.74,1438.57Z"/><path d="M1710.13,1452.66a13.22,13.22,0,0,0,3,2.87c5.29,2.81,4.75-3.84,5.09-5.18C1715.47,1446.36,1712.5,1448.94,1710.13,1452.66Z"/><path d="M1664.67,1538.77a85.74,85.74,0,0,0,19.44-23A96.44,96.44,0,0,1,1664.67,1538.77Z"/><path d="M1530.57,1575.9c38.67.53,77.36,0,116-.09,3.62,0,7.08.25,10.73-1.9,12.62-7.42,21.24-19.61,30.05-30,7.51-8.88,11.13-17.77,15.73-29.72h-18c-.32.53-.64,1-1,1.57a85.74,85.74,0,0,1-19.44,23,96.44,96.44,0,0,0,19.44-23c.31-.52.62-1,.92-1.57H1470.67c3.57,8.94,7.89,17.44,12.19,25.78C1492.51,1558.7,1506.49,1575.58,1530.57,1575.9Z"/><path d="M2119.63,1216.74c.91,2.58,1.81,5.17,2.72,7.75,4,8.75-.06,17.31-.92,25.89-.27,2.63-3,4.9-6.52,4.11l.19.21C2115.44,1239.79,2116.43,1232.69,2119.63,1216.74Z"/><path class="cls-6" d="M1678.09,895.19c13.32,1.4,26.58-.4,39.87-.69,18.34-.39,26.15,9.67,20.71,27.32-10.29,33.39-21.19,66.58-31.33,100-5.37,17.71-17.7,28.75-33.18,36.87-12.94,6.79-26.9,10.8-41.2,14-69.48,15.51-139.44,27.68-210.51,32.94-1.94.14-3.79,1.38-5.68,2.1-12.32,5.56-25.57,4.9-38.61,5.72q-14,.06-27.9.06c-10.67,0-21.33.17-32-.23-4.19-.15-9.61.68-9.89-6.16,40.15-3.52,80.41-5.5,120.45-10.47a1632.71,1632.71,0,0,0,210.45-40.44c13.68-3.56,26.85-9,37.88-18.35,2.16-1.84,5.35-3.58,4.87-6.79-.56-3.74-4.43-3.07-7.09-3.52-82.25-14-164.93-19.5-248.29-13.4-34,2.49-67.79,6.32-101,14.22-7,1.67-10.79,1.13-7.1-7.67,14-33.35,27.59-66.86,41.43-100.26,4.51-10.87,13-15.16,24.61-15.48q114.08-3.13,228.16-6.81c16.16-.51,32.31-1.83,48.46-2.77C1666.81,892.78,1672.44,893,1678.09,895.19Z"/><path class="cls-3" d="M1433.93,1167.91c4.36-3.1,5-3.48,8.41-5.6,66.82-44.21,136.92-48,208.52-14.23,16.87,8,32.64,7.42,49.4,6.44,86.76-5.08,173.5-10.44,260.25-15.6,15.76-.93,31.55-1.49,47.34-2,5.15-.18,8.09,1,1.7,5-17.73,6.37-36.5,5.39-54.81,7.71-11.82,1.5-23.55,2.44-35.15,6.3-15,5-31.26,3.55-46.88,4.43-38.79,2.19-77.44,6.28-116.23,8.45-12.77.72-25.57,2.06-38.39,2.45,37.82-2.1,75.54-6.41,113.3-8.14,33-1.52,66.19-9.14,99.48-2.3,7.32.17,14.65-.23,22,.22,4.15.26,29.82-1.12,46.29,2.84-39.84,6-116.5,12.09-156.56,16.06-38.43,3.81-76.93,6.8-115.4,10.24-3.47.31-9.43-1.08-9.35,3.46.1,5.1,6,4.55,10.1,4.3,43.55-2.69,87.07-5.61,130.63-8.1,37.74-2.15,75.5-3.89,113.26-5.63,5.58-.26,11.38-1.49,19.93,2.63l-107.35,12.33c-11.09,4.27-22.51,4.56-34.09,2.88l-20.91,2.07c-8.12,5.93-17.67,6.86-27.18,7.27-15.44.68-30.84,1.78-47.67,4,21.88-3.34,42.54-4.43,63-4.69,12.43-.15,25.27.63,37.89,1.74A439.88,439.88,0,0,0,1901,1210l49.06-2.59h28.56c-9.78,7.42-19,5.57-27.09,6.42-64.08,6.78-128.26,12.67-192.4,19-3.75.38-10.71-2.73-10.4,4.23.26,5.85,6.66,5,11.18,4.7,51.9-2.89,103.79-6,155.7-8.62a308.44,308.44,0,0,1,47.26,1.52c-21.68,2.41-43.35,5-65.06,7.19-42.61,4.19-85.25,8-127.84,12.35-3.6.36-10.87-2.14-10.13,5.3.62,6.32,6.8,4.82,11.16,4.59q86.6-4.52,173.19-9.15a74,74,0,0,1,16.21.88c-9.85,5.39-21,4.58-31.53,5.72-49.59,5.41-99.26,10-148.89,15-3.68.37-9.85-1.57-9.92,4.47-.08,7.53,6.71,6.11,11.34,5.86,49.84-2.65,99.66-5.58,149.49-8.22,9.44-.5,18.93-.07,31.64-.07-11.21,6.29-21,4.72-29.8,5.71-47.48,5.32-95.07,9.68-142.6,14.61-3.44.36-9.84-2.61-9.72,4s5.92,7,11.26,6.65q53.57-3.09,107.15-6.12,28-1.56,56.07-2.81c2.33-.11,5.07-.67,7.3,3.53-16,1.89-31.34,4-46.77,5.48-36.42,3.52-72.88,6.6-109.27,10.32-4.18.43-12.22-1.62-11.91,5,.33,7,7.58,7.16,13.8,6.83q71.65-3.81,143.34-7.32c2.87-.15,5.76,0,8.64,0,.11,1.11.23,2.23.34,3.34L1814,1343.19c5.37,9,7,10.3,16,9.89,40.73-1.87,81.55-2.8,122.14-6.36,21.47-1.88,41.09-12.92,61.65-19.5,8.61-2.75,17.14-5.73,25.4-8.51,2.12,3.3.1,4.08-1.11,4.57-42.3,17.37-83.58,37.52-127.8,49.68-33.46,9.2-66.78,9.17-97.89-9.26-22.73-13.46-36.41-34.72-48.66-57.23-14.5-26.62-24.32-55.75-42.7-80.27-90.89-121.27-266.49-111-344.64,20.11-1.7,2.86-3.46,5.68-5.19,8.51-4.61,0-4.34-2.63-3.23-5.78a213.89,213.89,0,0,1,54.86-72.35Z"/><path class="cls-5" d="M1098.65,1334.24c-1.14-10.65,1.68-39,1.68-40.18,0,1.27-6.39,38.5-6.43,39.78-1.88,11.78-2,19.94-4.42,32.94-3.6,20.84-4.52,27.17-12.75,47.29,0-15.61.74-24.9,1.36-47.13,1.16-26,.54-38.76,4.56-84.43-1.88,15.81-8.69,57.26-10.18,74.76-2.66,14.13-3.81,28.08-6.52,42.19-1,5.23-2.22,10.41-5,15.57-.22-13-.22-11.15-.49-32,1.7-26.25,1.27-52.58,2.15-61.88-.72,1.77-4.29,19.83-6,38.52-3.19,18.63-5.94,37.35-12.54,55.43-3.9-22.62-.44-65.64,4.92-122.88-9.65,73.58-14.28,100.77-22.45,123.09V1372c1.75-23.43,5.78-93.71,8-102-1.2,2.44-11.19,75.89-12.8,87.4-4.7,30.52-3.44,37.84-11.61,57,.3-92.45,12.15-183.31,34.32-272.79l3.76.33c-.67,13.32-1,20.44-1.7,33.76-2.45,16.32-9.56,68-9.29,78.22,4-15.76,7-44.2,12.32-62.94,4.85-17.81,6.1-32.7,13.85-50v40.69c-1.44,17.76-4,52-6.88,63.11,2.9-6.73,6.16-31.87,9.74-52.74l11.64-50.37,3.2.48v29.65c-2.35,27.63-2.62,33.79-4,58.56,3.48-22.36,14-74,17.81-89.31l4,.51q-1.46,22.62-2.92,45.25c-.64,10.83-.64,9-1.85,15.25-1.33,6.45-3.43,23-2.41,27.86,1.74-5.22,1.87-9.78,3.35-15.13,1.74-7.37,1.74-7.37,3.23-13.11l13.29-61.29c1.8-2.51,3.8-1.77,5.84-.37,6.46,11.42-1.29,22.91.07,34.41.35,3-1,6.26-1.37,9.41-3.89,9.68-1.32,20.43-4.71,28.76,1-5.46,2.93-12.27,2.4-19.4,3.33-11.2,3.68-22.84,5.27-34.3.86-6.61,1.5-13.27,4.64-19.32,10.23-3.44,14.31-.84,13.28,9.1-.83,8-1.32,16-2.4,23.15,3.47-10.44-2.64-24.55,10-33.23,7.45-.73,8.91,4.54,9.12,9.93a78.38,78.38,0,0,1-1.43,17.25c-2.89,6.09-2.23,12.88-3.58,19.25-.71,6.45-2.89,12.72-2.52,19.33.09,1.61,0,3.23,0,4.85,0-2,0-4.08,0-6.14-.12-5.94,1.66-11.6,2.45-17.41.73-11.68,4.6-22.88,4.86-34.68.1-4.41,2.09-9.25,7.43-10.91,8.11-.62,9.95,4,9,10.9-1.08,7.52-2,15-2.4,20-.15,4.3,1.74,2.71.11,3-.42.09-.65-.28-.53-1.07,1.24-7.72,1.47-15.59,3.43-23.2,1.46-5.7,3.78-10.17,11-8.36,6,5.56,6.87,12.35,4.94,19.85-2.09,4.66-1.26,9.68-1.77,14.51a12,12,0,0,1-1.11,3.74c-5.91,9.54-3,20.71-6.61,30.85-3.14,8.84-2.76,13.15.26,21.13.72,17-3.82,33.58-4.86,50.44-1.92,6.77-.62,14.49-5.91,20.27-5.32,37.8-11.38,75.46-21.53,112.41-1.91-15.71-1.41-17.29-.31-31.73.68-19.28,2.39-79.57,3.94-90.67-1.69,2.6-3.94,43.67-7,62.63q-5.71,30.07-11.44,60.15l-3.34-.36c0-14.89,1-18.69,2.32-41.79,1.07-9.81,2.94-37.5,1.07-53.84-6.8,26.78-5.09,27-8,43.13-3.64,17.6-5.48,35.14-9.61,55.11-5.56-8.65-2.58-16-3.6-22.69,0-15.14,0-15.14.59-26.76.73-16.85,4-51.79,3.58-62.45-2.81,16.71-4,33.83-7.43,59.67-2.76,13.18-4.77,28.34-7.61,41.51-.65,3-.21,6.56-4.13,9.79,0-17.15,3-34.42,3-50.52Z"/><path class="cls-6" d="M1798,1037.76c-10.4,0-20.81-.24-31.2.08-7.12.22-10-2.25-8.46-9.58,8-37.83,15.5-75.78,24.05-113.49,3.82-16.79,16.23-24.85,33.56-22.86,35.51,4.07,70.94,8.82,106.42,13.16,9.72,1.19,15.84,5.7,18.43,15.61q13.25,50.67,27.29,101.14c2.27,8.11,1,10.94-7.94,11.14-54.06,1.2-108.1,2.88-162.15,4.4Z"/><path class="cls-7" d="M1188.82,1262.44c-2,26.79-7.54,53-12.66,79.34-.63,3.23-1.05,6.67-5.1,7.64-3.06-18.33.43-36.94-2.37-55.27,2.75-23.86,6.8-47.63,6.17-71.78-.18-11.51,5.73-22.13,5-33.71,2.33-10.82,5.19-21.53,7-32.45.65-3.84,1.81-7.82-.07-11.7-3-3.69-6.68-4.21-10.85-2.19-4.67,3.08-8.56-1-12.87-1.35-7.55,3.33-14.91-4.16-22.46-.36-6.6-2.53-14.45-1.51-20-7.11,2.92-4.59,7.52-2.42,11.31-2.46,22.34-.23,44.68,0,67-.18,4,0,8.29,1.29,12-1.36l73.19-6.93c19.86-7.72,41-7.39,61.67-9,15-1.16,30.19-1.1,45.23-2.39,8.68-3.48,18,.17,26.8-2.37,19.19,3.61,38.16-.81,57.13-2.09,76.31-5.14,152.54-11.3,228.81-17,94.93-7.13,190-12.62,285-17.28,13.15-.65,26.36-.09,40.65-.09-4.75,3.58-10,3.12-14.79,3.58-91.4,8.85-182.78,18-274.24,26.19-64.15,5.74-128.42,10.25-192.65,15.07q-101.34,7.61-202.71,14.67c-33.18,2.29-66.4,4.26-99.63,5.3-10.68.33-13.39,3.65-12.41,13.81,1.06,11.13-1.18,26.45-1.17,37.67,0,14.47,3.16,25.13-3,39-1.39,13.83-2.94,27.62-7.91,40.9-5.72-1.26-3.73-6-5.14-8.93-3.25-11.88,1.18-24.28-2.39-34.25,0,.5,0-1.47-1.94.24-4,17.19-5.08,39.24-10.47,56.16-1.17,3.7-.88,8.17-6.32,11.79-2.09-8.48-1.94-16-1.66-23.52-4.71-15.14.79-30,1.38-45,.27-6.86,1.33-13.86,1.92-20.79,1.39-5.16.51-10.62,2-15.76,0-11.05,3.34-21.72,3.71-31-.74,3.67-.89,9.15-1.85,14.56-1.89,10-2.43,20.21-3.35,30.34C1193.72,1222.28,1195,1242.86,1188.82,1262.44Z"/><path class="cls-8" d="M1238.66,1179.82c10-25.93,34.78-30.46,56.74-37.41,35.21-11.15,68.09-2.84,102.94,9.72,0,4.67-2.94,3.75-5.76,3-25.18-5.66-50.33-11.77-76.36-5.63-5.25,1.23-10.44,2.74-15.64,4.21-3.76,1.06-6.38,2.51-2.44,6.64,27.5,28.82,25.2,60.08,7,93.51,12.21,3.63,24.34-.82,40.1-.14-10.19,5.93-18,7.35-25.85,8.62-9.83,1.6-19.7,3.44-29.61,4-35,1.92-51.07-11.54-56.49-46.41C1230.6,1206,1231.89,1192.53,1238.66,1179.82Z"/><path class="cls-9" d="M1692.48,1512.62c10.92-17.64,13.47-28.25,19.76-55.13l1.57-17.71a226,226,0,0,0-11-104.5c-6.69-19.06-16.3-36.54-32.62-49.25-6.6-5.13-13.66-10.12-24.64-7.89,9,5.61,15.24,7.75,22.2,18.8-.8,3.13.82,5.56,2.23,8.13,7.34,13.3,12.52,27.68,16.6,42.07,9.84,34.72,9.55,70.25,5.47,105.92-.89,7.79,2.37,14.74-.52,24.41-2.76,13.12-6.46,25.61-12.55,36.72h12.48C1691.81,1513.66,1692.15,1513.15,1692.48,1512.62Z"/><path class="cls-9" d="M1644.87,1546.42c7.6,3.22,12.32.21,16.81-2,13.35-6.68,22.06-17.91,29.8-30.2H1679A74.47,74.47,0,0,1,1644.87,1546.42Z"/><path d="M1927.74,1164.28c-62.74,1.3-123.74,5.7-186.33,9.8-12.44.82-24.86,1.75-37.3,2.59-3.74.25-8.93.8-9.24-3.72s5-3.14,8-3.38q122.88-9.66,245.47-22.49c20.36-2.12,40.8-3.46,61.2-5.16h14.71c.06.87.13,1.74.2,2.62-30.27,3.38-9.54,2-39.81,5.41,56.63-3.26,4.14,3.22,4.15,3.62,10.5,0-34.09,2.87-23.65,2.12,6.57-.47,12.27.26,17.49,4.23-.81,1.21,17.8,3.37,16.47,4-12.72-2-30.26-2.23-44.33-1.47C1939.92,1163.42,1937.88,1163.36,1927.74,1164.28Z"/><path class="cls-3" d="M1682.37,1480.76c-5.08,12-7.78,17.8-14.63,24.69-4.29,4.31-8.61,8.72-17.73,8.74,19.26-18.39,21-41.21,23.83-63.6a324.65,324.65,0,0,0-1.93-91.65c-3.45-21.7-7.6-31.38-19.94-46.77,9.86.11,11.56,1.4,23.39,17.67,7,1.29,8.61,7.22,10.25,12.59,12.62,41.34,10.4,80.19,1.21,122.28C1685.71,1469.77,1684.25,1473.79,1682.37,1480.76Z"/><path class="cls-3" d="M1609.8,1338.65A321.85,321.85,0,0,0,1611,1487C1582.84,1471.62,1572.1,1374.93,1609.8,1338.65Z"/><path d="M1681.78,1482.17c7-26.53,12.59-54.17,10.92-81.82-1.49-24.63-6-48.38-17.34-70.51-1.88-9.5-3.34-19.1-9.23-27.31-1.32-1.85-4.15-5.29,1.64-5.59,29.44,42.83,33.34,91.15,30,140.92-.9,13.16-3.46,34.86-8,47.44-1.2,2-1.34-4.46-2.64-2.51C1683.87,1487.7,1682.31,1485.3,1681.78,1482.17Z"/><path class="cls-3" d="M2114.91,1257.1c1.62-12.36,3.33-18.59,7-26.92a80.05,80.05,0,0,1,6.63-13.09,339.13,339.13,0,0,0,.54,117.29c-9-10.6-11.69-27.54-14.14-36.7C2114.16,1281,2114,1274,2114.91,1257.1Z"/><path d="M1855.41,1212.43l-111.47,7.27c-3.86.25-8.63,0-8.89-4.4-.28-4.73,4.89-3.24,7.77-3.51,28.84-2.67,57.7-5.14,86.55-7.67l10.52,1v1.49l-11.68,1.21C1838.8,1211.28,1847.89,1207.24,1855.41,1212.43Z"/><path d="M1394.18,1112.65l-109.91,9.92-9.93-.73c1.69-4.44,6.63-.12,8.91-4.19-27.62-1.66-55.14,1.27-84.19-1.92,3.89-5.91,8.14-5.37,11.84-6a31.68,31.68,0,0,1,8.67.94c38.29.67,76.59-.17,114.86,1,5.58-1.86,8,1.09,17.12.13,9,0,17.92-1.86,26.88-1.89C1383.3,1113,1389.5,1108.45,1394.18,1112.65Z"/><path d="M1121.31,1134.36l19.84,2.86c2,1.43,4.42,2.63,2.9,5.81-3.67,17-12.49,70.8-16.17,87.82-1.11-.13,2.92-37,1.8-37.16.91-12,1-11.06,1.18-21.37,1.1-13.64-.14-17.13,1.09-26.52.5-3.83-2-5-5.23-5.41-2.66.34-5.31,1.09-8,.16a21.37,21.37,0,0,0-3.16-.66l-4.07.49-.26-6C1114.59,1131.61,1118,1132,1121.31,1134.36Z"/><path class="cls-3" d="M1351.55,1111.8c5.32-.21-13.8.08-19,.85-35.9,2.59-42.25,1.86-65.63,2.38-10.27.23-18,.63-28.23.21-1.69-.77-59.65,2.08-82.66.19-26.43-2.18,58.86-3.87,77.83-4.6,25-1.13,33.87-1.13,74.56-3.71C1322.46,1112.83,1337.27,1109.28,1351.55,1111.8Z"/><path class="cls-3" d="M1121.31,1134.36c-3.36,0-2,0-9.39-.74-11.33-1.83-12.41.68-20.13-5.66,41.7,3.41,80.49,1.73,119.29,1.54-6,3.86-12.83,2.37-19.35,2.75C1168.28,1133.63,1144.53,1134.36,1121.31,1134.36Z"/><path d="M1188.82,1262.44c1.11-20.28,2.78-40.5,7.37-60.35q.91-2.58,2.19-.16-2.61,34-5.21,68.06C1191.78,1267.43,1191.92,1264,1188.82,1262.44Z"/><path class="cls-3" d="M1368,1249c1.07,1.93,2.15,3.85,3.23,5.78-4.54,11.77-14.64,37.77-19.18,49.54-1.21-.4,1.36-11.84,1.92-15.44A158.75,158.75,0,0,1,1368,1249Z"/><path d="M1171.6,1292.18c-.79,19.07-2.28,38.14-.54,57.24-5.17-8.43-1.93-17.7-2.62-26.57-.54-6.92,1.2-14-2.07-20.68.38-6.62-.38-1.28,2.56-19.66C1174.47,1284.48,1171.61,1288.71,1171.6,1292.18Z"/><path class="cls-3" d="M1392.58,1155.15l5.76-3c11.8,2.86,22.41,8.39,32.77,14.51"/><path d="M1394.18,1112.65c-5.25-.91-10.83,0-15.75-2.74,14.1-1.73,31.47-2.88,44.72-4.33.32.48,11.48,4.37,12,4.62C1426.69,1111.46,1403.15,1111.73,1394.18,1112.65Z"/><path d="M1850.28,1202.05l34.09-2.88,10.44.93C1879.89,1202.21,1865.23,1208.29,1850.28,1202.05Z"/><path d="M1211.21,1229.76c.21-7,2.51-12.91,4.74-19.57v49.38C1211.65,1250.07,1215.21,1239.31,1211.21,1229.76Z"/><path d="M1238.66,1179.82c-2.46,13.28-6.68,26.33-5.34,40.12l-4.32,7.66c1.84-14.29.57-28.91,4.42-43C1236.52,1184.49,1236.48,1180.94,1238.66,1179.82Z"/><path class="cls-10" d="M1678.09,895.19l-16.88.19h-32.13C1645.45,893.59,1661.88,889.58,1678.09,895.19Z"/><path d="M1854.4,1361.86l71.35-7.81.39,3.58C1902.82,1364.41,1879.18,1368.36,1854.4,1361.86Z"/><path d="M1163.63,1140l14.68.06c.87.37,1.21.83,1,1.38s-.4.89-.65.89c-4.52,18-13.89,66.18-18.11,93.07-.5-.1,2.21-41.28,2.21-41.28,0-18.06.83-34.09.83-52.15-.72-.44-1-.88-.72-1.31S1163.39,1140,1163.63,1140Z"/><path d="M1225,1138.87a10,10,0,0,1-5.69,2.39c-15.44.83-56.19.17-55.67.68-7.87,8.85-7.59,17.71-9.27,30.91-.61,4.79-10.91,60.52-12,65.27,2.15-32.54,5.5-63.22,6.1-72.36-.47-9.48.34-11.86.39-17.79,0-3.06.77-7.19-4.82-4.94-1-1.94-1.93-3.87-2.9-5.81C1148.55,1138.9,1183.75,1136.29,1225,1138.87Z"/><path d="M1193.68,1139.48l-9.93,47.82c-7.57-1.65-4.81-7.07-3.67-15.18.16-4.85-.15-3.19,0-8,.61-8.24,2.45-11.38,2.12-16.07C1181.55,1138.64,1185.58,1136.57,1193.68,1139.48Z"/><path d="M1123.56,1159.65c-2.5,11.62-11.09,72.7-13.59,84.32.27-27.36,3.08-54.3,3.28-57.32l2.31-46.76a5.83,5.83,0,0,0,1.32,0c5.45,0,5.12,3.47,4.71,7.37C1121.15,1151.48,1119.87,1156,1123.56,1159.65Z"/><path d="M1171.6,1292.18l-2.67-9.67c1.71-18.18,5-35.14,4.64-53,.48-4.26,1.67-20.37,5.24-50,1.2-.48-1.28,41.67-.27,42.49Q1175.08,1257.1,1171.6,1292.18Z"/><path d="M1176.42,1221.86l2.7-44.54c.56-.16,1.13-.33,1.68-.51.66,3.59,0,7.53,3,10.49q-2.61,17.37-5.21,34.73C1177.84,1222,1177.13,1221.91,1176.42,1221.86Z"/><path d="M1123.56,1159.65c-10.18-3.92-1.7-14.13-6.68-19.79,3.47-3.34,6.69-2.13,9.84.53Q1125.15,1150,1123.56,1159.65Z"/><path d="M1193.68,1139.48c-7.3-.86-10.15,2.65-10.34,9.71-.11,4.37-1.34,8.71-2.06,13.06-1.83-6.52,1.46-13.71-2.58-20a6.73,6.73,0,0,1-.39-2.27C1183.36,1137.68,1187.28,1137.83,1193.68,1139.48Z"/><path d="M1198.15,1169.24c.1-7.47.86-15,.29-22.41-.62-8,3-6.74,8.57-7.83,3.92-.76,5.39-1.11,5.31.67-.12,2.37-2.73,7.34-3.25,8.72-4.73,12.5-4.64,25.9-8.14,38.57C1194.05,1182,1198,1175.32,1198.15,1169.24Z"/><path d="M1220.92,1168.05c-1.06,8.79-3.29,29.92-4.35,38.7-.61,0-.33-8.8-.64-12.49,0-13.59,1.55-27.25.12-40.76-1-9.76.12-11.22.28-14,.06-1,2.63-.26,4.5-.87C1221.61,1141.15,1217.33,1158.21,1220.92,1168.05Z"/><path d="M1221,1167.92c-4-9.27-4.67-19.22-.68-28.31.26-.59,1-.4,1.32-1,2.17.33,3.67-.13,4.34.82,1.28,1.8.24,5.66-.4,8.35C1224,1154.48,1222.52,1161.2,1221,1167.92Z"/><path d="M1198.2,1166.93c1.51,5.81-.85,14.54,2.73,20l-2.55,15c-.73,0-1.46.09-2.19.16C1196.33,1191.11,1196.32,1179.54,1198.2,1166.93Z"/><path class="cls-3" d="M2158.69,1294.37c-1.63,12.36-3.33,18.58-7,26.92a80.05,80.05,0,0,1-6.63,13.09,339.13,339.13,0,0,0-.54-117.29c9,10.6,11.69,27.54,14.14,36.7C2159.44,1270.51,2159.58,1277.5,2158.69,1294.37Z"/><path class="cls-3" d="M643.16,1503.7c0-477.5,388.48-866,866-866s866,388.47,866,866v.55a9.93,9.93,0,0,0,9.93,9.94h0a10.46,10.46,0,0,0,10.44-10.43v-.06c0-119.65-23.44-235.73-69.66-345A889.43,889.43,0,0,0,1854.14,687c-109.28-46.23-225.35-69.66-345-69.66s-235.73,23.43-345,69.66a889.43,889.43,0,0,0-471.68,471.67c-46.22,109.28-69.65,225.36-69.65,345v.1a10.45,10.45,0,0,0,10.48,10.39h0a9.89,9.89,0,0,0,9.88-10Z"/><path class="cls-3" d="M1509.14,2369.67c-282.71,0-534.2-136.18-692.35-346.37a10.36,10.36,0,0,0-8.28-4.16h0a10.41,10.41,0,0,0-8.35,16.64,892.83,892.83,0,0,0,82.24,94.66,883.31,883.31,0,0,0,281.73,189.94c109.28,46.22,225.36,69.66,345,69.66s235.72-23.44,345-69.66a890.91,890.91,0,0,0,364-284.6,10.41,10.41,0,0,0-8.34-16.64h0a10.37,10.37,0,0,0-8.29,4.16C2043.33,2233.49,1791.84,2369.67,1509.14,2369.67Z"/><path class="cls-3" d="M587.84,1505.17c0-508,413.29-921.29,921.3-921.29s921.29,413.29,921.29,921.29h0a9,9,0,0,0,9,9h9.46a9,9,0,0,0,9-9h0c0-128.08-25.09-252.34-74.57-369.32a952,952,0,0,0-504.91-504.91c-117-49.48-241.23-74.56-369.31-74.56s-252.34,25.08-369.32,74.56a952.12,952.12,0,0,0-504.91,504.91c-49.48,117-74.57,241.24-74.57,369.32v.09a9,9,0,0,0,9,8.93H579a8.89,8.89,0,0,0,8.87-8.93Z"/><path class="cls-3" d="M1509.14,2426.46c-315.2,0-593.93-159.11-760.11-401.22a14,14,0,0,0-11.52-6.1h0A14,14,0,0,0,726,2041.09a953.78,953.78,0,0,0,413.8,338.31c117,49.47,241.24,74.56,369.32,74.56s252.33-25.09,369.31-74.56a953.59,953.59,0,0,0,413.8-338.31,14,14,0,0,0-11.49-21.95h0a14,14,0,0,0-11.52,6.1C2103.06,2267.35,1824.33,2426.46,1509.14,2426.46Z"/><path class="cls-3" d="M1509.14,362.83c586.61,0,1071.07,445.65,1132.67,1016.16l74.65-.71A1215.32,1215.32,0,0,0,1981.51,384c-149.63-63.29-308.56-95.39-472.37-95.39s-322.75,32.1-472.38,95.39a1212.56,1212.56,0,0,0-737,1017.16l74.61-.71C426,819.68,915.19,362.83,1509.14,362.83Z"/><path class="cls-3" d="M1509.14,2641.44c-442,0-826-253-1014.85-621.81H411.17a1217.87,1217.87,0,0,0,625.59,600.67c149.63,63.28,308.56,95.38,472.38,95.38s322.74-32.1,472.37-95.38a1217.94,1217.94,0,0,0,625.6-600.67H2524C2335.16,2388.43,1951.14,2641.44,1509.14,2641.44Z"/><g class="cls-11"><path d="M640,1720c0-64-28.22-98.18-78.31-98.18-25.43,0-50.48,13.12-69.16,37.36-20.67,27-36.17,73.94-36.17,125.21,0,54.46,29.41,85.46,74.33,85.46,34.18,0,62.41-20.67,87.05-62l25.44,7.95c-24.25,52.07-65.59,80.29-116.46,80.29-73.94,0-121.24-48.49-121.24-123.22,0-43.33,15.9-87.05,45.32-123.62,28.22-34.58,68-54.46,108.51-54.46,21.07,0,36.57,5.57,51.28,11.13,13.91,5.17,23.05,13.12,29.41,13.12,7.55,0,12.72-7.55,15.9-23.06h25L665,1722.81H640Z"/><path d="M848.25,1664.78c17.88,0,29.41,11.92,29.41,31.8,0,16.3-10.73,27.82-26.23,27.82-13.52,0-21.87-7.15-21.87-17.49a13.88,13.88,0,0,0,.4-2.78c0-2.78-.4-4-2.38-4-19.08,0-55.65,62.4-83.48,188.41H704.35l29.82-97.39c12.32-40.14,19.47-65.58,19.47-77.11,0-8-4-13.12-8.34-13.12-13.92,0-25.84,12.72-41.34,37.76H682.1c23.85-46.5,52.46-69.56,75.52-69.56,19.08,0,30.21,12.32,30.21,35.38,0,4.37-.8,10.33-2,18.68C806.51,1684.26,825.59,1664.78,848.25,1664.78Z"/><path d="M972.26,1894.93c-48.49,0-81.48-33.79-81.48-87,0-42.93,16.69-81.49,48.89-110.9,23.05-21.07,50.88-32.6,77.91-32.6,35.77,0,58.43,19.08,58.43,48.1,0,42.93-48.1,73.14-140.71,79.5-2.79,10.73-4.38,19.87-4.38,27,0,31.8,18.69,51.67,46.11,51.67,26.24,0,51.68-17.09,73.14-50.88l23.06.8C1047,1869.88,1013.2,1894.93,972.26,1894.93Zm64-179.67c0-17.89-10.73-28.62-27-28.62-27.43,0-53.66,29-70.36,85.86C1002.47,1768.52,1036.26,1745.47,1036.26,1715.26Z"/><path d="M1179.36,1896.52c-35.78,0-62.41-31.8-62.41-82.68,0-37,13.12-74.33,35.77-103.35,23.46-29.81,52.07-45.31,80.3-45.31,27.42,0,45.31,14.31,57.24,44.91l17.88-61.61a67.59,67.59,0,0,0,2.78-16.69c0-9.94-9.54-14.71-28.62-14.71h-14.7l6-21.86c30.61-.8,59.62-2.39,87.45-5.57l-69.17,242.87c-2,7.15-3.57,12.72-3.57,17.89,0,9.14,4.77,14.31,11.92,14.31,11.13,0,24.25-13.12,38.16-39.35h22.26c-21.07,46.5-46.11,70-74.33,70-20.67,0-31.8-11.92-36.17-36.57C1227.45,1883.8,1204,1896.52,1179.36,1896.52Zm4.37-166.55c-17.49,26.63-27.43,62-27.43,92.22s14.71,47.69,37.76,47.69c17.89,0,35-10.33,50.48-31,19.88-26.63,33-68,33-98.58,0-30.21-15.51-48.09-38.16-48.09C1219.5,1692.21,1200,1704.93,1183.73,1730Z"/><path d="M1440.9,1895.32c-21.06,0-33.78-13.51-33.78-36.57,0-13.11,4.37-35,15.1-64,15.9-43.33,27-69.56,27-81.09,0-8.74-2.78-12.32-9.14-12.32-12.72,0-24.65,12.72-39.75,37.36H1378.1c23.85-46.5,52.07-69.56,75.92-69.56,19.87,0,32.2,13.52,32.2,37.37,0,17.88-9.54,44.91-23.06,82.67-11.53,31.8-18.28,51.68-18.28,61.22,0,8.74,4.37,13.51,11.53,13.51,11.12,0,23-12.72,37-38.55h21.86C1494.17,1871.87,1469.52,1895.32,1440.9,1895.32Zm34.19-306.86a26,26,0,0,1,26.23,26.24,26.46,26.46,0,0,1-26.23,26.23,25.88,25.88,0,0,1-25.84-26.23C1449.25,1600,1460.38,1588.46,1475.09,1588.46Z"/><path d="M1836.8,1862.73l-6.75,25.84H1708.41l6.36-25.84c27.43-2,39-6,39-23.45a150,150,0,0,0-2-20.27l-4.37-29.42H1638.85l-21.06,40.94c-4.38,8.35-5.57,15.5-5.57,17.89,0,11.13,11.53,13.91,37,14.31l-6.36,25.84H1537.49l6.76-25.84c20.67-4.37,29.81-15.9,40.55-34.18l129.58-226.18h44.52l35,221.8C1798.25,1852,1804.21,1860.74,1836.8,1862.73Zm-93.41-99-19.08-123.22L1654,1763.75Z"/><path d="M1926.24,1668.75c21.07,0,33.79,13.52,33.79,36.57q0,23.85-17.89,71.55c-13.11,35.78-23.05,59.62-23.05,74.33,0,11.93,7.55,18.68,20.67,18.68,37.76,0,77.51-66,106.13-198.34H2086l-31.4,101.36c-12.32,40.14-19.47,65.58-19.47,77.11,0,8,3.57,12.72,9.53,12.72,13.12,0,28.62-14.31,41.34-43.33h22.26c-20.67,49.69-53.26,75.53-77.11,75.53-19.48,0-30.21-12.72-30.21-37a124.66,124.66,0,0,1,2-19.87c-25.44,38.15-49.29,57.23-77.11,57.23-25.44,0-42.54-17.09-42.54-42.93,0-22.25,9.54-46.9,20.67-77.51,11.53-31.8,18.29-51.67,18.29-61.21,0-8.74-4.77-13.51-11.93-13.51-10.73,0-23,12.72-37,38.55h-22.26C1873.77,1691.81,1898,1668.75,1926.24,1668.75Z"/><path d="M2140.49,1692.6l6-21.06h41.34l21.46-77.51h38.16L2226,1671.54h38.16l-4.77,21.06h-39l-39,139.92a74.6,74.6,0,0,0-3.18,20.67c0,9.14,3.58,13.12,12.32,13.12,13.91,0,30.61-15.5,47.7-46.51h23.85c-24.25,50.08-52.87,75.52-85.46,75.52-22.66,0-36.57-14.7-36.57-39,0-12.32,4-26.63,8.75-44.52l33-119.25Z"/><path d="M2470.41,1852c-23.06,28.22-54.86,43.32-88.24,43.32-49.69,0-84.67-36.17-84.67-92.61,0-42.14,15.11-79.5,42.93-106.13,21.86-21.07,48.49-31.8,78.7-31.8,50.88,0,83.47,36.57,83.47,91.82C2502.6,1792.37,2490.28,1827.35,2470.41,1852Zm-32.2-16.3c13.12-23.45,21.86-56.44,21.86-89.83,0-39.75-14.7-59.63-43.72-59.63-38.95,0-75.13,48.9-75.13,122.83,0,42.13,16.7,64.79,44.92,64.79C2406.41,1873.86,2423.9,1861.14,2438.21,1835.7Z"/><path d="M2534,1838.88c0-19.08,9.93-31,25-31,13.51,0,22.26,8.34,22.26,20.27,0,15.5-14.31,19.87-14.31,25.83,0,7.56,15.5,18.69,38.95,18.69,28.22,0,44.92-14.31,44.92-35,0-19.48-17.09-30.21-39.36-47.3-30.2-23.06-46.5-39.75-46.5-65.19,0-33.39,28.22-60,70.35-60,39.35,0,67.18,23.45,67.18,50.48,0,17.09-11.13,29-26.63,29-12.72,0-21.47-7.56-21.47-18.69,0-16.29,16.3-18.68,16.3-27,0-4.77-13.91-14.7-33-14.7-22.26,0-38.16,13.91-38.16,30.21,0,13.51,9.94,23.85,27.43,37,35.37,26.63,60,43.73,60,76.72,0,36.17-33.39,67.17-81.09,67.17C2562.62,1895.32,2534,1869.49,2534,1838.88Z"/></g><path class="cls-3" d="M645,1710c0-64-28.22-98.18-78.31-98.18-25.43,0-50.48,13.12-69.16,37.36-20.67,27-36.17,73.94-36.17,125.21,0,54.46,29.41,85.46,74.33,85.46,34.18,0,62.41-20.67,87.05-62l25.44,7.95c-24.25,52.07-65.59,80.29-116.46,80.29-73.94,0-121.24-48.49-121.24-123.22,0-43.33,15.9-87.05,45.32-123.62,28.22-34.58,68-54.46,108.51-54.46,21.07,0,36.57,5.57,51.28,11.13,13.91,5.17,23.05,13.12,29.41,13.12,7.55,0,12.72-7.55,15.9-23.06h25L670,1712.81H645Z"/><path class="cls-3" d="M853.25,1654.78c17.88,0,29.41,11.92,29.41,31.8,0,16.3-10.73,27.82-26.23,27.82-13.52,0-21.87-7.15-21.87-17.49a13.88,13.88,0,0,0,.4-2.78c0-2.78-.4-4-2.38-4-19.08,0-55.65,62.4-83.48,188.41H709.35l29.82-97.39c12.32-40.14,19.47-65.58,19.47-77.11,0-8-4-13.12-8.34-13.12-13.92,0-25.84,12.72-41.34,37.76H687.1c23.85-46.5,52.46-69.56,75.52-69.56,19.08,0,30.21,12.32,30.21,35.38,0,4.37-.8,10.33-2,18.68C811.51,1674.26,830.59,1654.78,853.25,1654.78Z"/><path class="cls-3" d="M977.26,1884.93c-48.49,0-81.48-33.79-81.48-87,0-42.93,16.69-81.49,48.89-110.9,23.05-21.07,50.88-32.6,77.91-32.6,35.77,0,58.43,19.08,58.43,48.1,0,42.93-48.1,73.14-140.71,79.5-2.79,10.73-4.38,19.87-4.38,27,0,31.8,18.69,51.67,46.11,51.67,26.24,0,51.68-17.09,73.14-50.88l23.06.8C1052,1859.88,1018.2,1884.93,977.26,1884.93Zm64-179.67c0-17.89-10.73-28.62-27-28.62-27.43,0-53.66,29-70.36,85.86C1007.47,1758.52,1041.26,1735.47,1041.26,1705.26Z"/><path class="cls-3" d="M1184.36,1886.52c-35.78,0-62.41-31.8-62.41-82.68,0-37,13.12-74.33,35.77-103.35,23.46-29.81,52.07-45.31,80.3-45.31,27.42,0,45.31,14.31,57.24,44.91l17.88-61.61a67.59,67.59,0,0,0,2.78-16.69c0-9.94-9.54-14.71-28.62-14.71h-14.7l6-21.86c30.61-.79,59.62-2.39,87.45-5.57l-69.17,242.87c-2,7.15-3.57,12.72-3.57,17.89,0,9.14,4.77,14.31,11.92,14.31,11.13,0,24.25-13.12,38.16-39.35h22.26c-21.07,46.5-46.11,70-74.33,70-20.67,0-31.8-11.92-36.17-36.57C1232.45,1873.8,1209,1886.52,1184.36,1886.52Zm4.37-166.55c-17.49,26.63-27.43,62-27.43,92.22s14.71,47.69,37.76,47.69c17.89,0,35-10.33,50.48-31,19.88-26.63,33-68,33-98.58,0-30.21-15.51-48.09-38.16-48.09C1224.5,1682.21,1205,1694.93,1188.73,1720Z"/><path class="cls-3" d="M1445.9,1885.32c-21.06,0-33.78-13.51-33.78-36.57,0-13.11,4.37-35,15.1-64,15.9-43.33,27-69.56,27-81.09,0-8.74-2.78-12.32-9.14-12.32-12.72,0-24.65,12.72-39.75,37.36H1383.1c23.85-46.5,52.07-69.56,75.92-69.56,19.87,0,32.2,13.52,32.2,37.37,0,17.88-9.54,44.91-23.06,82.67-11.53,31.8-18.28,51.68-18.28,61.22,0,8.74,4.37,13.51,11.53,13.51,11.12,0,23-12.72,37-38.55h21.86C1499.17,1861.87,1474.52,1885.32,1445.9,1885.32Zm34.19-306.86a26,26,0,0,1,26.23,26.24,26.46,26.46,0,0,1-26.23,26.23,25.88,25.88,0,0,1-25.84-26.23C1454.25,1590,1465.38,1578.46,1480.09,1578.46Z"/><path class="cls-3" d="M1841.8,1852.73l-6.75,25.84H1713.41l6.36-25.84c27.43-2,39-6,39-23.45a150,150,0,0,0-2-20.27l-4.37-29.42H1643.85l-21.06,40.94c-4.38,8.35-5.57,15.5-5.57,17.89,0,11.13,11.53,13.91,37,14.31l-6.36,25.84H1542.49l6.76-25.84c20.67-4.37,29.81-15.9,40.55-34.18l129.58-226.18h44.52l35,221.8C1803.25,1842,1809.21,1850.74,1841.8,1852.73Zm-93.41-99-19.08-123.22L1659,1753.75Z"/><path class="cls-3" d="M1931.24,1658.75c21.07,0,33.79,13.52,33.79,36.57q0,23.85-17.89,71.55c-13.11,35.78-23.05,59.62-23.05,74.33,0,11.93,7.55,18.68,20.67,18.68,37.76,0,77.51-66,106.13-198.34H2091l-31.4,101.36c-12.32,40.14-19.47,65.58-19.47,77.11,0,8,3.57,12.72,9.53,12.72,13.12,0,28.62-14.31,41.34-43.33h22.26c-20.67,49.69-53.26,75.53-77.11,75.53-19.48,0-30.21-12.72-30.21-37a124.66,124.66,0,0,1,2-19.87c-25.44,38.15-49.29,57.23-77.11,57.23-25.44,0-42.54-17.09-42.54-42.93,0-22.25,9.54-46.9,20.67-77.51,11.53-31.8,18.29-51.67,18.29-61.21,0-8.74-4.77-13.51-11.93-13.51-10.73,0-23,12.72-37,38.55h-22.26C1878.77,1681.81,1903,1658.75,1931.24,1658.75Z"/><path class="cls-3" d="M2145.49,1682.6l6-21.06h41.34l21.46-77.51h38.16L2231,1661.54h38.16l-4.77,21.06h-39l-39,139.92a74.6,74.6,0,0,0-3.18,20.67c0,9.14,3.58,13.12,12.32,13.12,13.91,0,30.61-15.5,47.7-46.51h23.85c-24.25,50.08-52.87,75.52-85.46,75.52-22.66,0-36.57-14.7-36.57-39,0-12.32,4-26.63,8.74-44.52l33-119.25Z"/><path class="cls-3" d="M2475.41,1842c-23.06,28.22-54.86,43.32-88.24,43.32-49.69,0-84.67-36.17-84.67-92.61,0-42.13,15.11-79.5,42.93-106.13,21.86-21.07,48.49-31.8,78.7-31.8,50.88,0,83.47,36.57,83.47,91.82C2507.6,1782.37,2495.28,1817.35,2475.41,1842Zm-32.2-16.3c13.12-23.45,21.86-56.44,21.86-89.83,0-39.75-14.7-59.63-43.72-59.63-38.95,0-75.13,48.9-75.13,122.83,0,42.13,16.7,64.79,44.92,64.79C2411.41,1863.86,2428.9,1851.14,2443.21,1825.7Z"/><path class="cls-3" d="M2539,1828.88c0-19.08,9.93-31,25-31,13.51,0,22.26,8.34,22.26,20.27,0,15.5-14.31,19.87-14.31,25.84,0,7.55,15.5,18.68,38.95,18.68,28.22,0,44.92-14.31,44.92-35,0-19.48-17.09-30.21-39.36-47.3-30.2-23.06-46.5-39.75-46.5-65.19,0-33.39,28.22-60,70.35-60,39.35,0,67.18,23.45,67.18,50.48,0,17.09-11.13,29-26.63,29-12.72,0-21.47-7.56-21.47-18.69,0-16.29,16.3-18.68,16.3-27,0-4.77-13.91-14.7-33-14.7-22.26,0-38.16,13.91-38.16,30.21,0,13.51,9.94,23.85,27.43,37,35.37,26.63,60,43.73,60,76.72,0,36.17-33.39,67.17-81.09,67.17C2567.62,1885.32,2539,1859.49,2539,1828.88Z"/><path class="cls-3" d="M1210.33,2148c0-24.06-10.61-36.91-29.43-36.91-9.57,0-19,4.93-26,14-7.77,10.16-13.6,27.79-13.6,47.06,0,20.47,11.06,32.13,27.94,32.13,12.85,0,23.46-7.77,32.72-23.31l9.57,3c-9.12,19.57-24.66,30.18-43.78,30.18-27.8,0-45.58-18.23-45.58-46.32,0-16.29,6-32.72,17-46.47,10.61-13,25.55-20.47,40.79-20.47,7.92,0,13.75,2.09,19.27,4.18,5.23,1.94,8.67,4.93,11.06,4.93,2.84,0,4.78-2.84,6-8.66h9.41l-6,47.66h-9.41Z"/><path class="cls-3" d="M1297.59,2197.64c-8.67,10.61-20.62,16.29-33.18,16.29-18.67,0-31.82-13.6-31.82-34.81,0-15.84,5.67-29.89,16.13-39.9a41.44,41.44,0,0,1,29.59-11.95c19.13,0,31.38,13.74,31.38,34.51C1309.69,2175.23,1305.06,2188.38,1297.59,2197.64Zm-12.11-6.12c4.93-8.82,8.22-21.22,8.22-33.77,0-14.94-5.53-22.41-16.44-22.41-14.64,0-28.24,18.37-28.24,46.17,0,15.84,6.28,24.35,16.89,24.35C1273.53,2205.86,1280.1,2201.08,1285.48,2191.52Z"/><path class="cls-3" d="M1339.57,2213.93c-7.92,0-12.85-5.08-12.85-13.75,0-6,3-16.28,7.17-31.22l12.25-43.49c1.5-5.53,2.24-9.11,2.24-10.6,0-3.74-3.58-5.53-10.76-5.53h-5.52l2.24-8.22A331.66,331.66,0,0,0,1368,2099l-21.82,76.8c-3.29,11.8-5.08,19-5.08,21.66,0,3,1.64,4.79,4.19,4.79,4.18,0,8.81-5.23,14.64-15.54h8.67C1359.14,2204.82,1350.47,2213.93,1339.57,2213.93Z"/><path class="cls-3" d="M1444.46,2197.64c-8.67,10.61-20.62,16.29-33.18,16.29-18.67,0-31.82-13.6-31.82-34.81,0-15.84,5.67-29.89,16.14-39.9a41.4,41.4,0,0,1,29.58-11.95c19.13,0,31.38,13.74,31.38,34.51C1456.56,2175.23,1451.93,2188.38,1444.46,2197.64Zm-12.11-6.12c4.93-8.82,8.22-21.22,8.22-33.77,0-14.94-5.53-22.41-16.44-22.41-14.64,0-28.24,18.37-28.24,46.17,0,15.84,6.28,24.35,16.89,24.35C1420.4,2205.86,1427,2201.08,1432.35,2191.52Z"/><path class="cls-3" d="M1485.84,2174.78c4.48-14.79,7.32-24.35,7.32-29,0-3.14-1.19-4.94-3-4.94-5.23,0-10,4.79-15.69,14.2h-8.22c9-17.48,19.73-26.15,28.39-26.15,7.33,0,11.36,4.78,11.36,13.9a46.61,46.61,0,0,1-.75,7.47c9.12-14.35,17.64-21.52,27.5-21.52,9.26,0,14.64,5.83,14.64,16.14a35.44,35.44,0,0,1-.45,5.38c9.86-14.2,17.93-21.52,27.94-21.52,9.72,0,16.44,6.43,16.44,15.84,0,7.17-3,15.54-7,26.15-5.08,13.59-8.22,22.26-8.22,26.3,0,3.28,1.79,5.23,4.48,5.23,4.48,0,9.71-5.68,15.09-16.89H1604c-9.11,19.13-18.08,28.54-29.58,28.54-7.77,0-12.41-4.93-12.41-13.75,0-7.77,3.29-17.48,7.92-30s7.17-20.47,7.17-24.65c0-4.64-2.54-7.18-7.17-7.18-13.89,0-29.13,24.36-39.59,73.07h-14.8l11.06-36.61c4.18-13.89,8.22-23.46,8.22-29.43,0-4.79-2.24-7-7-7-13.15,0-27.5,24.36-38.26,73.07h-14.94Z"/><path class="cls-3" d="M1663.05,2128.31c15.24,0,25.1,11.21,25.1,30.48a62.26,62.26,0,0,1-11.21,35.87c-8.66,12.25-21.66,19.12-36.31,19.12-17,0-26.59-9-26.59-25.1,0-6,1.34-12.55,3.43-19.72l13.45-47.82a28.89,28.89,0,0,0,1.2-6.27c0-3.74-3.59-5.53-10.76-5.53h-5.53l2.24-8.22a328.59,328.59,0,0,0,33.47-2.09l-13,43.93C1645.86,2133.09,1653.78,2128.31,1663.05,2128.31Zm.44,64.4c5.68-8.66,9.72-22.11,9.72-34.06,0-13-4.93-19.58-14.5-19.58-6.42,0-12.4,3.59-18.08,10.61-7.92,9.86-13.15,25.55-13.15,37.8,0,11.21,5.83,17.78,15.39,17.78C1651.09,2205.26,1658,2201.23,1663.49,2192.71Z"/><path class="cls-3" d="M1726.54,2213.93c-7.92,0-12.7-5.08-12.7-13.75,0-4.93,1.65-13.14,5.68-24,6-16.29,10.16-26.15,10.16-30.48,0-3.29-1-4.64-3.44-4.64-4.78,0-9.26,4.79-14.94,14h-8.37c9-17.48,19.58-26.15,28.54-26.15,7.47,0,12.11,5.08,12.11,14.05,0,6.72-3.59,16.88-8.67,31.07-4.33,12-6.87,19.43-6.87,23,0,3.28,1.64,5.08,4.33,5.08,4.18,0,8.67-4.78,13.9-14.5h8.21C1746.57,2205.11,1737.3,2213.93,1726.54,2213.93Zm12.85-115.35a9.75,9.75,0,0,1,9.86,9.86,10,10,0,0,1-9.86,9.86,9.86,9.86,0,0,1,0-19.72Z"/><path class="cls-3" d="M1791.84,2214.38c-13.45,0-23.46-12-23.46-31.08a64.09,64.09,0,0,1,13.45-38.85c8.81-11.21,19.57-17,30.18-17,10.31,0,17,5.37,21.51,16.88l4-15.54h14.19l-17,61.56a26.43,26.43,0,0,0-1.34,6.73c0,3.28,1.79,5.23,4.18,5.23,4,0,8.81-4.79,14-14.65H1860c-7.92,17.48-17.33,26.3-27.94,26.3-7.77,0-12-4.33-13.6-13.75C1809.92,2209.6,1801.1,2214.38,1791.84,2214.38Zm1.94-62.61a66.59,66.59,0,0,0-10.46,34.67c0,11.35,5.53,17.93,14.19,17.93,6.73,0,13.15-3.89,19-11.66,7.47-10,12.4-25.55,12.4-37.05s-5.68-18.08-14.19-18.08C1807.23,2137.58,1799.91,2142.36,1793.78,2151.77Z"/><circle class="cls-3" cx="1890.66" cy="2170.6" r="20.49"/><circle class="cls-3" cx="1069.07" cy="2170.6" r="20.49"/><path class="cls-3" d="M2635.37,1329.59c1.43,16,1.57,42.16,2.31,58.1a42.92,42.92,0,0,0,28,38.23c102.19,37.94,175.82,142.74,175.82,265.76,0,154.91-116.75,280.94-260.25,280.94q-10.18,0-20.18-.83a27.36,27.36,0,0,0-27.48,17.15c-8.21,20.24-16,42.22-22.9,56,22.76,5.19,46.36,3.18,70.56,3.18,185.1,0,335.7-159.87,335.7-356.39C2916.9,1514.4,2795.26,1356.76,2635.37,1329.59Z"/><path class="cls-3" d="M379.74,1361.43q-1.53,22.07-2.21,44a16.54,16.54,0,0,1-11.87,15.32c-110.1,32.74-191.21,141.78-191.21,270.89,0,154.91,116.75,280.94,260.25,280.94a244.25,244.25,0,0,0,27.31-1.53,16.55,16.55,0,0,1,17.33,10.29c5.87,14.83,11.55,28.17,16.89,39.87a16.42,16.42,0,0,1-12.53,23,317,317,0,0,1-49,3.8C249.6,2048.07,99,1888.2,99,1691.68c0-169.14,111.57-311.12,260.68-347.4A16.37,16.37,0,0,1,379.74,1361.43Z"/></g></g></g></svg>