<svg xmlns="http://www.w3.org/2000/svg" xmlns:xlink="http://www.w3.org/1999/xlink" viewBox="0 0 31.92 31.92"><defs><style>.cls-1{isolation:isolate;}.cls-2{fill:url(#Degradado_sin_nombre_16);}.cls-3{fill:#fff;}.cls-4{fill:#fafafa;}.cls-5{fill:#fcfcfc;}.cls-6{fill:#fefefe;}.cls-7{fill:#fbfbfb;}.cls-8{fill:#fdfdfd;}.cls-9{fill:#f9f9f9;}.cls-10{fill:#141414;}.cls-11{mix-blend-mode:multiply;}</style><radialGradient id="Degradado_sin_nombre_16" cx="15.96" cy="15.96" r="15.96" gradientUnits="userSpaceOnUse"><stop offset="0" stop-color="red"/><stop offset="0.43" stop-color="#fd0000"/><stop offset="0.58" stop-color="#f60000"/><stop offset="0.69" stop-color="#eb0000"/><stop offset="0.78" stop-color="#da0000"/><stop offset="0.86" stop-color="#c40000"/><stop offset="0.92" stop-color="#a80000"/><stop offset="0.98" stop-color="#890000"/><stop offset="1" stop-color="#7f0000"/></radialGradient></defs><title>Recurso 6</title><g class="cls-1"><g id="Capa_2" data-name="Capa 2"><g id="Capa_1-2" data-name="Capa 1"><circle class="cls-2" cx="15.96" cy="15.96" r="15.96"/><path class="cls-3" d="M22.39,12.46a.81.81,0,0,1,.19-.42c.14-.17.27-.08.33-.08s.17.08.21.34a9.63,9.63,0,0,1,0,1.06s0,0,0-.08c0-.33-.11-1-.11-1a.21.21,0,0,0-.36.05c-.05.13-.17,1.36-.24,1.59s-.14-.05-.13.06c-.1-.11,0-.75,0-.84S22.38,12.64,22.39,12.46Z"/><path class="cls-4" d="M18.43,15.28s0-.07,0-.1a4.66,4.66,0,0,0-.21-1.62.94.94,0,0,0-.14-.26.32.32,0,0,0-.48-.1,2,2,0,0,0-.52.55s-.17.27-.18.29a4.12,4.12,0,0,1-.47.91,2.14,2.14,0,0,1-.58.4c-.08,0-.3,0-.39,0s.33-.35.27-.18a1.14,1.14,0,0,0,.67-.62c.17-.31.13-.26.34-.61,0-.07.23-.43.27-.49a2.06,2.06,0,0,1,.49-.44.52.52,0,0,1,.69.18,1.68,1.68,0,0,1,.29.75,4.09,4.09,0,0,1,.07,1.21c0,.22.08.23.32.24a.28.28,0,0,1-.28,0Z"/><path class="cls-5" d="M9.6,12l-.07.16c.16-.08.31-.11.42,0a.5.5,0,0,1,.09.52c0,.12,0,.14.09.15s.57-.12.7-.09-.34.12-.36.13a2,2,0,0,1-.73.06.36.36,0,0,1-.32-.35.53.53,0,0,1,0-.25s0-.07,0-.07A1.08,1.08,0,0,1,9.6,12Z"/><path d="M22.41,13.81l-.05-.08c0-.15,0-.37,0-.59,0,0,0,.15,0,.15a1.21,1.21,0,0,1,.05.46A.06.06,0,0,1,22.41,13.81Z"/><path d="M17.68,15.8s0,0,0,.06S17.68,15.82,17.68,15.8Z"/><path d="M18.13,15.41l0,0s0,.07,0,.08a1.27,1.27,0,0,0-.06.18,1.68,1.68,0,0,1-.16.39H18l0-.07.06-.18a3,3,0,0,0,.08-.43S18.19,15.44,18.13,15.41Z"/><path d="M17.67,14v0Z"/><path d="M17.68,13.65h0Z"/><path d="M23.12,13.35v.05h.05s0,0,0,0h0Z"/><path d="M23.16,13.4h0Z"/><path d="M17.94,15.78c0-.06,0-.12,0-.17s-.07,0-.1,0-.08.06-.1.1l0,.05s0,0,0,.06,0,0,0-.06a2.86,2.86,0,0,0,0-1.76v0a.06.06,0,0,0,.08,0s0-.07,0-.11a.82.82,0,0,1-.06-.27s0,0,0,0h0l0,0s0,0,0,0h0a2.09,2.09,0,0,1,.4,1.53.25.25,0,0,0,0,.19s.06-.07.09,0,.06,0,.13,0h.12l0,0a.25.25,0,0,1,.07.05h0s0-.07,0-.14v0s-.07,0-.07,0a1.36,1.36,0,0,0,0-.21c0-.13,0-.21,0-.34s0-.37-.05-.51a2.2,2.2,0,0,0-.24-.83c-.16-.27-.35-.28-.61-.11a1.44,1.44,0,0,0-.38.36,13.06,13.06,0,0,0-.77,1.3,1,1,0,0,1-.87.41,1.76,1.76,0,0,0,.63-.27,2.47,2.47,0,0,0,.41-.7,4.59,4.59,0,0,1,.34-.7,3,3,0,0,1,.47-.5.51.51,0,0,1,.82.1,3.49,3.49,0,0,1,.2.44,4.88,4.88,0,0,1,.15,1.57h0a1.36,1.36,0,0,1,0,.17s0,0,0,0a.35.35,0,0,0,.11,0l.09,0c.33-.1.66-.17,1-.3l.83-.34c.26-.1.5-.23.75-.35l.41-.17a1.23,1.23,0,0,0,.07.32c0,.06.18.07.35.06s.38,0,.55,0,.14-.13.2-.33a3,3,0,0,0,.06-.43v-.3c0-.08,0-.07,0-.1l0,0,.06,0h0v-.08c0-.35-.06-.63-.1-1a.65.65,0,0,0-.05-.2c-.05-.1-.13-.08-.22-.05s0,0-.11.11a1.17,1.17,0,0,0-.16.41c0,.07,0,.12-.06.25s0,.14,0,.2c0,.25,0,.06,0,.25s0,.15,0,.19,0,0,0,.18a2.42,2.42,0,0,1,0,.25,2.43,2.43,0,0,1,0-.59,3.14,3.14,0,0,1,.17-1c.08-.21.32-.56.51-.4a.38.38,0,0,1,.13.29c0,.3,0,.89,0,1.06s.05,0,0,0,0,0,0,0a.28.28,0,0,0,0-.15,3.87,3.87,0,0,0,0-.5c0-.23,0-.42,0-.45A.46.46,0,0,0,23,12c-.12-.11-.25-.28-.35-.37a.69.69,0,0,0-.44-.13c-.08,0-.11,0-.16,0a2.51,2.51,0,0,0-.17-.23.45.45,0,0,0-.31-.1.21.21,0,0,1-.23-.2c0-.36-.13-.72-.17-1.09a.33.33,0,0,0-.22-.3c-.13,0-.26-.11-.39-.16L20,9.23a3.05,3.05,0,0,0-.74,0l-1.18,0c-.73,0-1.47,0-2.21.06-.38,0-.76,0-1.14,0-.22,0-.41.06-.5.3l-.11.28c-.12.3-.21.48-.34.77a.57.57,0,0,1-.17.3c-.09.06-.13.05-.29.08-.32,0-.33.05-.59.07l-.67.07c-.22,0-.5,0-.67.21a.88.88,0,0,0-.12.19.31.31,0,0,1-.35.21h-.51a2.16,2.16,0,0,0-.56.08.48.48,0,0,0-.24.11.57.57,0,0,0-.19.29c.08,0,.11,0,.1,0h0s0,0,.05-.08a.27.27,0,0,1,.14-.06.22.22,0,0,1,.25.14.51.51,0,0,1,0,.4c-.05.12,0,.13.15.15a2.25,2.25,0,0,0,.65-.08,1.62,1.62,0,0,1-.94.15.37.37,0,0,1-.33-.28.42.42,0,0,1,0-.27l0-.06c0,.05-.11,0-.1,0-.06.16-.22.22-.33.33a3.74,3.74,0,0,0-.27.31,1.12,1.12,0,0,0-.17.41,7.51,7.51,0,0,0-.19.75c0,.14-.09.31-.28.35,0,0,0,0-.06.06s0,.29.23.35a3.45,3.45,0,0,1,.54.11c.17.07.38.08.51.25s.13.31.3.41a.61.61,0,0,0,.32.13h.89a.81.81,0,0,0,.48-.09,1,1,0,0,1,.13-.09,3.35,3.35,0,0,1,.77,0l.69,0,1.1.11.19,0a2.53,2.53,0,0,0,1,0c.11,0,.26,0,.29.1a1.15,1.15,0,0,0,.06.17h2.27A1.86,1.86,0,0,0,17.94,15.78Z"/><path d="M23.16,13.39h0Z"/><path d="M9.52,12.36c0-.07,0-.07-.1,0S9.49,12.41,9.52,12.36Z"/><path d="M18.52,15.23h0v0c0,.07,0,.12,0,.14A1.36,1.36,0,0,0,18.52,15.23Z"/><path d="M18.1,15.38l0,0c.06,0,.05,0,.06-.06S18.13,15.34,18.1,15.38Z"/><path d="M17.62,16.29a1,1,0,0,0,.21-.25A1.27,1.27,0,0,1,17.62,16.29Z"/><path d="M16.2,16.68c.41,0,.82,0,1.23,0a.22.22,0,0,0,.11,0,1.22,1.22,0,0,0,.32-.32A1,1,0,0,0,18,16h-.2a1,1,0,0,1-.21.25,1.27,1.27,0,0,0,.21-.25H15.57a1.66,1.66,0,0,0,.13.27A.57.57,0,0,0,16.2,16.68Z"/><path d="M22.44,12.88l0,.08c.05.09,0,.18,0,.28a0,0,0,0,1-.06,0h0A1.41,1.41,0,0,1,22.44,12.88Z"/><path class="cls-6" d="M17.76,9.48c.14,0,.28,0,.42,0s.28.1.22.29l-.33,1.06a.67.67,0,0,1-.35.39,1.62,1.62,0,0,1-.44.14,13.86,13.86,0,0,1-2.22.35s0,0-.06,0a1.4,1.4,0,0,1-.41.06H14s-.1,0-.1-.06c.42,0,.85-.06,1.27-.11a18.3,18.3,0,0,0,2.23-.43,1.06,1.06,0,0,0,.4-.19s.06,0,.05-.08,0,0-.07,0a11,11,0,0,0-2.63-.15,6.43,6.43,0,0,0-1.07.16c-.07,0-.11,0-.07-.09.14-.35.29-.7.44-1.06a.25.25,0,0,1,.26-.16l2.41-.07.51,0A.19.19,0,0,1,17.76,9.48Z"/><path class="cls-3" d="M15.18,12.36l.09-.06a2.11,2.11,0,0,1,2.2-.15,1,1,0,0,0,.53.07l2.75-.16.5,0c.06,0,.09,0,0,.06a3.85,3.85,0,0,1-.58.08,1.21,1.21,0,0,0-.37.07,2.07,2.07,0,0,1-.5,0l-1.23.09-.4,0c.4,0,.8-.07,1.19-.09a4.18,4.18,0,0,1,1.06,0h.23a2.42,2.42,0,0,1,.49,0c-.42.06-1.23.13-1.66.17l-1.22.11s-.1,0-.1,0,.07,0,.11,0l1.38-.09,1.2-.06a.42.42,0,0,1,.21,0L20,12.69a.66.66,0,0,1-.37,0l-.22,0a.45.45,0,0,1-.28.07l-.51,0c.23,0,.45,0,.67,0l.4,0a3.93,3.93,0,0,0,.48,0l.52,0h.3a.45.45,0,0,1-.28.07l-2,.2s-.11,0-.11,0,.07.06.12.05l1.65-.09a2.83,2.83,0,0,1,.5,0l-.69.07-1.35.14s-.12,0-.11.05.07.05.12.05l1.83-.1h.17a.75.75,0,0,1-.33.06l-1.58.16s-.1,0-.1.05.07.06.12.06l1.58-.09h.33a.63.63,0,0,1-.31.06L19,13.75s-.11,0-.1,0,.06.07.11.07l1.14-.06.59,0s.06,0,.08,0c-.17,0-.33,0-.5.06L19.12,14c-.05,0-.13,0-.13,0s.08.08.15.08L20.66,14h.09v0l-1.55.17c.06.09.07.11.17.1.43,0,.86,0,1.29-.07a3.13,3.13,0,0,0,.66-.2l.26-.09s0,0,0,0a13,13,0,0,1-1.35.52,1.27,1.27,0,0,1-1-.1,1.42,1.42,0,0,1-.51-.6,6.9,6.9,0,0,0-.45-.85,2.17,2.17,0,0,0-3.65.21l-.06.09s0,0,0-.06a2.3,2.3,0,0,1,.58-.77Z"/><path class="cls-5" d="M11.63,14.12a3.87,3.87,0,0,1,0-.42s-.07.4-.07.42,0,.21-.05.35a2.3,2.3,0,0,1-.13.5c0-.17,0-.27,0-.5s0-.41.05-.89c0,.16-.09.6-.11.79s0,.29-.07.44a.55.55,0,0,1,0,.17c0-.14,0-.12,0-.34s0-.56,0-.66a2.53,2.53,0,0,0-.07.41,3,3,0,0,1-.13.59,7.1,7.1,0,0,1,0-1.3,6,6,0,0,1-.24,1.3v-.46c0-.25.07-1,.09-1.08s-.12.81-.14.93a2,2,0,0,1-.12.6,12.23,12.23,0,0,1,.36-2.89h0v.35a7.41,7.41,0,0,0-.1.83c0-.16.07-.47.13-.66a3.18,3.18,0,0,1,.14-.53v.43a5.54,5.54,0,0,1-.07.67,4.24,4.24,0,0,0,.1-.56l.13-.54h0v.31c0,.3,0,.36,0,.62,0-.23.15-.78.19-.94h0l0,.48a1.08,1.08,0,0,1,0,.16,1.69,1.69,0,0,0,0,.3c0-.06,0-.11,0-.16a1.21,1.21,0,0,0,0-.14l.14-.65s.05,0,.07,0,0,.24,0,.36a.36.36,0,0,1,0,.1c0,.1,0,.22-.05.3a.94.94,0,0,0,0-.2,2.23,2.23,0,0,0,.05-.36.8.8,0,0,1,.05-.21c.11,0,.15,0,.14.1a1.79,1.79,0,0,1,0,.24c0-.11,0-.26.1-.35s.1,0,.1.11a1.09,1.09,0,0,1,0,.18.71.71,0,0,0,0,.2,1.52,1.52,0,0,0,0,.21v0a1.13,1.13,0,0,1,0-.18c0-.12.05-.24.05-.37a.11.11,0,0,1,.08-.11c.08,0,.1,0,.09.11a2.06,2.06,0,0,0,0,.21s0,0,0,0h0c0-.09,0-.17,0-.25s0-.11.12-.09a.2.2,0,0,1,.05.21.41.41,0,0,0,0,.16s0,0,0,0,0,.22-.07.33a.24.24,0,0,0,0,.22,4.71,4.71,0,0,1-.05.54c0,.07,0,.15-.06.21A9.61,9.61,0,0,1,12.12,15a1.23,1.23,0,0,1,0-.33c0-.21,0-.85.05-1s-.05.46-.08.66L12,15h0c0-.15,0-.19,0-.44A3.45,3.45,0,0,0,12,14a3.42,3.42,0,0,0-.08.46c0,.18-.06.37-.11.58,0-.09,0-.17,0-.24v-.28c0-.18,0-.55,0-.66,0,.17,0,.35-.08.63s0,.3-.08.44,0,.07,0,.1c0-.18,0-.36,0-.53Z"/><path class="cls-6" d="M19,11H18.7c-.07,0-.1,0-.09-.11.09-.4.17-.8.26-1.2a.29.29,0,0,1,.35-.24l1.13.14a.19.19,0,0,1,.19.17c.1.35.19.71.29,1.07,0,.08,0,.11-.08.11L19,11Z"/><path class="cls-7" d="M12.58,13.36a7.73,7.73,0,0,1-.13.84s0,.07,0,.08c0-.19,0-.39,0-.58a6.51,6.51,0,0,0,.07-.76c0-.12.06-.24.05-.36s0-.23.07-.34a.19.19,0,0,0,0-.13.09.09,0,0,0-.11,0s-.09,0-.14,0-.16-.05-.24,0-.15,0-.21-.07.08,0,.12,0h.71a.29.29,0,0,0,.13,0l.77-.08a2.1,2.1,0,0,1,.66-.09l.48,0c.09,0,.19,0,.28,0a2.42,2.42,0,0,0,.6,0L18,11.53c1-.07,2-.13,3-.18h.43c-.05,0-.1,0-.15,0l-2.91.28-2,.16L14.24,12c-.35,0-.7,0-1.06.06-.11,0-.14,0-.13.14s0,.28,0,.4A.94.94,0,0,1,13,13a1.64,1.64,0,0,1-.09.44c-.06,0,0-.07-.05-.1s0-.25,0-.36,0,0,0,0c0,.18-.05.42-.11.6a.17.17,0,0,1-.06.12.72.72,0,0,1,0-.25,1.48,1.48,0,0,1,0-.47,1.8,1.8,0,0,0,0-.22c0-.06,0-.12,0-.17s0-.23,0-.33a1,1,0,0,1,0,.16,3.11,3.11,0,0,0,0,.32A3.3,3.3,0,0,1,12.58,13.36Z"/><path class="cls-8" d="M13.11,12.49c.11-.28.37-.32.6-.4a1.59,1.59,0,0,1,1.09.11s0,0-.06,0a1.71,1.71,0,0,0-.81-.06l-.16,0s-.07,0,0,.07a.76.76,0,0,1,.07,1,2.05,2.05,0,0,0,.43,0,.71.71,0,0,1-.27.09,1.75,1.75,0,0,1-.32,0,.49.49,0,0,1-.6-.49A.67.67,0,0,1,13.11,12.49Z"/><path class="cls-9" d="M17.91,16a1.46,1.46,0,0,0,.21-.58l0-.19A2.33,2.33,0,0,0,18,14.13a1.13,1.13,0,0,0-.34-.52.33.33,0,0,0-.26-.08.54.54,0,0,1,.23.2.08.08,0,0,0,0,.08,2.45,2.45,0,0,1,.17.45,2.82,2.82,0,0,1,.06,1.12c0,.08,0,.16,0,.26a1.06,1.06,0,0,1-.13.39h.13Z"/><path class="cls-9" d="M17.41,16.37a.21.21,0,0,0,.18,0A.8.8,0,0,0,17.9,16h-.13A.8.8,0,0,1,17.41,16.37Z"/><path d="M20.4,12.32c-.66,0-1.31.06-2,.11l-.39,0s-.1,0-.1,0,0,0,.08,0c.87-.07,1.74-.15,2.6-.24l.65-.05h.16v0c-.32,0-.1,0-.42.06.6,0,0,0,0,0l-.25,0a.32.32,0,0,1,.19,0s.18,0,.17,0a3.54,3.54,0,0,0-.47,0Z"/><path class="cls-3" d="M17.81,15.67a.64.64,0,0,1-.16.26.22.22,0,0,1-.18.1,1,1,0,0,0,.25-.68,3.51,3.51,0,0,0,0-1,.88.88,0,0,0-.21-.49c.1,0,.12,0,.24.19.08,0,.09.07.11.13a2.36,2.36,0,0,1,0,1.29A1.36,1.36,0,0,1,17.81,15.67Z"/><path class="cls-3" d="M17,14.17a3.33,3.33,0,0,0,0,1.57A1.29,1.29,0,0,1,17,14.17Z"/><path d="M17.8,15.69a2.82,2.82,0,0,0,.12-.87,1.88,1.88,0,0,0-.19-.74.7.7,0,0,0-.09-.29s-.05-.06,0-.06A2.22,2.22,0,0,1,18,15.22a2.74,2.74,0,0,1-.08.5s0-.05,0,0S17.81,15.72,17.8,15.69Z"/><path class="cls-3" d="M22.39,13.31a.77.77,0,0,1,.07-.29.91.91,0,0,1,.07-.14,3.7,3.7,0,0,0-.05.62,2.77,2.77,0,0,0,.06.62.84.84,0,0,1-.15-.38A3.08,3.08,0,0,1,22.39,13.31Z"/><path d="M19.64,12.83l-1.18.08s-.09,0-.09-.05.05,0,.08,0l.91-.08h0C19.46,12.82,19.56,12.78,19.64,12.83Z"/><path d="M14.76,11.78l-1.17.1h-.1s.07,0,.09,0c-.29,0-.58,0-.89,0a.13.13,0,0,1,.13-.06h.09c.4,0,.81,0,1.21,0,.06,0,.09,0,.19,0l.28,0C14.64,11.78,14.71,11.73,14.76,11.78Z"/><path d="M11.87,12l.21,0s.05,0,0,.06c0,.18-.13.75-.17.93,0,0,0-.39,0-.39a1.93,1.93,0,0,0,0-.23c0-.15,0-.18,0-.28s0-.05-.05-.06h-.17V12A.08.08,0,0,1,11.87,12Z"/><path class="cls-3" d="M14.31,11.77H14.1l-.69,0h-.3s-.63,0-.87,0,.62,0,.82-.05l.79,0A2.31,2.31,0,0,0,14.31,11.77Z"/><path class="cls-3" d="M11.87,12h-.1c-.12,0-.13,0-.21-.06.44,0,.85,0,1.26,0-.06,0-.14,0-.21,0C12.37,12,12.11,12,11.87,12Z"/><path d="M12.58,13.36a4.66,4.66,0,0,1,.08-.64h0l0,.72S12.62,13.38,12.58,13.36Z"/><path class="cls-3" d="M14.48,13.22l0,.06c0,.13-.15.4-.2.53a1.49,1.49,0,0,1,0-.17A1.62,1.62,0,0,1,14.48,13.22Z"/><path d="M12.4,13.68a4,4,0,0,0,0,.6c-.06-.09,0-.18,0-.28a.82.82,0,0,0,0-.22.6.6,0,0,1,0-.2C12.43,13.6,12.4,13.64,12.4,13.68Z"/><path class="cls-3" d="M14.74,12.23l.06,0a1.09,1.09,0,0,1,.35.15"/><path d="M14.76,11.78a.47.47,0,0,1-.17,0l.47-.05.13.05Z"/><path d="M19.58,12.72l.37,0h.11A.79.79,0,0,1,19.58,12.72Z"/><path d="M12.82,13a.72.72,0,0,1,0-.21v.52C12.83,13.23,12.86,13.12,12.82,13Z"/><path d="M13.11,12.49a1.52,1.52,0,0,0-.06.42L13,13a2.3,2.3,0,0,1,.05-.45S13.09,12.5,13.11,12.49Z"/><path class="cls-10" d="M17.76,9.48h-.52A1.14,1.14,0,0,1,17.76,9.48Z"/><path d="M19.63,14.42l.75-.09v0A1.51,1.51,0,0,1,19.63,14.42Z"/><path d="M12.32,12.07h.16c-.05.19-.15.7-.2,1l0-.44c0-.19,0-.36,0-.55v0Z"/><path d="M13,12.05a.09.09,0,0,1-.06,0c-.17,0-.6,0-.59,0s-.08.18-.1.32l-.13.7c0-.35.06-.67.07-.77a1.18,1.18,0,0,1,0-.19s0-.08-.05-.05l0-.06C12.16,12.06,12.53,12,13,12.05Z"/><path d="M12.63,12.06l-.1.51c-.08,0,0-.08,0-.16v-.09c0-.09,0-.12,0-.17S12.55,12,12.63,12.06Z"/><path d="M11.89,12.27c0,.13-.11.77-.14.9,0-.29,0-.58,0-.61l0-.49h0c.06,0,.06,0,0,.07S11.85,12.24,11.89,12.27Z"/><path d="M12.4,13.68l0-.1a3.77,3.77,0,0,0,.05-.57s0-.21.06-.52c0,0,0,.44,0,.44Z"/><path d="M12.45,12.93l0-.47h0s0,.08,0,.11l-.06.36Z"/><path d="M11.89,12.27c-.11,0,0-.14-.07-.2s.07,0,.11,0Z"/><path d="M12.63,12.06c-.07,0-.1,0-.1.1l0,.14c0-.07,0-.14,0-.21v0A.18.18,0,0,1,12.63,12.06Z"/><path d="M12.68,12.38c0-.08,0-.16,0-.24s0-.07.09-.08.05,0,.05,0,0,.08,0,.1-.05.27-.09.4C12.64,12.51,12.68,12.44,12.68,12.38Z"/><path d="M12.92,12.36c0,.1,0,.32,0,.41s0-.09,0-.13a3.09,3.09,0,0,0,0-.43.66.66,0,0,1,0-.15h.05A1.56,1.56,0,0,0,12.92,12.36Z"/><path d="M12.92,12.36a.35.35,0,0,1,0-.3H13a.15.15,0,0,1,0,.09A1.6,1.6,0,0,1,12.92,12.36Z"/><path d="M12.68,12.35c0,.06,0,.16,0,.21l0,.16h0A2.49,2.49,0,0,1,12.68,12.35Z"/><path class="cls-3" d="M22.85,13.7a1.54,1.54,0,0,1-.07.29l-.07.13a5,5,0,0,0,.05-.61,3.74,3.74,0,0,0-.06-.63,1,1,0,0,1,.15.39A3.09,3.09,0,0,1,22.85,13.7Z"/><path class="cls-3" d="M6.81,15.92a9.17,9.17,0,1,1,18.33,0h0a.11.11,0,0,0,.11.11h0a.11.11,0,0,0,.11-.11h0a9.39,9.39,0,1,0-18.77,0h0A.11.11,0,0,0,6.7,16h0a.11.11,0,0,0,.11-.11Z"/><path class="cls-3" d="M16,25.08a9.15,9.15,0,0,1-7.32-3.66.14.14,0,0,0-.09-.05h0a.12.12,0,0,0-.09.18,9,9,0,0,0,.87,1,9.38,9.38,0,0,0,10.29,2,9.39,9.39,0,0,0,3-2,11.75,11.75,0,0,0,.87-1,.12.12,0,0,0-.09-.18h0a.12.12,0,0,0-.09.05A9.15,9.15,0,0,1,16,25.08Z"/><path class="cls-3" d="M6.22,15.93a9.76,9.76,0,0,1,19.51,0h0a.1.1,0,0,0,.09.1h.1a.11.11,0,0,0,.1-.1h0a10,10,0,0,0-6.14-9.25,10.07,10.07,0,0,0-7.82,0A10,10,0,0,0,8.87,8.83a10,10,0,0,0-2.94,7.1h0A.09.09,0,0,0,6,16h.1a.1.1,0,0,0,.09-.1Z"/><path class="cls-3" d="M16,25.68a9.75,9.75,0,0,1-8-4.24.15.15,0,0,0-.12-.07h0a.15.15,0,0,0-.13.23A10.15,10.15,0,0,0,8.87,23,10,10,0,0,0,24.26,21.6a.15.15,0,0,0-.12-.23h0a.15.15,0,0,0-.12.07A9.75,9.75,0,0,1,16,25.68Z"/><path class="cls-3" d="M16,3.84A12.08,12.08,0,0,1,28,14.6h.79a12.77,12.77,0,0,0-3.69-7.77A12.9,12.9,0,0,0,21,4.06,12.86,12.86,0,0,0,3.17,14.83H4A12.09,12.09,0,0,1,16,3.84Z"/><path class="cls-3" d="M16,28A12.09,12.09,0,0,1,5.23,21.38H4.35A12.84,12.84,0,0,0,25.06,25a13,13,0,0,0,2.54-3.6h-.88A12.09,12.09,0,0,1,16,28Z"/><g class="cls-11"><path d="M6.77,18.21c0-.68-.29-1-.82-1a1,1,0,0,0-.74.39,2.31,2.31,0,0,0-.38,1.33c0,.57.31.9.79.9a1.1,1.1,0,0,0,.92-.65l.27.08a1.34,1.34,0,0,1-1.24.85,1.21,1.21,0,0,1-1.28-1.3,2.1,2.1,0,0,1,.48-1.31,1.49,1.49,0,0,1,1.15-.58,1.39,1.39,0,0,1,.54.12c.15.05.25.14.31.14s.14-.08.17-.25h.27L7,18.24H6.77Z"/><path d="M9,17.62a.3.3,0,0,1,.31.34.27.27,0,0,1-.28.29c-.14,0-.23-.07-.23-.18v0s0,0,0,0c-.2,0-.59.66-.88,2H7.46l.31-1A4.27,4.27,0,0,0,8,18.14c0-.08,0-.14-.09-.14s-.27.14-.44.4H7.22c.25-.49.56-.73.8-.73s.32.13.32.37c0,.05,0,.11,0,.2C8.54,17.83,8.74,17.62,9,17.62Z"/><path d="M10.29,20.06a.84.84,0,0,1-.86-.92A1.56,1.56,0,0,1,10,18a1.22,1.22,0,0,1,.82-.34c.38,0,.62.2.62.51s-.51.77-1.49.84a1.19,1.19,0,0,0-.05.28.49.49,0,0,0,.49.55,1,1,0,0,0,.78-.54h.24A1.25,1.25,0,0,1,10.29,20.06Zm.68-1.9a.28.28,0,0,0-.29-.31c-.29,0-.57.31-.74.91C10.61,18.72,11,18.48,11,18.16Z"/><path d="M12.48,20.07c-.38,0-.66-.33-.66-.87a1.78,1.78,0,0,1,.38-1.09,1.1,1.1,0,0,1,.85-.48.63.63,0,0,1,.61.47l.19-.65a.82.82,0,0,0,0-.18c0-.1-.11-.15-.31-.15h-.15l.06-.23q.48,0,.93-.06l-.74,2.57a.68.68,0,0,0,0,.19c0,.09,0,.15.12.15s.26-.14.41-.42h.23c-.22.49-.49.74-.78.74s-.34-.12-.39-.39A1,1,0,0,1,12.48,20.07Zm0-1.76a1.83,1.83,0,0,0-.29,1c0,.32.15.5.4.5a.67.67,0,0,0,.53-.33,1.93,1.93,0,0,0,.35-1c0-.32-.16-.51-.4-.51A.75.75,0,0,0,12.53,18.31Z"/><path d="M15.25,20.06a.35.35,0,0,1-.36-.39,2.26,2.26,0,0,1,.16-.67,4.74,4.74,0,0,0,.29-.86c0-.09,0-.13-.1-.13s-.26.13-.42.39h-.23c.25-.49.55-.73.8-.73s.34.14.34.39a3.36,3.36,0,0,1-.24.88,3,3,0,0,0-.2.65.12.12,0,0,0,.13.14c.11,0,.24-.14.39-.41H16C15.82,19.81,15.55,20.06,15.25,20.06Zm.36-3.25a.28.28,0,0,1,.28.28.29.29,0,0,1-.28.28.27.27,0,0,1-.27-.28A.28.28,0,0,1,15.61,16.81Z"/><path d="M19.44,19.72l-.07.27H18.08l.07-.27c.29,0,.41-.07.41-.25s0-.13,0-.22l0-.31H17.35l-.23.44a.48.48,0,0,0-.05.19c0,.11.12.14.39.15l-.07.27H16.27l.08-.27a.62.62,0,0,0,.42-.37L18.15,17h.47L19,19.31C19,19.6,19.1,19.7,19.44,19.72Zm-1-1-.2-1.31-.74,1.31Z"/><path d="M20.39,17.66a.35.35,0,0,1,.36.39,2.64,2.64,0,0,1-.19.76,3.35,3.35,0,0,0-.25.78c0,.13.08.2.22.2.4,0,.82-.7,1.13-2.1h.42l-.33,1.08a4.24,4.24,0,0,0-.21.81c0,.09,0,.14.1.14s.31-.15.44-.46h.24c-.22.52-.57.8-.82.8s-.32-.14-.32-.39a1.49,1.49,0,0,1,0-.21c-.27.4-.52.6-.82.6a.43.43,0,0,1-.45-.45,2.8,2.8,0,0,1,.22-.82,2.63,2.63,0,0,0,.2-.65.12.12,0,0,0-.13-.14c-.11,0-.24.13-.39.4h-.24C19.83,17.91,20.09,17.66,20.39,17.66Z"/><path d="M22.66,17.92l.06-.23h.44l.22-.82h.41l-.23.82H24l-.06.23H23.5l-.41,1.48a.61.61,0,0,0,0,.22c0,.09,0,.13.13.13s.32-.16.5-.49h.25c-.25.53-.56.8-.9.8a.37.37,0,0,1-.39-.41,1.65,1.65,0,0,1,.1-.47l.34-1.26Z"/><path d="M26.15,19.6a1.21,1.21,0,0,1-.94.46.89.89,0,0,1-.89-1A1.54,1.54,0,0,1,24.77,18a1.15,1.15,0,0,1,.84-.34.88.88,0,0,1,.88,1A1.64,1.64,0,0,1,26.15,19.6Zm-.34-.17a2,2,0,0,0,.23-.95c0-.42-.16-.63-.46-.63s-.8.52-.8,1.3c0,.44.18.68.48.68A.65.65,0,0,0,25.81,19.43Z"/><path d="M26.82,19.46c0-.2.11-.32.27-.32a.21.21,0,0,1,.23.21c0,.16-.15.21-.15.27s.17.2.41.2.48-.15.48-.37-.18-.32-.42-.5-.49-.42-.49-.69a.67.67,0,0,1,.74-.63c.42,0,.72.24.72.53a.29.29,0,0,1-.29.31.2.2,0,0,1-.22-.2c0-.17.17-.2.17-.29s-.15-.15-.35-.15-.4.14-.4.32.1.25.29.39c.37.28.63.46.63.81a.78.78,0,0,1-.86.71C27.12,20.06,26.82,19.79,26.82,19.46Z"/></g><path class="cls-3" d="M6.83,18.1c0-.68-.3-1-.83-1a.91.91,0,0,0-.73.4,2.25,2.25,0,0,0-.39,1.32c0,.58.31.91.79.91A1.09,1.09,0,0,0,6.59,19l.27.08A1.32,1.32,0,0,1,5.63,20a1.22,1.22,0,0,1-1.29-1.3,2.12,2.12,0,0,1,.48-1.31A1.51,1.51,0,0,1,6,16.78a1.45,1.45,0,0,1,.55.11,1.44,1.44,0,0,0,.31.14C6.91,17,7,17,7,16.79h.26l-.17,1.34H6.83Z"/><path class="cls-3" d="M9,17.52a.29.29,0,0,1,.31.33.28.28,0,0,1-.27.3c-.15,0-.24-.08-.24-.19a0,0,0,0,0,0,0s0,0,0,0c-.2,0-.59.66-.88,2H7.51l.31-1A4.24,4.24,0,0,0,8,18c0-.09,0-.14-.09-.14s-.27.13-.44.4H7.27c.26-.49.56-.74.8-.74s.32.13.32.38c0,0,0,.11,0,.19C8.59,17.72,8.79,17.52,9,17.52Z"/><path class="cls-3" d="M10.34,20A.84.84,0,0,1,9.48,19,1.56,1.56,0,0,1,10,17.86a1.21,1.21,0,0,1,.82-.35c.38,0,.62.2.62.51s-.51.77-1.49.84a1.17,1.17,0,0,0,0,.29.48.48,0,0,0,.48.54,1,1,0,0,0,.78-.53h.24A1.21,1.21,0,0,1,10.34,20Zm.68-1.9a.27.27,0,0,0-.28-.3c-.29,0-.57.3-.75.91C10.66,18.61,11,18.37,11,18.05Z"/><path class="cls-3" d="M12.54,20c-.38,0-.66-.34-.66-.88A1.79,1.79,0,0,1,12.25,18a1.11,1.11,0,0,1,.85-.48.63.63,0,0,1,.61.48l.19-.66a.75.75,0,0,0,0-.17c0-.11-.1-.16-.3-.16h-.16l.06-.23c.33,0,.63,0,.93-.06l-.73,2.57a.93.93,0,0,0,0,.19c0,.1.05.15.13.15s.25-.14.4-.41h.23c-.22.49-.48.74-.78.74s-.34-.13-.38-.39A1,1,0,0,1,12.54,20Zm0-1.76a1.89,1.89,0,0,0-.29,1c0,.32.16.51.4.51a.7.7,0,0,0,.54-.33,1.94,1.94,0,0,0,.35-1.05c0-.31-.17-.5-.41-.5A.73.73,0,0,0,12.58,18.21Z"/><path class="cls-3" d="M15.3,20a.34.34,0,0,1-.35-.39,2,2,0,0,1,.16-.68,4.17,4.17,0,0,0,.28-.86c0-.09,0-.13-.09-.13s-.26.14-.42.4h-.24c.25-.49.55-.74.8-.74s.34.14.34.4a3.31,3.31,0,0,1-.24.87,2.93,2.93,0,0,0-.19.65c0,.09,0,.14.12.14s.24-.13.39-.4h.23C15.87,19.71,15.61,20,15.3,20Zm.37-3.25a.28.28,0,1,1-.28.28A.27.27,0,0,1,15.67,16.71Z"/><path class="cls-3" d="M19.5,19.61l-.08.27H18.14l.06-.27c.29,0,.42-.06.42-.25a1,1,0,0,0,0-.21l0-.31H17.4l-.22.43a.42.42,0,0,0-.06.19c0,.12.12.15.39.15l-.07.27H16.33l.07-.27a.64.64,0,0,0,.43-.36l1.37-2.4h.47L19,19.2C19.09,19.5,19.15,19.59,19.5,19.61Zm-1-1.05-.21-1.3-.74,1.3Z"/><path class="cls-3" d="M20.44,17.56a.34.34,0,0,1,.36.38,2.29,2.29,0,0,1-.19.76,3.09,3.09,0,0,0-.24.79.19.19,0,0,0,.21.2c.4,0,.83-.7,1.13-2.1h.42l-.33,1.07a4.09,4.09,0,0,0-.21.82c0,.08,0,.13.11.13s.3-.15.43-.46h.24c-.22.53-.56.8-.82.8s-.32-.13-.32-.39a1.83,1.83,0,0,1,0-.21c-.27.4-.52.61-.81.61A.43.43,0,0,1,20,19.5a2.58,2.58,0,0,1,.22-.82A2.93,2.93,0,0,0,20.4,18a.12.12,0,0,0-.13-.14c-.11,0-.24.13-.39.41h-.23C19.89,17.8,20.14,17.56,20.44,17.56Z"/><path class="cls-3" d="M22.71,17.81l.06-.22h.44l.23-.82h.4l-.23.82H24l-.05.22h-.41l-.42,1.48a1.12,1.12,0,0,0,0,.22c0,.1,0,.14.13.14s.32-.17.5-.49H24c-.26.53-.56.8-.91.8a.37.37,0,0,1-.38-.42,2,2,0,0,1,.09-.47l.35-1.26Z"/><path class="cls-3" d="M26.2,19.5a1.19,1.19,0,0,1-.93.46.89.89,0,0,1-.9-1,1.51,1.51,0,0,1,.46-1.13,1.16,1.16,0,0,1,.83-.33.87.87,0,0,1,.88,1A1.64,1.64,0,0,1,26.2,19.5Zm-.34-.18a2,2,0,0,0,.23-.95c0-.42-.15-.63-.46-.63s-.8.52-.8,1.3c0,.45.18.69.48.69A.66.66,0,0,0,25.86,19.32Z"/><path class="cls-3" d="M26.87,19.36c0-.2.11-.33.27-.33a.22.22,0,0,1,.24.21c0,.17-.16.22-.16.28s.17.2.42.2.47-.16.47-.37-.18-.32-.41-.5-.5-.43-.5-.69a.68.68,0,0,1,.75-.64c.41,0,.71.25.71.53a.29.29,0,0,1-.28.31.2.2,0,0,1-.23-.2c0-.17.17-.19.17-.28s-.15-.16-.35-.16a.37.37,0,0,0-.4.32c0,.14.1.25.29.39.37.28.63.47.63.81a.78.78,0,0,1-.85.72C27.18,20,26.87,19.68,26.87,19.36Z"/><path class="cls-3" d="M12.81,22.74c0-.26-.11-.39-.31-.39a.38.38,0,0,0-.28.14.9.9,0,0,0-.14.5c0,.22.12.34.3.34a.41.41,0,0,0,.34-.24l.1,0a.5.5,0,0,1-.46.32.46.46,0,0,1-.48-.49.74.74,0,0,1,.18-.49.55.55,0,0,1,.43-.22.54.54,0,0,1,.2,0l.12,0s0,0,.06-.09H13l-.06.51h-.1Z"/><path class="cls-3" d="M13.73,23.26a.44.44,0,0,1-.35.17.33.33,0,0,1-.33-.36.6.6,0,0,1,.17-.43.43.43,0,0,1,.31-.12.32.32,0,0,1,.33.36A.62.62,0,0,1,13.73,23.26Zm-.12-.06a.83.83,0,0,0,.08-.36c0-.16,0-.24-.17-.24s-.3.2-.3.49.07.26.18.26A.25.25,0,0,0,13.61,23.2Z"/><path class="cls-3" d="M14.18,23.43a.13.13,0,0,1-.14-.14,1.45,1.45,0,0,1,.08-.33l.13-.46,0-.11s0-.06-.11-.06H14.1l0-.09.36,0-.23.81a1.24,1.24,0,0,0-.06.23,0,0,0,0,0,.05,0s.09,0,.15-.16h.1C14.39,23.34,14.29,23.43,14.18,23.43Z"/><path class="cls-3" d="M15.29,23.26a.46.46,0,0,1-.35.17.33.33,0,0,1-.34-.36.6.6,0,0,1,.17-.43.47.47,0,0,1,.32-.12.32.32,0,0,1,.33.36A.62.62,0,0,1,15.29,23.26Zm-.13-.06a.83.83,0,0,0,.09-.36q0-.24-.18-.24c-.15,0-.29.2-.29.49s.06.26.17.26A.25.25,0,0,0,15.16,23.2Z"/><path class="cls-3" d="M15.73,23a2.11,2.11,0,0,0,.07-.31s0-.05,0-.05-.1.05-.16.15h-.09c.1-.18.21-.28.3-.28s.12,0,.12.15a.25.25,0,0,1,0,.08c.1-.15.19-.23.29-.23a.15.15,0,0,1,.16.17.13.13,0,0,1,0,.06c.11-.15.19-.23.3-.23a.16.16,0,0,1,.17.17.94.94,0,0,1-.07.28,1.35,1.35,0,0,0-.09.28,0,0,0,0,0,.05,0c.05,0,.1-.06.16-.18H17c-.1.2-.19.3-.31.3a.13.13,0,0,1-.14-.14,1.05,1.05,0,0,1,.09-.32.9.9,0,0,0,.07-.26c0-.05,0-.08-.07-.08s-.31.26-.42.78H16l.12-.39a2.48,2.48,0,0,0,.09-.31.07.07,0,0,0-.08-.08c-.14,0-.29.26-.4.78h-.16Z"/><path class="cls-3" d="M17.6,22.53c.16,0,.27.12.27.32a.64.64,0,0,1-.12.38.46.46,0,0,1-.38.2c-.18,0-.29-.09-.29-.26a.78.78,0,0,1,0-.21l.14-.51,0-.06s0-.06-.12-.06H17.1l0-.09.35,0-.14.46A.33.33,0,0,1,17.6,22.53Zm0,.68a.69.69,0,0,0,.1-.36q0-.21-.15-.21a.26.26,0,0,0-.19.11.67.67,0,0,0-.14.4c0,.12.06.19.16.19A.25.25,0,0,0,17.61,23.21Z"/><path class="cls-3" d="M18.28,23.43a.13.13,0,0,1-.14-.14A1,1,0,0,1,18.2,23a2,2,0,0,0,.11-.32s0-.05,0-.05-.1.05-.16.15H18c.09-.18.2-.28.3-.28a.13.13,0,0,1,.13.15,1.12,1.12,0,0,1-.1.33,1.45,1.45,0,0,0-.07.25,0,0,0,0,0,.05,0s.09,0,.14-.15h.09C18.49,23.34,18.39,23.43,18.28,23.43Zm.13-1.22a.11.11,0,0,1,.11.11.11.11,0,0,1-.11.1.09.09,0,0,1-.1-.1A.1.1,0,0,1,18.41,22.21Z"/><path class="cls-3" d="M19,23.44c-.15,0-.25-.13-.25-.33a.66.66,0,0,1,.14-.41.41.41,0,0,1,.32-.18.24.24,0,0,1,.23.18l0-.17h.15l-.18.65a.22.22,0,0,0,0,.08s0,0,0,0,.09,0,.15-.15h.09q-.14.27-.3.27c-.08,0-.12,0-.14-.14A.39.39,0,0,1,19,23.44Zm0-.66a.66.66,0,0,0-.11.36c0,.12.05.19.15.19a.26.26,0,0,0,.2-.12.73.73,0,0,0,.13-.39c0-.12-.06-.19-.15-.19A.27.27,0,0,0,19,22.78Z"/><circle class="cls-3" cx="20.01" cy="22.98" r="0.22"/><circle class="cls-3" cx="11.32" cy="22.98" r="0.22"/><path class="cls-3" d="M27.89,14.07c0,.17,0,.45,0,.62a.44.44,0,0,0,.3.4,3,3,0,0,1,1.86,2.82,2.87,2.87,0,0,1-2.76,3h-.21a.29.29,0,0,0-.29.18,6.17,6.17,0,0,1-.25.59,3.15,3.15,0,0,0,.75,0,3.67,3.67,0,0,0,3.55-3.77A3.83,3.83,0,0,0,27.89,14.07Z"/><path class="cls-3" d="M4,14.41c0,.16,0,.31,0,.47a.2.2,0,0,1-.13.16,3,3,0,0,0-2,2.87,2.87,2.87,0,0,0,2.75,3l.29,0a.17.17,0,0,1,.18.11l.18.42a.18.18,0,0,1-.13.25,4.38,4.38,0,0,1-.52,0,3.67,3.67,0,0,1-3.55-3.77,3.74,3.74,0,0,1,2.76-3.68A.17.17,0,0,1,4,14.41Z"/></g></g></g></svg>