<svg xmlns="http://www.w3.org/2000/svg" xmlns:xlink="http://www.w3.org/1999/xlink" viewBox="0 0 979.71 979.71"><defs><style>.cls-1{isolation:isolate;}.cls-2{fill:url(#Degradado_sin_nombre_16);}.cls-3{fill:#fff;}.cls-4{fill:#fafafa;}.cls-5{fill:#fcfcfc;}.cls-6{fill:#fefefe;}.cls-7{fill:#fbfbfb;}.cls-8{fill:#fdfdfd;}.cls-9{fill:#f9f9f9;}.cls-10{fill:#141414;}.cls-11{mix-blend-mode:multiply;}</style><radialGradient id="Degradado_sin_nombre_16" cx="489.86" cy="489.86" r="489.86" gradientUnits="userSpaceOnUse"><stop offset="0" stop-color="red"/><stop offset="0.43" stop-color="#fd0000"/><stop offset="0.58" stop-color="#f60000"/><stop offset="0.69" stop-color="#eb0000"/><stop offset="0.78" stop-color="#da0000"/><stop offset="0.86" stop-color="#c40000"/><stop offset="0.92" stop-color="#a80000"/><stop offset="0.98" stop-color="#890000"/><stop offset="1" stop-color="#7f0000"/></radialGradient></defs><title>Recurso 4</title><g class="cls-1"><g id="Capa_2" data-name="Capa 2"><g id="Capa_1-2" data-name="Capa 1"><circle class="cls-2" cx="489.86" cy="489.86" r="489.86"/><path class="cls-3" d="M687,382.29a28.69,28.69,0,0,1,5.84-12.82c4.27-5.1,8.49-2.48,10.27-2.45,3.26,1.79,5.24,2.47,6.28,10.51,1.11,8.54.62,29.7.44,32.57-.08,1.28-1.07-1.74-1.09-2.51-.34-10.12-3.38-31.09-3.47-31.53-.9-2.67-8.26-5-11,1.4-1.72,4-5.18,41.83-7.48,48.92-3.75,11.56-4.29-1.54-4,1.7-2.93-3.45.28-22.87-.52-25.85C682.06,396.8,686.74,387.77,687,382.29Z"/><path class="cls-4" d="M565.69,469.07c1.29.08-.92-2.15-.92-3.27,0-17.85-.57-32.87-6.51-49.71a33.65,33.65,0,0,0-4.21-7.83c-3.92-5.67-8.83-6.72-14.69-3.08-6.79,4.21-11.56,10.48-16.24,16.78-.45.61-5.11,8.37-5.4,9.08-2.54,6.22-9.66,22.82-14.36,27.91-3.88,5.43-12.25,8.55-18,12.06-2.29,1.41-9.08-1-11.78-.52-.09-.48,9.92-10.61,8.36-5.61,11.87-5.72,14.32-7.94,20.42-18.88,5.26-9.44,4.15-8.17,10.51-18.88,1.17-2,6.86-13.12,8.31-14.92A60.8,60.8,0,0,1,536,398.81c7.57-4.56,16-1.76,21.32,5.24s7.48,14.87,8.92,23.2c2.14,12.28,3.71,24.62,2.26,37.07-.78,6.67,2.2,7.15,9.64,7.48-2.76,1.23-6.47,1.9-8.52,0Z"/><path class="cls-5" d="M294.53,369.43l-2,5.1c5-2.64,9.39-3.36,13,.88A15,15,0,0,1,308,391.36c-1.41,3.55-.45,4.23,2.93,4.48,4.06.3,17.36-3.61,21.41-2.81.18,1.48-10.29,3.87-11.13,4.13-7.36,2.2-14.9,2.47-22.48,1.94-5.11-.36-9-4.87-9.6-10.91a17.46,17.46,0,0,1,.51-7.63c.34-.94,1.35-2.1-.63-2.16C290.92,375.41,291.91,371.93,294.53,369.43Z"/><path d="M687.75,423.82l-1.49-2.48c.16-4.59,0-11.47,1-18.07.22.13.24,4.57.46,4.69,2.24,4.53,1.11,9.42,1.51,14.15C689.34,422.88,688.57,423.51,687.75,423.82Z"/><path d="M542.72,485c-.19.6-.35,1.2-.52,1.74C542.39,486.17,542.55,485.59,542.72,485Z"/><path d="M556.53,472.83a4.76,4.76,0,0,1-1-.93,21,21,0,0,0-1.33,2.66,47.25,47.25,0,0,0-1.82,5.38,53,53,0,0,1-5,11.94h5.86c.26-.69.53-1.4.83-2.16a51.87,51.87,0,0,0,1.75-5.41c.57-3.48,2.42-9.6,2.34-13.16C558.07,471.58,558.24,473.74,556.53,472.83Z"/><path d="M542.33,431c-.12-.38-.23-.76-.36-1.14A4.72,4.72,0,0,0,542.33,431Z"/><path d="M542.59,418.79l.38.49a3.9,3.9,0,0,0-.4-.51Z"/><path d="M709.62,409.83c0,.81,0,1.33,0,1.49s.24.22.6.1a4.32,4.32,0,0,0,.51-.3A1.88,1.88,0,0,0,711,411c0-.34-.07-.49-.09-.45a3,3,0,0,1-.49-.28A1.4,1.4,0,0,0,709.62,409.83Z"/><path d="M710.77,411.12a4.32,4.32,0,0,1-.51.3A2,2,0,0,0,710.77,411.12Z"/><path d="M550.59,484.21c.54-1.8,1.21-3.71-1-5-1.34-.35-2,1.12-3.17,1.22-1.75.19-2.38,1.6-3.05,2.9a11.44,11.44,0,0,0-.69,1.72c-.17.58-.33,1.16-.52,1.74.17-.54.33-1.14.52-1.74a88.79,88.79,0,0,0-.39-54,4.72,4.72,0,0,1-.36-1.14c.13.38.24.76.36,1.14a1.76,1.76,0,0,0,2.32.94c1.21-.84,1-1.89.73-3.15-.53-2.83-2-5.43-2-8.38a3.44,3.44,0,0,0-.45-1.17l-.38-.49,0,0a3.4,3.4,0,0,0-.88-.7,1.51,1.51,0,0,1,.88.7,3.9,3.9,0,0,1,.4.51c10.76,13.87,13.76,29.78,12.12,46.93-.19,2-.82,4,.44,5.69.78-1.21,1.74-2,2.65-.75.15-1.14,2.07-.82,4.11-.84,1.56-.06,1.56-.06,3.5,0a9.85,9.85,0,0,1,1.62.74,10.23,10.23,0,0,1,2.11,1.75h0c-.88-.85-1.31-2.22-1.27-4.35,0-.37,0-.73,0-1.1-.47.1-2.21,1.21-2.19-.3,0-1.32-.29-5.14-.35-6.43-.2-4-.1-6.42-.52-10.45-.45-4.3-.6-11.22-1.34-15.53-1.67-9.61-2.67-16.86-7.63-25.45-4.76-8.26-10.67-8.66-18.62-3.48a48,48,0,0,0-11.66,11c-9.07,11.47-15.91,27.81-23.66,40.16-5.75,9.53-18.64,12.92-26.63,12.53,9.69-3.39,13-3.58,19.23-8.31,4.53-4.87,8.11-10.82,12.62-21.41C510.79,432,515,422.46,518.15,418c4.74-6.26,6.42-8.4,14.19-15.27,8.57-7.59,19.22-6.58,25.26,3.08a86,86,0,0,1,6.29,13.4c4.69,16,4.69,31.5,4.4,48.07.05,0,.1,0,.11,0s1.48,5.54,1.14,5.44a3.5,3.5,0,0,0,1.24.78,10.13,10.13,0,0,0,3.45.8,8.12,8.12,0,0,0,2.74-.64c10-3.25,20.31-5.4,30.25-9.26,8.63-3.34,17.09-7.22,25.76-10.51,7.78-2.95,15.24-7.09,22.89-10.63,3-1.4,9.16-3.7,12.64-5.2a36,36,0,0,0,2,9.6c1.48,2,5.66,2.07,10.7,1.91,6.65-.21,11.67-.09,17-.65,3.33-.36,4.36-4.09,6.08-10,1.05-5.53,1.63-7.62,1.92-13.4.14-2.88.11-5.14.08-9.23-.11-2.26.37-2.07.44-3.08l1.65-1c.89-.39,1.5-.66,1.9-.86-.36.12-.59,0-.6-.1s0-.68,0-1.49a2.33,2.33,0,0,1-.44-1.17c-.83-10.58-1.92-19.2-3-29a15.88,15.88,0,0,0-1.57-6.24c-1.62-2.92-3.91-2.38-6.69-1.4-1.29.46-1.21.65-3.36,3.2-3.14,5.44-3.14,6-5,12.59-.59,2.41-.86,3.69-1.82,7.7-.47,3.07-.69,4.51-.85,6.33-.69,7.67-.09,1.79-.65,7.57-.06,1.11-.37,4.48-.39,5.87-.16,2.72,0,1.05-.2,5.49-.46,3.26-.41,3.92-1,7.52-.87-8.89-1.36-10.3-1-17.92.52-9.78,2.12-21,5.44-29.86,2.42-6.5,9.72-17.13,15.53-12.25,1.29,1.29,3.32,2.76,3.92,8.94.88,9.17,1,27.28,1.08,32.63.61.81,1.56.86,1.24,1.21a4.17,4.17,0,0,0,.53-.56c1-1.34.58-4,.68-4.81s.23-8.77-.05-15.31a116.51,116.51,0,0,0-1.31-13.84c-1.54-6.46-3.74-7.4-5.54-9.09-3.57-3.36-7.44-8.53-10.63-11.53-3.61-3.4-8.77-3.61-13.56-3.75-2.39-.07-3.23.42-4.76-1.29s-2.15-3.8-5.2-7a13,13,0,0,0-9.66-3.09c-4.19.59-6.75-3.09-7.06-6.14-1.14-11.26-4-22.24-5.15-33.48-.44-4.19-2.24-7.53-6.67-9.13-4.12-1.48-8-3.5-12.21-4.91a134.21,134.21,0,0,0-16.58-3.91c-7.44-1.48-14.92-.57-22.45-.22-12.08.56-24.17,1.33-36.24,1.58-22.63.48-45.27.31-67.88,1.72-11.69.73-23.44-.19-35.15.91-6.63.62-12.36,2.07-15.24,9.18-1.6,3.91-1.86,4.68-3.42,8.65-3.76,9.26-6.43,14.88-10.26,23.63-1.38,3.17-1.93,6.77-5.31,9.15-2.95,2.08-4.15,1.62-9,2.54-9.94,1.23-10.24,1.42-18,2.17-13.74,1.58-13.31,1.43-20.63,2.27-6.85,1.37-15.27.24-20.49,6.24a26.48,26.48,0,0,0-3.75,5.8c-2.17,4.58-5.23,7.13-10.69,6.72-5.24-.4-10.53-.1-15.81-.11a66.86,66.86,0,0,0-17,2.29,19.16,19.16,0,0,0-7.6,3.47c-2.22,1.61-5,6.13-5.76,8.88,2.57-.73,3.46-.84,3,1.39a1.24,1.24,0,0,0,.11-.37,4.21,4.21,0,0,1,1.62-2.47,9.09,9.09,0,0,1,4.09-1.9c3.6-.48,6.25,1.08,7.91,4.39,2,4,1.74,8,.39,12.19-1.25,3.85.71,4.11,4.7,4.49,7.27.7,15.89-1.44,19.9-2.41-5.85,3.83-17,5.83-28.82,4.65-5.15-.14-8.3-3.58-10-8.46a13.31,13.31,0,0,1-.38-8.4c.22-.68.37-1.25.47-1.71-.65,1.35-3.26-.48-3-1.39-1.73,4.9-6.58,6.95-9.92,10.3a70.62,70.62,0,0,0-8.31,9.4,35.43,35.43,0,0,0-5.48,12.47c-2.91,9.17-3.88,15.44-5.78,23.16-1.06,4.29-2.7,9.54-8.58,10.68-.88.17-1.43.83-1.83,1.87-1.62,4.2-.16,9,7.29,10.72,5.4,1.24,11,1.21,16.28,3.37,5.44,2.23,11.86,2.39,15.68,7.83,2.95,4.2,4,9.46,9.29,12.4,3.24,1.81,6,4.16,9.91,4.15,9.05,0,18.1-.12,27.16,0,5.15.09,10.05-.12,14.75-2.87,1.46-.86,2.5-2.3,4.14-2.8,7.79-2.38,15.81-.47,23.69-1.26,9.23-.08,11.83.29,21.1.71,20.89,1.65,22.31,2.22,33.83,3.42,1.89.2,3.77.49,5.65.83,9.63,1.74,19.25,2.92,29.07,1.23,3.36-.58,8-1.13,9.07,3a40.13,40.13,0,0,0,1.71,5.17h69.63A38.07,38.07,0,0,0,550.59,484.21Z"/><path d="M710.86,411l-.09.08Z"/><path d="M292,379.44c.46-2.23-.43-2.12-3-1.39C288.77,379,291.38,380.79,292,379.44Z"/><path d="M568.4,467.32s-.06,0-.11,0c0,.37,0,.73,0,1.1,0,2.13.39,3.5,1.27,4.35C569.88,472.86,568.53,467.47,568.4,467.32Z"/><path d="M555.53,471.9a4.76,4.76,0,0,0,1,.93c1.71.91,1.54-1.25,1.65-1.68C557.27,469.85,556.31,470.69,555.53,471.9Z"/><path d="M540.77,499.87a27.93,27.93,0,0,0,6.31-7.47A31.53,31.53,0,0,1,540.77,499.87Z"/><path d="M497.2,511.93c12.57.17,25.14,0,37.7,0a6.29,6.29,0,0,0,3.49-.61c4.1-2.41,6.9-6.37,9.76-9.75,2.44-2.88,3.61-5.77,5.11-9.66H547.4c-.1.18-.21.35-.32.52a27.93,27.93,0,0,1-6.31,7.47,31.53,31.53,0,0,0,6.31-7.47l.3-.52H477.75c1.16,2.91,2.56,5.67,4,8.38C484.84,506.34,489.38,511.83,497.2,511.93Z"/><path d="M688.56,395.26l.89,2.52c1.28,2.84,0,5.62-.31,8.41a1.65,1.65,0,0,1-2.11,1.33l.06.07A58.24,58.24,0,0,1,688.56,395.26Z"/><path class="cls-6" d="M545.13,290.8c4.32.46,8.63-.13,13-.22,6-.13,8.49,3.14,6.73,8.87-3.35,10.85-6.89,21.63-10.18,32.49-1.75,5.75-5.75,9.34-10.78,12a53.1,53.1,0,0,1-13.38,4.54c-22.57,5-45.3,9-68.39,10.7a7,7,0,0,0-1.84.69c-4,1.8-8.31,1.59-12.54,1.85-3,0-6,0-9.07,0-3.46,0-6.93.06-10.39-.07-1.36,0-3.12.22-3.21-2,13-1.15,26.12-1.79,39.13-3.4a530.58,530.58,0,0,0,68.36-13.14,30.36,30.36,0,0,0,12.31-6c.7-.6,1.74-1.16,1.58-2.21-.18-1.21-1.44-1-2.3-1.14-26.72-4.55-53.58-6.34-80.66-4.35a204.89,204.89,0,0,0-32.81,4.62c-2.29.54-3.51.36-2.31-2.5,4.54-10.83,9-21.71,13.46-32.57,1.46-3.53,4.21-4.92,8-5q37.07-1,74.12-2.22c5.25-.16,10.5-.59,15.74-.9A6.81,6.81,0,0,1,545.13,290.8Z"/><path class="cls-3" d="M465.81,379.39c1.42-1,1.63-1.13,2.73-1.81C490.25,363.22,513,362,536.28,373c5.48,2.59,10.61,2.41,16.05,2.09,28.18-1.64,56.36-3.39,84.54-5.06,5.12-.31,10.25-.49,15.38-.66,1.67-.06,2.63.32.55,1.63C647,373,640.94,372.7,635,373.46c-3.84.49-7.65.79-11.42,2-4.88,1.63-10.16,1.16-15.23,1.44-12.6.71-25.16,2-37.76,2.75-4.15.23-8.3.67-12.47.79,12.29-.68,24.54-2.08,36.81-2.64,10.73-.5,21.5-3,32.31-.75,2.38.06,4.76-.07,7.13.07,1.35.09,9.69-.36,15,.93-12.94,2-37.84,3.92-50.86,5.21-12.48,1.24-25,2.21-37.49,3.33-1.12.1-3.06-.35-3,1.12,0,1.66,2,1.48,3.28,1.4,14.14-.87,28.28-1.82,42.43-2.63,12.26-.7,24.53-1.26,36.79-1.83,1.82-.08,3.7-.48,6.48.85l-34.87,4a21.53,21.53,0,0,1-11.08.93l-6.79.68c-2.64,1.92-5.74,2.23-8.83,2.36-5,.22-10,.58-15.49,1.29a147.46,147.46,0,0,1,20.47-1.52c4-.05,8.21.21,12.31.57a144.63,144.63,0,0,0,14.82-.8l15.94-.84h9.28c-3.18,2.41-6.19,1.81-8.8,2.08-20.82,2.21-41.67,4.12-62.5,6.19-1.22.12-3.48-.89-3.38,1.37.08,1.9,2.16,1.61,3.63,1.53,16.86-.94,33.71-2,50.58-2.81a100.09,100.09,0,0,1,15.35.5c-7,.78-14.08,1.64-21.13,2.33-13.84,1.37-27.7,2.6-41.53,4-1.17.11-3.53-.7-3.29,1.72.2,2.05,2.2,1.56,3.62,1.49q28.14-1.47,56.26-3a24.67,24.67,0,0,1,5.27.28c-3.2,1.75-6.83,1.49-10.25,1.86-16.1,1.76-32.24,3.23-48.36,4.86-1.19.12-3.2-.51-3.22,1.45,0,2.45,2.17,2,3.68,1.9,16.19-.86,32.37-1.81,48.56-2.67,3.07-.16,6.15,0,10.28,0-3.64,2-6.81,1.53-9.68,1.86-15.42,1.72-30.88,3.14-46.32,4.74-1.12.12-3.2-.85-3.16,1.31s1.92,2.26,3.66,2.16q17.4-1,34.8-2,9.1-.51,18.22-.92a2,2,0,0,1,2.37,1.15c-5.19.61-10.18,1.29-15.19,1.78-11.83,1.14-23.68,2.14-35.5,3.35-1.36.14-4-.53-3.87,1.62s2.46,2.33,4.48,2.22q23.28-1.25,46.57-2.38c.93-.05,1.87,0,2.81,0l.11,1.09-47.58,5c1.74,2.92,2.29,3.34,5.22,3.21,13.23-.61,26.49-.91,39.67-2.07,7-.61,13.35-4.19,20-6.33,2.79-.9,5.57-1.87,8.25-2.77.69,1.08,0,1.33-.36,1.49-13.74,5.64-27.15,12.19-41.52,16.14-10.87,3-21.69,3-31.8-3-7.38-4.38-11.82-11.28-15.8-18.59-4.71-8.65-7.9-18.11-13.87-26.08-29.53-39.39-86.57-36.06-112,6.54-.55.92-1.12,1.84-1.69,2.76-1.49,0-1.41-.86-1.05-1.88a69.56,69.56,0,0,1,17.83-23.5Z"/><path class="cls-5" d="M356.9,433.43c-.37-3.46.54-12.67.54-13.05,0,.41-2.07,12.5-2.09,12.92-.61,3.83-.65,6.48-1.43,10.7-1.17,6.77-1.47,8.82-4.15,15.36,0-5.07.25-8.09.45-15.31.37-8.45.17-12.59,1.48-27.43-.61,5.14-2.83,18.6-3.31,24.29-.86,4.59-1.24,9.12-2.12,13.71a16.39,16.39,0,0,1-1.64,5.05c-.07-4.23-.07-3.62-.15-10.41.54-8.52.41-17.08.69-20.1a93.15,93.15,0,0,0-2,12.52c-1,6.05-1.93,12.13-4.07,18-1.27-7.35-.15-21.32,1.59-39.92-3.13,23.91-4.63,32.74-7.29,40V445.69c.57-7.61,1.88-30.44,2.6-33.14-.4.8-3.64,24.66-4.16,28.4-1.53,9.91-1.12,12.29-3.78,18.51a372.46,372.46,0,0,1,11.15-88.62l1.22.11c-.21,4.32-.33,6.64-.55,11-.79,5.3-3.1,22.11-3,25.41,1.3-5.12,2.25-14.36,4-20.44,1.57-5.79,2-10.62,4.5-16.23v13.21c-.47,5.77-1.32,16.89-2.24,20.5.94-2.18,2-10.35,3.16-17.13q1.91-8.18,3.79-16.36l1,.15v9.64c-.77,9-.85,11-1.29,19,1.13-7.27,4.56-24,5.78-29l1.3.16q-.48,7.35-.95,14.7a22.4,22.4,0,0,1-.6,5c-.44,2.09-1.12,7.47-.79,9.05.57-1.7.61-3.18,1.09-4.92.57-2.39.57-2.39,1.05-4.26l4.32-19.91c.58-.81,1.23-.57,1.89-.12,2.1,3.71-.41,7.44,0,11.18a14.7,14.7,0,0,1-.45,3.06c-1.26,3.14-.43,6.63-1.53,9.34a23.55,23.55,0,0,0,.78-6.3c1.08-3.64,1.2-7.42,1.71-11.14a18.35,18.35,0,0,1,1.51-6.28c3.32-1.12,4.65-.27,4.31,3-.27,2.6-.42,5.21-.77,7.52,1.12-3.4-.86-8,3.25-10.8,2.42-.24,2.89,1.47,3,3.23a25.78,25.78,0,0,1-.46,5.6c-.94,2-.73,4.18-1.17,6.25-.23,2.1-.93,4.14-.81,6.28,0,.53,0,1,0,1.58,0-.66,0-1.33,0-2a35.92,35.92,0,0,1,.8-5.65c.24-3.8,1.49-7.43,1.58-11.27a3.56,3.56,0,0,1,2.41-3.54c2.64-.2,3.24,1.31,2.91,3.54-.35,2.44-.66,4.89-.78,6.5-.05,1.39.57.88,0,1-.14,0-.21-.09-.17-.35.4-2.51.48-5.06,1.11-7.54.47-1.85,1.23-3.3,3.57-2.71,1.93,1.8,2.23,4,1.6,6.44-.68,1.52-.41,3.15-.57,4.72a3.93,3.93,0,0,1-.36,1.21c-1.92,3.1-1,6.73-2.15,10a8.2,8.2,0,0,0,.08,6.86c.24,5.54-1.24,10.91-1.58,16.39-.62,2.2-.2,4.7-1.92,6.58-1.72,12.28-3.69,24.51-7,36.52a36.46,36.46,0,0,1-.1-10.31c.22-6.27.78-25.85,1.28-29.46-.55.85-1.28,14.19-2.28,20.35l-3.72,19.54-1.08-.12c0-4.84.31-6.07.75-13.57.35-3.19,1-12.18.35-17.49-2.21,8.7-1.65,8.79-2.61,14-1.18,5.72-1.78,11.41-3.12,17.9-1.81-2.81-.84-5.19-1.17-7.37,0-4.92,0-4.92.19-8.7.23-5.47,1.29-16.82,1.16-20.28-.91,5.43-1.31,11-2.41,19.38-.9,4.29-1.55,9.21-2.47,13.49-.22,1-.07,2.13-1.35,3.18,0-5.57,1-11.18,1-16.41Z"/><path class="cls-6" d="M584.08,337.12c-3.37,0-6.75-.08-10.13,0-2.31.07-3.25-.73-2.75-3.11,2.61-12.29,5-24.62,7.82-36.87,1.24-5.45,5.27-8.07,10.9-7.42,11.53,1.32,23,2.86,34.57,4.27,3.15.39,5.14,1.85,6,5.07q4.31,16.47,8.87,32.86c.74,2.63.33,3.55-2.58,3.62-17.56.39-35.12.93-52.67,1.42Z"/><path class="cls-7" d="M386.19,410.1c-.66,8.71-2.45,17.23-4.12,25.78-.2,1.05-.33,2.16-1.65,2.48-1-6,.14-12-.77-18,.89-7.75,2.21-15.47,2-23.31-.06-3.74,1.87-7.19,1.63-11,.76-3.51,1.68-7,2.29-10.54.21-1.24.58-2.54,0-3.8a2.64,2.64,0,0,0-3.52-.71c-1.52,1-2.79-.33-4.18-.44-2.46,1.09-4.85-1.35-7.3-.11-2.14-.82-4.69-.49-6.48-2.31.95-1.5,2.44-.79,3.67-.8,7.26-.08,14.52,0,21.77-.06,1.31,0,2.7.42,3.92-.44l23.77-2.25c6.46-2.51,13.31-2.4,20-2.92,4.88-.38,9.8-.36,14.69-.78,2.82-1.13,5.85,0,8.71-.77,6.23,1.17,12.39-.26,18.56-.68,24.78-1.67,49.55-3.67,74.32-5.53,30.84-2.32,61.71-4.1,92.6-5.62,4.27-.21,8.56,0,13.2,0-1.54,1.16-3.25,1-4.8,1.16-29.69,2.87-59.38,5.85-89.09,8.51-20.84,1.86-41.72,3.33-62.58,4.89q-32.93,2.47-65.85,4.77c-10.78.74-21.57,1.38-32.37,1.72-3.47.11-4.35,1.18-4,4.49.35,3.61-.38,8.59-.38,12.23,0,4.7,1,8.17-1,12.67-.45,4.49-.95,9-2.57,13.28-1.86-.41-1.21-1.95-1.67-2.9-1.06-3.86.38-7.89-.78-11.13,0,.17,0-.47-.63.08-1.29,5.59-1.65,12.75-3.4,18.25-.38,1.2-.28,2.65-2.05,3.83a26.38,26.38,0,0,1-.54-7.65c-1.53-4.91.26-9.75.45-14.63.09-2.22.43-4.5.62-6.75.46-1.67.17-3.45.66-5.12,0-3.59,1.08-7.06,1.2-10.07-.24,1.19-.29,3-.6,4.73-.61,3.26-.79,6.57-1.09,9.86C387.78,397.06,388.2,403.74,386.19,410.1Z"/><path class="cls-8" d="M402.38,383.26c3.24-8.42,11.3-9.89,18.43-12.15,11.44-3.62,22.12-.92,33.44,3.16,0,1.52-.95,1.22-1.87,1-8.18-1.84-16.35-3.82-24.81-1.83-1.7.4-3.39.89-5.08,1.37-1.22.34-2.07.82-.79,2.16,8.94,9.36,8.19,19.51,2.28,30.37,4,1.18,7.91-.26,13,0a22,22,0,0,1-8.4,2.8,91.8,91.8,0,0,1-9.62,1.29c-11.35.63-16.58-3.75-18.35-15.07A19.15,19.15,0,0,1,402.38,383.26Z"/><path class="cls-9" d="M549.8,491.37c3.55-5.73,4.38-9.17,6.42-17.91l.51-5.75a73.27,73.27,0,0,0-3.57-33.94c-2.17-6.19-5.29-11.87-10.59-16-2.15-1.67-4.44-3.29-8-2.57,2.91,1.83,5,2.52,7.21,6.11a3.54,3.54,0,0,0,.73,2.64,64.58,64.58,0,0,1,5.39,13.67c3.2,11.28,3.1,22.82,1.78,34.41-.29,2.53.77,4.79-.17,7.93a43,43,0,0,1-4.08,11.92h4.06C549.58,491.71,549.7,491.55,549.8,491.37Z"/><path class="cls-9" d="M534.34,502.35c2.46,1,4,.07,5.46-.66,4.33-2.16,7.16-5.81,9.68-9.81h-4.06A24.11,24.11,0,0,1,534.34,502.35Z"/><path d="M626.22,378.22c-20.37.42-40.19,1.85-60.52,3.18-4,.27-8.08.57-12.12.84-1.21.08-2.9.26-3-1.21s1.62-1,2.6-1.09q39.92-3.15,79.74-7.31c6.61-.69,13.26-1.13,19.88-1.68h4.78l.07.85c-9.84,1.1-3.1.66-12.94,1.76,18.4-1.06,1.35,1.05,1.35,1.18,3.41,0-11.07.93-7.68.69a7.81,7.81,0,0,1,5.68,1.37c-.26.39,5.78,1.1,5.35,1.29a75,75,0,0,0-14.4-.48C630.18,377.94,629.52,377.92,626.22,378.22Z"/><path class="cls-3" d="M546.52,481c-1.65,3.92-2.53,5.79-4.76,8-1.39,1.4-2.79,2.83-5.75,2.83,6.25-6,6.83-13.38,7.74-20.66a105.69,105.69,0,0,0-.63-29.77c-1.12-7.05-2.47-10.19-6.48-15.19,3.21,0,3.76.45,7.6,5.74,2.26.42,2.8,2.34,3.33,4.09,4.1,13.43,3.38,26.05.39,39.72C547.6,477.45,547.13,478.76,546.52,481Z"/><path class="cls-3" d="M522.94,434.86a104.74,104.74,0,0,0,.39,48.18C514.18,478.06,510.7,446.65,522.94,434.86Z"/><path d="M546.33,481.48c2.27-8.62,4.09-17.59,3.54-26.58-.48-8-1.93-15.71-5.63-22.9-.61-3.09-1.08-6.21-3-8.87-.43-.6-1.35-1.72.53-1.82,9.57,13.91,10.83,29.61,9.73,45.78-.29,4.27-1.12,11.32-2.58,15.41-.39.65-.44-1.45-.86-.82C547,483.28,546.5,482.5,546.33,481.48Z"/><path class="cls-3" d="M687,408.37a28.39,28.39,0,0,1,2.26-8.75,26.14,26.14,0,0,1,2.16-4.25,109.83,109.83,0,0,0,.17,38.1c-2.93-3.44-3.8-8.94-4.59-11.92A107.33,107.33,0,0,1,687,408.37Z"/><path d="M602.73,393.86l-36.21,2.36c-1.25.08-2.81,0-2.89-1.43s1.59-1.05,2.53-1.14c9.36-.87,18.74-1.67,28.11-2.49l3.42.33V392l-3.79.39C597.33,393.48,600.29,392.17,602.73,393.86Z"/><path d="M452.9,361.44l-35.71,3.23-3.22-.24c.55-1.44,2.15,0,2.89-1.36-9-.54-17.91.41-27.35-.63,1.27-1.92,2.65-1.74,3.85-1.95a10.74,10.74,0,0,1,2.82.3c12.44.22,24.88-.05,37.31.34,1.81-.61,2.61.35,5.56,0,2.91,0,5.82-.61,8.73-.62C449.37,361.56,451.38,360.08,452.9,361.44Z"/><path d="M364.26,368.5l6.44.93c.65.46,1.44.85.95,1.88-1.2,5.53-4.06,23-5.26,28.53-.36,0,.95-12,.59-12.07.29-3.91.34-3.59.38-6.94.36-4.43-.05-5.57.35-8.62.17-1.24-.66-1.62-1.7-1.75a5.53,5.53,0,0,1-2.59.05,7.26,7.26,0,0,0-1-.22l-1.32.16-.09-1.94A2.46,2.46,0,0,1,364.26,368.5Z"/><path class="cls-3" d="M439.05,361.17c1.73-.07-4.48,0-6.18.27-11.66.85-13.73.61-21.32.78-3.34.07-5.83.2-9.17.07-.55-.25-19.38.67-26.85.06-8.59-.71,19.12-1.26,25.28-1.5,8.13-.36,11-.36,24.22-1.2C429.6,361.5,434.41,360.35,439.05,361.17Z"/><path class="cls-3" d="M364.26,368.5a19.75,19.75,0,0,1-3.05-.25c-3.68-.59-4,.23-6.54-1.83,13.54,1.11,26.14.56,38.75.5-2,1.25-4.17.77-6.29.89C379.51,368.26,371.8,368.5,364.26,368.5Z"/><path d="M386.19,410.1a114.35,114.35,0,0,1,2.39-19.6c.2-.56.44-.58.71-.05q-.84,11.06-1.69,22.1C387.15,411.73,387.2,410.61,386.19,410.1Z"/><path class="cls-3" d="M444.38,405.75l1.05,1.88c-1.47,3.82-4.75,12.27-6.23,16.09-.39-.13.45-3.85.63-5A51.49,51.49,0,0,1,444.38,405.75Z"/><path d="M380.59,419.76c-.25,6.2-.74,12.39-.17,18.6-1.68-2.74-.63-5.75-.85-8.63-.18-2.25.39-4.56-.68-6.72.13-2.15-.12-.42.84-6.39C381.53,417.26,380.6,418.64,380.59,419.76Z"/><path class="cls-3" d="M452.38,375.25l1.87-1A39.65,39.65,0,0,1,464.9,379"/><path d="M452.9,361.44c-1.71-.29-3.52,0-5.12-.89,4.58-.56,10.23-.93,14.53-1.4.1.15,3.73,1.42,3.89,1.5C463.46,361.06,455.81,361.14,452.9,361.44Z"/><path d="M601.06,390.48l11.08-.93,3.39.3C610.68,390.54,605.92,392.51,601.06,390.48Z"/><path d="M393.46,399.49a21.83,21.83,0,0,1,1.54-6.36v16C393.6,406.08,394.76,402.59,393.46,399.49Z"/><path d="M402.38,383.26c-.8,4.32-2.17,8.56-1.74,13-.46.83-.93,1.66-1.4,2.49.6-4.65.19-9.4,1.44-14C401.68,384.78,401.67,383.63,402.38,383.26Z"/><path class="cls-10" d="M545.13,290.8l-5.49.06H529.21C534.52,290.28,539.86,289,545.13,290.8Z"/><path d="M602.4,442.4l23.18-2.54c0,.39.08.78.13,1.16C618.13,443.23,610.45,444.51,602.4,442.4Z"/><path d="M378,370.32l4.77,0q.42.18.33.45c-.06.19-.13.29-.21.29-1.47,5.85-4.51,21.49-5.88,30.23-.17,0,.72-13.41.72-13.41,0-5.87.26-11.07.26-16.94-.23-.14-.31-.29-.23-.43S377.93,370.32,378,370.32Z"/><path d="M397.94,370a3.32,3.32,0,0,1-1.85.78c-5,.27-18.25.05-18.09.22-2.55,2.87-2.46,5.75-3,10-.19,1.56-3.54,19.66-3.89,21.2.7-10.57,1.79-20.53,2-23.5a55.59,55.59,0,0,1,.13-5.78c0-1,.25-2.34-1.56-1.61l-.95-1.88C373.11,370,384.54,369.12,397.94,370Z"/><path d="M387.77,370.16q-1.62,7.77-3.23,15.53c-2.46-.53-1.56-2.29-1.19-4.93,0-1.57-.05-1,0-2.61.2-2.67.79-3.7.69-5.22C383.83,369.89,385.14,369.21,387.77,370.16Z"/><path d="M365,376.71c-.81,3.78-3.61,23.62-4.42,27.39.09-8.88,1-17.63,1.07-18.62l.75-15.19a2.06,2.06,0,0,0,.43,0c1.77,0,1.66,1.13,1.53,2.4S363.79,375.53,365,376.71Z"/><path d="M380.59,419.76c-.29-1-.57-2.09-.86-3.14.55-5.9,1.62-11.41,1.5-17.2.16-1.39.55-6.62,1.71-16.25.39-.15-.42,13.54-.09,13.81Q381.73,408.37,380.59,419.76Z"/><path d="M382.16,396.92q.43-7.23.88-14.47l.54-.16c.22,1.16,0,2.44,1,3.4q-.84,5.64-1.69,11.29C382.62,397,382.39,396.94,382.16,396.92Z"/><path d="M365,376.71c-3.31-1.27-.55-4.59-2.17-6.43,1.13-1.08,2.17-.69,3.19.18Z"/><path d="M387.77,370.16c-2.38-.28-3.3.86-3.36,3.16a33,33,0,0,1-.67,4.24c-.59-2.12.47-4.46-.84-6.48a1.89,1.89,0,0,1-.12-.74C384.41,369.58,385.69,369.62,387.77,370.16Z"/><path d="M389.22,379.83c0-2.43.28-4.86.09-7.28-.2-2.59,1-2.19,2.79-2.55,1.27-.24,1.75-.36,1.72.22a12.82,12.82,0,0,1-1.05,2.83c-1.54,4.06-1.51,8.42-2.65,12.53C387.89,384,389.16,381.8,389.22,379.83Z"/><path d="M396.61,379.44c-.34,2.86-1.06,9.72-1.41,12.57-.19,0-.11-2.86-.21-4.05,0-4.42.51-8.86,0-13.25a13.65,13.65,0,0,1,.1-4.55c0-.34.85-.08,1.46-.28C396.84,370.7,395.45,376.24,396.61,379.44Z"/><path d="M396.64,379.4a11.31,11.31,0,0,1-.22-9.2c.09-.19.33-.13.43-.32.7.11,1.19,0,1.41.27.42.58.08,1.84-.13,2.71C397.61,375,397.14,377.22,396.64,379.4Z"/><path d="M389.24,379.08c.49,1.89-.28,4.72.88,6.5-.27,1.62-.55,3.25-.83,4.87l-.71.05A82.43,82.43,0,0,1,389.24,379.08Z"/><path class="cls-3" d="M701.25,420.48a28.4,28.4,0,0,1-2.26,8.74,25.36,25.36,0,0,1-2.16,4.25,109.83,109.83,0,0,0-.17-38.1c2.93,3.44,3.79,8.95,4.59,11.92A109.52,109.52,0,0,1,701.25,420.48Z"/><path class="cls-3" d="M208.93,488.48c0-155.12,126.2-281.31,281.31-281.31S771.55,333.36,771.55,488.48v.18a3.23,3.23,0,0,0,3.23,3.22h0a3.4,3.4,0,0,0,3.39-3.39h0a287.93,287.93,0,1,0-575.85,0v0a3.38,3.38,0,0,0,3.4,3.37h0a3.22,3.22,0,0,0,3.21-3.23Z"/><path class="cls-3" d="M490.24,769.79c-91.83,0-173.53-44.24-224.9-112.52a3.38,3.38,0,0,0-2.7-1.35h0a3.38,3.38,0,0,0-2.71,5.4,289.59,289.59,0,0,0,118.24,92.46,288.27,288.27,0,0,0,342.38-92.46,3.38,3.38,0,0,0-2.71-5.4h0a3.36,3.36,0,0,0-2.69,1.35C663.78,725.55,582.08,769.79,490.24,769.79Z"/><path class="cls-3" d="M191,489c0-165,134.26-299.28,299.28-299.28S789.52,323.93,789.52,489h0a2.93,2.93,0,0,0,2.93,2.93h3.08a2.93,2.93,0,0,0,2.93-2.93h0A308.22,308.22,0,1,0,182,489v0a2.91,2.91,0,0,0,2.92,2.9h3.13A2.89,2.89,0,0,0,191,489Z"/><path class="cls-3" d="M490.24,788.24c-102.39,0-192.93-51.69-246.92-130.34a4.53,4.53,0,0,0-3.74-2h0a4.55,4.55,0,0,0-3.73,7.13A309.72,309.72,0,0,0,370.27,773a308.68,308.68,0,0,0,374.37-109.9,4.55,4.55,0,0,0-3.74-7.13h0a4.54,4.54,0,0,0-3.74,2C683.18,736.55,592.63,788.24,490.24,788.24Z"/><path class="cls-3" d="M490.24,117.87c190.56,0,347.94,144.76,368,330.09l24.25-.22A394.1,394.1,0,0,0,211.49,209.21a392.93,392.93,0,0,0-114.12,246l24.23-.23C138.37,266.27,297.3,117.87,490.24,117.87Z"/><path class="cls-3" d="M490.24,858.07c-143.58,0-268.33-82.19-329.67-202h-27a394.45,394.45,0,0,0,713.35,0h-27C758.58,775.88,633.83,858.07,490.24,858.07Z"/><g class="cls-11"><path d="M207.89,558.75c0-20.79-9.17-31.89-25.44-31.89-8.26,0-16.4,4.26-22.46,12.14-6.72,8.78-11.75,24-11.75,40.67,0,17.69,9.55,27.76,24.14,27.76,11.11,0,20.27-6.71,28.28-20.14l8.26,2.58c-7.87,16.92-21.3,26.08-37.83,26.08-24,0-39.38-15.75-39.38-40,0-14.08,5.16-28.28,14.72-40.16,9.17-11.24,22.08-17.69,35.25-17.69,6.84,0,11.88,1.81,16.66,3.61,4.51,1.68,7.48,4.26,9.55,4.26,2.45,0,4.13-2.45,5.17-7.49h8.13L216,559.66h-8.14Z"/><path d="M275.55,540.8c5.81,0,9.56,3.88,9.56,10.33,0,5.3-3.49,9-8.52,9-4.39,0-7.11-2.32-7.11-5.68a4.6,4.6,0,0,0,.13-.9c0-.91-.13-1.29-.77-1.29-6.2,0-18.08,20.27-27.12,61.2H228.81l9.68-31.64c4-13,6.33-21.3,6.33-25.05,0-2.58-1.29-4.26-2.71-4.26-4.52,0-8.39,4.14-13.43,12.27h-7.1c7.75-15.11,17-22.6,24.53-22.6,6.2,0,9.82,4,9.82,11.5a48.22,48.22,0,0,1-.65,6.06C262,547.13,268.19,540.8,275.55,540.8Z"/><path d="M315.84,615.57c-15.75,0-26.47-11-26.47-28.28a47.69,47.69,0,0,1,15.88-36c7.49-6.84,16.53-10.59,25.31-10.59,11.62,0,19,6.2,19,15.63,0,13.94-15.62,23.76-45.71,25.82a37.26,37.26,0,0,0-1.42,8.78c0,10.33,6.07,16.79,15,16.79,8.52,0,16.79-5.55,23.76-16.53l7.49.26C340.11,607.43,329.14,615.57,315.84,615.57Zm20.79-58.37c0-5.81-3.49-9.3-8.78-9.3-8.91,0-17.43,9.43-22.86,27.9C325.65,574.5,336.63,567,336.63,557.2Z"/><path d="M383.11,616.08c-11.62,0-20.27-10.33-20.27-26.86a55.42,55.42,0,0,1,11.62-33.57c7.62-9.68,16.92-14.72,26.09-14.72,8.9,0,14.72,4.65,18.59,14.59l5.81-20a21.81,21.81,0,0,0,.9-5.42c0-3.23-3.1-4.78-9.29-4.78h-4.78l1.94-7.1c9.94-.26,19.36-.78,28.4-1.81l-22.46,78.89a23,23,0,0,0-1.17,5.81c0,3,1.55,4.65,3.88,4.65,3.61,0,7.87-4.26,12.39-12.78H442c-6.84,15.11-15,22.73-24.14,22.73-6.72,0-10.33-3.88-11.75-11.88C398.74,612,391.12,616.08,383.11,616.08Zm1.42-54.1a57.44,57.44,0,0,0-8.91,30c0,9.81,4.78,15.49,12.27,15.49,5.81,0,11.36-3.36,16.4-10.07,6.46-8.65,10.72-22.08,10.72-32s-5-15.63-12.4-15.63C396.15,549.71,389.83,553.84,384.53,562Z"/><path d="M468.08,615.7c-6.85,0-11-4.4-11-11.88,0-4.27,1.42-11.37,4.91-20.79,5.16-14.08,8.78-22.6,8.78-26.34,0-2.85-.91-4-3-4-4.13,0-8,4.13-12.91,12.14h-7.23c7.74-15.11,16.91-22.6,24.66-22.6,6.45,0,10.46,4.39,10.46,12.14,0,5.81-3.1,14.59-7.49,26.86-3.75,10.33-5.94,16.79-5.94,19.88,0,2.85,1.42,4.39,3.74,4.39,3.62,0,7.49-4.13,12-12.52h7.1C485.38,608.08,477.37,615.7,468.08,615.7ZM479.18,516a8.43,8.43,0,0,1,8.52,8.52,8.6,8.6,0,0,1-8.52,8.53,8.53,8.53,0,0,1,0-17Z"/><path d="M596.69,605.11l-2.2,8.39H555l2.06-8.39c8.91-.65,12.66-1.94,12.66-7.62a48.42,48.42,0,0,0-.65-6.59l-1.42-9.55H532.38l-6.84,13.3a14.73,14.73,0,0,0-1.81,5.81c0,3.61,3.74,4.52,12,4.65l-2.07,8.39H499.45l2.2-8.39c6.71-1.42,9.68-5.17,13.17-11.11l42.1-73.47h14.46l11.36,72.05C584.16,601.62,586.1,604.46,596.69,605.11ZM566.34,573l-6.2-40-22.85,40Z"/><path d="M625.74,542.09c6.84,0,11,4.39,11,11.88q0,7.75-5.82,23.25c-4.26,11.62-7.48,19.36-7.48,24.14,0,3.88,2.45,6.07,6.71,6.07,12.27,0,25.18-21.43,34.48-64.43h13l-10.2,32.93c-4,13-6.33,21.3-6.33,25.05,0,2.58,1.16,4.13,3.1,4.13,4.26,0,9.3-4.65,13.43-14.08h7.23c-6.72,16.14-17.3,24.54-25,24.54-6.33,0-9.82-4.14-9.82-12a40.23,40.23,0,0,1,.65-6.46c-8.26,12.4-16,18.6-25,18.6-8.26,0-13.82-5.56-13.82-14,0-7.23,3.1-15.24,6.72-25.18,3.74-10.33,5.94-16.79,5.94-19.88,0-2.85-1.55-4.39-3.88-4.39-3.48,0-7.48,4.13-12,12.52h-7.23C608.7,549.58,616.57,542.09,625.74,542.09Z"/><path d="M695.34,549.84l1.93-6.84H710.7l7-25.18h12.39l-7,25.18h12.39L734,549.84H721.29l-12.65,45.45a24.22,24.22,0,0,0-1,6.72c0,3,1.17,4.26,4,4.26,4.52,0,9.94-5,15.49-15.11h7.75c-7.88,16.27-17.17,24.54-27.76,24.54-7.36,0-11.88-4.78-11.88-12.66,0-4,1.29-8.65,2.84-14.46l10.72-38.74Z"/><path d="M802.51,601.62c-7.49,9.17-17.82,14.08-28.66,14.08-16.14,0-27.51-11.75-27.51-30.09,0-13.69,4.91-25.83,13.95-34.48a35.81,35.81,0,0,1,25.56-10.33c16.53,0,27.12,11.88,27.12,29.83C813,582.25,809,593.62,802.51,601.62Zm-10.46-5.29c4.26-7.62,7.1-18.34,7.1-29.19,0-12.91-4.77-19.36-14.2-19.36-12.65,0-24.4,15.88-24.4,39.9,0,13.68,5.42,21,14.59,21C781.72,608.72,787.4,604.59,792.05,596.33Z"/><path d="M823.17,597.36c0-6.2,3.23-10.07,8.14-10.07,4.39,0,7.23,2.71,7.23,6.58,0,5-4.65,6.46-4.65,8.4,0,2.45,5,6.07,12.65,6.07,9.17,0,14.59-4.65,14.59-11.37,0-6.32-5.55-9.81-12.78-15.36-9.81-7.49-15.11-12.92-15.11-21.18,0-10.85,9.17-19.5,22.86-19.5,12.78,0,21.82,7.62,21.82,16.4,0,5.55-3.62,9.43-8.65,9.43-4.13,0-7-2.46-7-6.07,0-5.3,5.29-6.07,5.29-8.78,0-1.55-4.52-4.78-10.72-4.78-7.23,0-12.39,4.52-12.39,9.81,0,4.39,3.22,7.75,8.91,12,11.49,8.65,19.49,14.21,19.49,24.92,0,11.75-10.84,21.83-26.34,21.83C832.47,615.7,823.17,607.3,823.17,597.36Z"/></g><path class="cls-3" d="M209.51,555.5c0-20.79-9.16-31.89-25.43-31.89-8.27,0-16.4,4.26-22.47,12.14-6.71,8.78-11.75,24-11.75,40.67,0,17.69,9.55,27.76,24.15,27.76,11.1,0,20.27-6.71,28.27-20.14l8.27,2.58c-7.88,16.92-21.31,26.09-37.84,26.09-24,0-39.38-15.76-39.38-40,0-14.08,5.17-28.28,14.72-40.16,9.17-11.23,22.08-17.69,35.25-17.69,6.85,0,11.88,1.81,16.66,3.61,4.52,1.68,7.49,4.27,9.55,4.27,2.46,0,4.14-2.46,5.17-7.49h8.13l-5.16,41.19h-8.14Z"/><path class="cls-3" d="M277.18,537.55c5.81,0,9.55,3.88,9.55,10.33,0,5.3-3.48,9-8.52,9-4.39,0-7.1-2.32-7.1-5.68a4.6,4.6,0,0,0,.13-.9c0-.91-.13-1.29-.78-1.29-6.2,0-18.07,20.27-27.11,61.2H230.43l9.69-31.63c4-13,6.33-21.31,6.33-25,0-2.59-1.3-4.26-2.72-4.26-4.52,0-8.39,4.13-13.43,12.26h-7.1C231,546.46,240.25,539,247.74,539c6.19,0,9.81,4,9.81,11.49a48.53,48.53,0,0,1-.65,6.07C263.62,543.88,269.82,537.55,277.18,537.55Z"/><path class="cls-3" d="M317.46,612.32c-15.75,0-26.47-11-26.47-28.28a47.7,47.7,0,0,1,15.89-36c7.48-6.84,16.52-10.58,25.3-10.58,11.62,0,19,6.19,19,15.62,0,14-15.63,23.76-45.71,25.82a36.83,36.83,0,0,0-1.43,8.79c0,10.33,6.07,16.78,15,16.78,8.53,0,16.79-5.55,23.76-16.53l7.49.26C341.74,604.18,330.76,612.32,317.46,612.32ZM338.25,554c0-5.81-3.48-9.29-8.78-9.29-8.91,0-17.43,9.42-22.85,27.89C327.28,571.26,338.25,563.77,338.25,554Z"/><path class="cls-3" d="M384.74,612.83c-11.62,0-20.27-10.33-20.27-26.85a55.43,55.43,0,0,1,11.62-33.58c7.61-9.68,16.91-14.72,26.08-14.72,8.91,0,14.72,4.65,18.59,14.59l5.81-20a21.86,21.86,0,0,0,.91-5.42c0-3.23-3.1-4.78-9.3-4.78H413.4l1.94-7.1c9.94-.26,19.37-.78,28.41-1.81l-22.47,78.9a22.74,22.74,0,0,0-1.16,5.81c0,3,1.55,4.64,3.87,4.64,3.62,0,7.88-4.26,12.4-12.78h7.23c-6.85,15.11-15,22.73-24.15,22.73-6.71,0-10.33-3.88-11.75-11.88C400.36,608.7,392.74,612.83,384.74,612.83Zm1.42-54.1a57.44,57.44,0,0,0-8.91,30c0,9.81,4.78,15.49,12.27,15.49,5.81,0,11.36-3.35,16.39-10.07,6.46-8.65,10.72-22.08,10.72-32s-5-15.63-12.39-15.63C397.78,546.46,391.45,550.6,386.16,558.73Z"/><path class="cls-3" d="M469.7,612.45c-6.84,0-11-4.39-11-11.88,0-4.26,1.42-11.37,4.9-20.79,5.17-14.08,8.78-22.6,8.78-26.34,0-2.84-.9-4-3-4-4.13,0-8,4.14-12.91,12.14H449.3C457.05,546.46,466.22,539,474,539c6.46,0,10.46,4.39,10.46,12.13,0,5.81-3.1,14.59-7.49,26.86-3.74,10.33-5.94,16.79-5.94,19.89,0,2.84,1.42,4.39,3.75,4.39,3.61,0,7.49-4.14,12-12.53h7.1C487,604.83,479,612.45,469.7,612.45Zm11.11-99.69a8.44,8.44,0,0,1,8.52,8.53,8.61,8.61,0,0,1-8.52,8.52,8.53,8.53,0,0,1,0-17Z"/><path class="cls-3" d="M598.31,601.86l-2.2,8.39H556.6l2.07-8.39c8.91-.65,12.65-1.94,12.65-7.62a49.54,49.54,0,0,0-.64-6.58l-1.42-9.56H534l-6.85,13.3a14.78,14.78,0,0,0-1.81,5.81c0,3.62,3.75,4.52,12,4.65l-2.06,8.39H501.08l2.19-8.39c6.72-1.42,9.69-5.17,13.17-11.11l42.1-73.47H573l11.36,72.05C585.78,598.37,587.72,601.21,598.31,601.86ZM568,569.71l-6.2-40-22.86,40Z"/><path class="cls-3" d="M627.36,538.85c6.85,0,11,4.39,11,11.88q0,7.74-5.81,23.24c-4.26,11.62-7.49,19.37-7.49,24.14,0,3.88,2.45,6.07,6.71,6.07,12.27,0,25.18-21.43,34.48-64.43h13l-10.2,32.93c-4,13-6.33,21.3-6.33,25.05,0,2.58,1.17,4.13,3.1,4.13,4.26,0,9.3-4.65,13.43-14.08h7.23c-6.71,16.14-17.3,24.54-25,24.54-6.32,0-9.81-4.13-9.81-12a41.32,41.32,0,0,1,.64-6.46c-8.26,12.4-16,18.6-25,18.6-8.26,0-13.81-5.56-13.81-14,0-7.23,3.1-15.24,6.71-25.18,3.75-10.33,5.94-16.78,5.94-19.88,0-2.84-1.55-4.39-3.87-4.39-3.49,0-7.49,4.13-12,12.52H603C610.32,546.34,618.2,538.85,627.36,538.85Z"/><path class="cls-3" d="M697,546.59l1.94-6.84h13.43l7-25.18h12.4l-7,25.18h12.4l-1.55,6.84H722.92l-12.66,45.46a24.41,24.41,0,0,0-1,6.71c0,3,1.16,4.26,4,4.26,4.52,0,9.94-5,15.5-15.11h7.74c-7.87,16.27-17.17,24.54-27.76,24.54-7.36,0-11.88-4.78-11.88-12.66,0-4,1.29-8.65,2.84-14.46l10.72-38.74Z"/><path class="cls-3" d="M804.14,598.37c-7.49,9.17-17.82,14.08-28.67,14.08-16.14,0-27.5-11.75-27.5-30.09,0-13.69,4.9-25.82,13.94-34.48a35.84,35.84,0,0,1,25.57-10.33c16.53,0,27.11,11.88,27.11,29.83C814.59,579,810.59,590.37,804.14,598.37Zm-10.46-5.29c4.26-7.62,7.1-18.34,7.1-29.18,0-12.92-4.78-19.37-14.21-19.37-12.65,0-24.4,15.88-24.4,39.9,0,13.68,5.42,21,14.59,21C783.35,605.47,789,601.34,793.68,593.08Z"/><path class="cls-3" d="M824.8,594.11c0-6.2,3.22-10.07,8.13-10.07,4.39,0,7.23,2.71,7.23,6.58,0,5-4.65,6.46-4.65,8.4,0,2.45,5,6.07,12.66,6.07,9.16,0,14.59-4.65,14.59-11.37,0-6.32-5.55-9.81-12.79-15.36-9.81-7.49-15.1-12.91-15.1-21.18,0-10.84,9.16-19.5,22.85-19.5,12.78,0,21.82,7.62,21.82,16.4,0,5.56-3.61,9.43-8.65,9.43-4.13,0-7-2.45-7-6.07,0-5.29,5.29-6.07,5.29-8.78,0-1.55-4.52-4.78-10.71-4.78-7.23,0-12.4,4.52-12.4,9.82,0,4.39,3.23,7.74,8.91,12,11.49,8.66,19.5,14.21,19.5,24.92,0,11.76-10.85,21.83-26.34,21.83C834.09,612.45,824.8,604.05,824.8,594.11Z"/><path class="cls-3" d="M393.18,697.79c0-7.82-3.45-12-9.57-12a10.78,10.78,0,0,0-8.44,4.56c-2.53,3.3-4.42,9-4.42,15.29,0,6.65,3.59,10.44,9.08,10.44,4.17,0,7.62-2.53,10.63-7.57l3.1,1c-3,6.36-8,9.8-14.22,9.8-9,0-14.8-5.92-14.8-15a24.22,24.22,0,0,1,5.53-15.09,17.31,17.31,0,0,1,13.25-6.65,16.55,16.55,0,0,1,6.26,1.36c1.7.63,2.82,1.6,3.6,1.6s1.55-.92,1.94-2.82h3.06l-1.95,15.49h-3.05Z"/><path class="cls-3" d="M421.52,713.9a13.84,13.84,0,0,1-10.78,5.29c-6.06,0-10.33-4.41-10.33-11.3a17.57,17.57,0,0,1,5.24-13,13.43,13.43,0,0,1,9.61-3.89c6.21,0,10.19,4.47,10.19,11.21A18.91,18.91,0,0,1,421.52,713.9Zm-3.93-2a23.33,23.33,0,0,0,2.67-11c0-4.85-1.8-7.28-5.34-7.28-4.76,0-9.17,6-9.17,15,0,5.15,2,7.91,5.48,7.91C413.71,716.57,415.84,715,417.59,711.91Z"/><path class="cls-3" d="M435.16,719.19c-2.57,0-4.18-1.65-4.18-4.46,0-1.94,1-5.29,2.33-10.15l4-14.12A18.23,18.23,0,0,0,438,687c0-1.21-1.16-1.79-3.49-1.79h-1.8l.73-2.67a107.12,107.12,0,0,0,10.92-.68l-7.09,25a43.58,43.58,0,0,0-1.65,7,1.36,1.36,0,0,0,1.36,1.55c1.36,0,2.87-1.7,4.76-5h2.81C441.52,716.23,438.7,719.19,435.16,719.19Z"/><path class="cls-3" d="M469.23,713.9a13.82,13.82,0,0,1-10.77,5.29c-6.07,0-10.34-4.41-10.34-11.3a17.57,17.57,0,0,1,5.24-13A13.43,13.43,0,0,1,463,691c6.21,0,10.19,4.47,10.19,11.21A18.91,18.91,0,0,1,469.23,713.9Zm-3.93-2a23.33,23.33,0,0,0,2.67-11c0-4.85-1.8-7.28-5.34-7.28-4.76,0-9.17,6-9.17,15,0,5.15,2,7.91,5.48,7.91C461.42,716.57,463.55,715,465.3,711.91Z"/><path class="cls-3" d="M482.67,706.48c1.46-4.81,2.38-7.91,2.38-9.42,0-1-.39-1.6-1-1.6-1.7,0-3.25,1.55-5.09,4.61h-2.67c2.91-5.68,6.4-8.49,9.22-8.49,2.38,0,3.69,1.55,3.69,4.51a14.85,14.85,0,0,1-.25,2.43c3-4.66,5.73-7,8.94-7,3,0,4.75,1.89,4.75,5.24a12.56,12.56,0,0,1-.14,1.75c3.2-4.61,5.82-7,9.07-7a5,5,0,0,1,5.34,5.14c0,2.33-1,5.05-2.28,8.5-1.65,4.41-2.67,7.23-2.67,8.54,0,1.07.58,1.7,1.46,1.7,1.45,0,3.15-1.85,4.9-5.49h2.72c-3,6.22-5.87,9.27-9.61,9.27-2.53,0-4-1.6-4-4.46,0-2.53,1.07-5.68,2.57-9.76s2.33-6.65,2.33-8a2.1,2.1,0,0,0-2.33-2.33c-4.51,0-9.46,7.92-12.86,23.74h-4.81l3.6-11.89c1.35-4.52,2.67-7.62,2.67-9.56a2,2,0,0,0-2.29-2.29c-4.27,0-8.93,7.92-12.42,23.74H479Z"/><path class="cls-3" d="M540.24,691.38c5,0,8.15,3.64,8.15,9.9a20.18,20.18,0,0,1-3.64,11.65A14.2,14.2,0,0,1,533,719.15c-5.53,0-8.64-2.92-8.64-8.16a23.45,23.45,0,0,1,1.12-6.41l4.36-15.53a9,9,0,0,0,.39-2c0-1.21-1.16-1.79-3.49-1.79h-1.8l.73-2.67a106.11,106.11,0,0,0,10.87-.68l-4.22,14.27C534.66,692.94,537.23,691.38,540.24,691.38Zm.15,20.92a21.73,21.73,0,0,0,3.15-11.06c0-4.23-1.6-6.36-4.71-6.36-2.08,0-4,1.16-5.87,3.44a21.52,21.52,0,0,0-4.27,12.28c0,3.64,1.89,5.78,5,5.78C536.36,716.38,538.59,715.07,540.39,712.3Z"/><path class="cls-3" d="M560.87,719.19c-2.58,0-4.13-1.65-4.13-4.46a25.13,25.13,0,0,1,1.85-7.82c1.94-5.29,3.3-8.49,3.3-9.9,0-1.07-.34-1.5-1.12-1.5-1.55,0-3,1.55-4.85,4.56H553.2c2.91-5.68,6.36-8.49,9.27-8.49,2.43,0,3.93,1.65,3.93,4.56,0,2.18-1.16,5.48-2.81,10.09-1.41,3.89-2.24,6.31-2.24,7.48s.54,1.65,1.41,1.65c1.36,0,2.82-1.55,4.51-4.71h2.67C567.37,716.33,564.36,719.19,560.87,719.19ZM565,681.72a3.17,3.17,0,0,1,3.2,3.21,3.23,3.23,0,0,1-3.2,3.2,3.21,3.21,0,0,1,0-6.41Z"/><path class="cls-3" d="M582.08,719.34c-4.37,0-7.62-3.88-7.62-10.1a20.83,20.83,0,0,1,4.37-12.62c2.86-3.64,6.35-5.53,9.8-5.53s5.53,1.75,7,5.49l1.31-5.05h4.61l-5.53,20a8.74,8.74,0,0,0-.44,2.18c0,1.07.58,1.7,1.36,1.7,1.31,0,2.86-1.55,4.56-4.76h2.72c-2.57,5.68-5.63,8.54-9.08,8.54-2.52,0-3.88-1.4-4.41-4.46C588,717.79,585.09,719.34,582.08,719.34Zm.63-20.34a21.6,21.6,0,0,0-3.4,11.26c0,3.69,1.8,5.83,4.61,5.83,2.19,0,4.27-1.26,6.17-3.79a22.38,22.38,0,0,0,4-12c0-3.68-1.85-5.87-4.62-5.87C587.08,694.39,584.7,695.94,582.71,699Z"/><circle class="cls-3" cx="614.18" cy="705.12" r="6.66"/><circle class="cls-3" cx="347.29" cy="705.12" r="6.66"/><path class="cls-3" d="M856.1,431.92c.46,5.19.51,13.69.75,18.87a14,14,0,0,0,9.08,12.42C899.12,475.53,923,509.58,923,549.54c0,50.33-37.92,91.27-84.54,91.27-2.2,0-4.39-.1-6.55-.28a8.89,8.89,0,0,0-8.93,5.58c-2.67,6.57-5.19,13.71-7.44,18.17,7.39,1.69,15.06,1,22.92,1,60.13,0,109-51.94,109-115.78C947.55,492,908,440.74,856.1,431.92Z"/><path class="cls-3" d="M123.36,442.26q-.49,7.17-.72,14.31a5.36,5.36,0,0,1-3.86,5c-35.76,10.64-62.11,46.06-62.11,88,0,50.33,37.93,91.27,84.54,91.27a78.7,78.7,0,0,0,8.87-.5,5.36,5.36,0,0,1,5.63,3.34c1.91,4.82,3.75,9.15,5.49,13a5.34,5.34,0,0,1-4.07,7.48,103.32,103.32,0,0,1-15.92,1.24c-60.13,0-109-51.94-109-115.78,0-54.94,36.24-101.07,84.68-112.85A5.31,5.31,0,0,1,123.36,442.26Z"/></g></g></g></svg>