<svg xmlns="http://www.w3.org/2000/svg" xmlns:xlink="http://www.w3.org/1999/xlink" viewBox="0 0 159.9 159.9"><defs><style>.cls-1{isolation:isolate;}.cls-2{fill:url(#Degradado_sin_nombre_16);}.cls-3{fill:#fff;}.cls-4{fill:#fafafa;}.cls-5{fill:#fcfcfc;}.cls-6{fill:#fefefe;}.cls-7{fill:#fbfbfb;}.cls-8{fill:#fdfdfd;}.cls-9{fill:#f9f9f9;}.cls-10{fill:#141414;}.cls-11{mix-blend-mode:multiply;}</style><radialGradient id="Degradado_sin_nombre_16" cx="79.95" cy="79.95" r="79.95" gradientUnits="userSpaceOnUse"><stop offset="0" stop-color="red"/><stop offset="0.43" stop-color="#fd0000"/><stop offset="0.58" stop-color="#f60000"/><stop offset="0.69" stop-color="#eb0000"/><stop offset="0.78" stop-color="#da0000"/><stop offset="0.86" stop-color="#c40000"/><stop offset="0.92" stop-color="#a80000"/><stop offset="0.98" stop-color="#890000"/><stop offset="1" stop-color="#7f0000"/></radialGradient></defs><title>Recurso 7</title><g class="cls-1"><g id="Capa_2" data-name="Capa 2"><g id="Capa_1-2" data-name="Capa 1"><circle class="cls-2" cx="79.95" cy="79.95" r="79.95"/><path class="cls-3" d="M112.13,62.39a4.7,4.7,0,0,1,1-2.09c.7-.83,1.39-.4,1.68-.4.53.29.85.41,1,1.72a46.74,46.74,0,0,1,.07,5.31c0,.21-.18-.28-.18-.41-.06-1.65-.55-5.07-.57-5.14a1,1,0,0,0-1.79.23c-.28.65-.85,6.82-1.22,8-.61,1.89-.7-.25-.66.28-.47-.57,0-3.74-.08-4.22C111.32,64.76,112.08,63.29,112.13,62.39Z"/><path class="cls-4" d="M92.33,76.56c.21,0-.15-.35-.15-.54a22.88,22.88,0,0,0-1.07-8.11,5.43,5.43,0,0,0-.68-1.28,1.59,1.59,0,0,0-2.4-.5,10,10,0,0,0-2.65,2.74c-.08.1-.84,1.36-.88,1.48a22.36,22.36,0,0,1-2.35,4.56c-.63.88-2,1.39-2.93,2-.37.23-1.48-.16-1.92-.08,0-.08,1.62-1.73,1.36-.92A5.61,5.61,0,0,0,82,72.79c.86-1.54.68-1.33,1.72-3.08.19-.32,1.12-2.14,1.36-2.44a9.83,9.83,0,0,1,2.41-2.18A2.59,2.59,0,0,1,91,66a8.31,8.31,0,0,1,1.46,3.78,21.22,21.22,0,0,1,.37,6c-.13,1.09.36,1.17,1.57,1.22A1.35,1.35,0,0,1,93,77Z"/><path class="cls-5" d="M48.07,60.3l-.33.83c.82-.43,1.53-.55,2.11.14a2.44,2.44,0,0,1,.43,2.6c-.23.58-.08.69.47.74s2.84-.59,3.5-.46c0,.24-1.68.63-1.82.67a10.32,10.32,0,0,1-3.67.32,1.82,1.82,0,0,1-1.56-1.78,2.78,2.78,0,0,1,.08-1.25c0-.15.22-.34-.1-.35A6.2,6.2,0,0,1,48.07,60.3Z"/><path d="M112.25,69.17l-.25-.4a23.84,23.84,0,0,1,.17-3s0,.74.08.76a6,6,0,0,1,.25,2.31C112.51,69,112.38,69.12,112.25,69.17Z"/><path d="M88.58,79.16l-.09.28Z"/><path d="M90.83,77.17a.78.78,0,0,1-.16-.15,2.94,2.94,0,0,0-.22.43,9.12,9.12,0,0,0-.3.88,8.19,8.19,0,0,1-.81,2h1c0-.11.09-.23.13-.35a9.13,9.13,0,0,0,.29-.89,15.46,15.46,0,0,0,.38-2.14C91.08,77,91.11,77.32,90.83,77.17Z"/><path d="M88.51,70.35c0-.06,0-.12-.05-.19A1.05,1.05,0,0,0,88.51,70.35Z"/><path d="M88.56,68.35l.06.08a.27.27,0,0,0-.07-.08Z"/><path d="M115.82,66.89v.24s0,0,.1,0l.08-.05,0,0s0-.08,0-.07l-.08,0A.24.24,0,0,0,115.82,66.89Z"/><path d="M116,67.1l-.08.05Z"/><path d="M89.86,79c.09-.3.2-.61-.15-.82-.22-.06-.33.18-.52.19s-.39.27-.5.48a1.36,1.36,0,0,0-.11.28l-.09.28.09-.28a14.48,14.48,0,0,0-.07-8.81,1.05,1.05,0,0,1-.05-.19c0,.07,0,.13.05.19a.29.29,0,0,0,.38.15c.2-.13.16-.3.12-.51a7.17,7.17,0,0,1-.32-1.37.62.62,0,0,0-.07-.19l-.06-.08h0a.55.55,0,0,0-.14-.12.24.24,0,0,1,.14.12.27.27,0,0,1,.07.08,10.42,10.42,0,0,1,2,7.66c0,.32-.14.66.07.93.12-.2.28-.34.43-.12,0-.19.34-.14.67-.14h.57l.27.12a1.64,1.64,0,0,1,.34.29h0a.92.92,0,0,1-.2-.71v-.18c-.08,0-.36.2-.36,0s0-.84,0-1c0-.65,0-1-.09-1.7s-.1-1.83-.22-2.54a11.15,11.15,0,0,0-1.24-4.15c-.78-1.35-1.74-1.42-3-.57A7.71,7.71,0,0,0,85.85,68c-1.48,1.87-2.6,4.54-3.87,6.55a5,5,0,0,1-4.34,2,9.49,9.49,0,0,0,3.14-1.36,11.29,11.29,0,0,0,2.06-3.49,23.6,23.6,0,0,1,1.73-3.52,13.17,13.17,0,0,1,2.31-2.5,2.57,2.57,0,0,1,4.13.51,13.61,13.61,0,0,1,1,2.19,25.18,25.18,0,0,1,.72,7.84h0a4,4,0,0,1,.18.89.74.74,0,0,0,.21.13,1.71,1.71,0,0,0,.56.13,1.4,1.4,0,0,0,.45-.11c1.63-.53,3.31-.88,4.93-1.51,1.41-.54,2.79-1.18,4.21-1.71,1.27-.49,2.49-1.16,3.73-1.74.5-.23,1.5-.6,2.07-.85a5.63,5.63,0,0,0,.32,1.57c.25.33.93.34,1.75.31,1.09,0,1.91,0,2.77-.11.55,0,.71-.66,1-1.62a12,12,0,0,0,.32-2.19c0-.47,0-.84,0-1.5,0-.37.06-.34.07-.51l.27-.16.31-.14c-.06,0-.09,0-.1,0v-.24a.29.29,0,0,1-.07-.19c-.14-1.73-.32-3.14-.49-4.73a2.52,2.52,0,0,0-.26-1c-.26-.48-.64-.39-1.09-.23-.21.07-.2.1-.55.52a6.48,6.48,0,0,0-.82,2c-.1.4-.14.61-.3,1.26s-.11.74-.14,1c-.11,1.26,0,.3-.1,1.24,0,.18-.06.73-.07,1,0,.44,0,.17,0,.89-.07.54-.06.64-.16,1.23a13.69,13.69,0,0,1-.16-2.92,16.85,16.85,0,0,1,.89-4.88c.39-1.06,1.58-2.79,2.53-2a1.89,1.89,0,0,1,.64,1.46c.15,1.5.16,4.45.18,5.33.1.13.25.14.2.2l.09-.1c.16-.21.09-.65.11-.78s0-1.43,0-2.5a20.17,20.17,0,0,0-.21-2.26,2.22,2.22,0,0,0-.91-1.48c-.58-.55-1.21-1.39-1.73-1.88a3.19,3.19,0,0,0-2.22-.61c-.39,0-.52.06-.77-.22a12.41,12.41,0,0,0-.85-1.14,2.14,2.14,0,0,0-1.58-.51,1.06,1.06,0,0,1-1.15-1c-.19-1.84-.65-3.63-.84-5.46a1.61,1.61,0,0,0-1.09-1.49c-.67-.24-1.31-.57-2-.8a21.73,21.73,0,0,0-2.71-.64,14.93,14.93,0,0,0-3.66,0c-2,.09-4,.22-5.92.26-3.69.08-7.39.05-11.08.28-1.9.12-3.82,0-5.73.15a2.52,2.52,0,0,0-2.49,1.5c-.26.64-.3.76-.56,1.41-.61,1.51-1,2.43-1.67,3.86-.23.51-.32,1.1-.87,1.49s-.68.26-1.46.41c-1.62.2-1.67.24-2.94.36-2.24.26-2.17.23-3.37.37s-2.49,0-3.34,1a4.34,4.34,0,0,0-.61.94,1.64,1.64,0,0,1-1.75,1.1c-.85-.06-1.72,0-2.58,0a11,11,0,0,0-2.78.38,3.2,3.2,0,0,0-1.24.56,3.41,3.41,0,0,0-.94,1.45c.42-.12.57-.14.49.23a.14.14,0,0,0,0-.06.64.64,0,0,1,.27-.4,1.54,1.54,0,0,1,.66-.32,1.19,1.19,0,0,1,1.29.72,2.5,2.5,0,0,1,.07,2c-.21.63.11.67.76.73A10.36,10.36,0,0,0,54,64.2a8,8,0,0,1-4.7.76,1.76,1.76,0,0,1-1.63-1.38,2.15,2.15,0,0,1-.06-1.37,2.83,2.83,0,0,0,.07-.28c-.1.22-.53-.08-.49-.23-.28.8-1.07,1.14-1.62,1.68a11.28,11.28,0,0,0-1.35,1.54,5.72,5.72,0,0,0-.9,2c-.47,1.5-.63,2.52-.94,3.78-.17.7-.44,1.56-1.4,1.75-.14,0-.23.13-.3.3-.26.69,0,1.47,1.19,1.75a16.32,16.32,0,0,1,2.66.55c.89.36,1.93.39,2.56,1.28.48.68.66,1.54,1.51,2a3.28,3.28,0,0,0,1.62.68c1.48,0,3,0,4.43,0A4.32,4.32,0,0,0,57,78.59c.24-.14.41-.37.68-.45,1.27-.39,2.58-.08,3.86-.21,1.51,0,1.93,0,3.45.12,3.41.27,3.64.36,5.52.56.31,0,.61.08.92.13a13.3,13.3,0,0,0,4.75.2c.54-.09,1.3-.18,1.47.5a7.52,7.52,0,0,0,.28.84H89.34A6,6,0,0,0,89.86,79Z"/><path d="M116,67.09h0Z"/><path d="M47.66,61.93c.08-.37-.07-.35-.49-.23C47.13,61.85,47.56,62.15,47.66,61.93Z"/><path d="M92.77,76.27h0v.18a.92.92,0,0,0,.2.71A4,4,0,0,0,92.77,76.27Z"/><path d="M90.67,77a.78.78,0,0,0,.16.15c.28.15.25-.2.27-.27C91,76.68,90.79,76.82,90.67,77Z"/><path d="M88.26,81.58a4.43,4.43,0,0,0,1-1.22A5,5,0,0,1,88.26,81.58Z"/><path d="M81.15,83.55c2,0,4.1,0,6.15,0a1.05,1.05,0,0,0,.57-.1,6.67,6.67,0,0,0,1.59-1.59,5.18,5.18,0,0,0,.84-1.58h-1a.56.56,0,0,1,0,.08,4.43,4.43,0,0,1-1,1.22,5,5,0,0,0,1-1.22.56.56,0,0,0,0-.08H78c.19.47.42.93.65,1.37A2.91,2.91,0,0,0,81.15,83.55Z"/><path d="M112.38,64.51l.14.41c.21.47,0,.92,0,1.37a.28.28,0,0,1-.35.22h0A9.65,9.65,0,0,1,112.38,64.51Z"/><path class="cls-6" d="M89,47.46a16.48,16.48,0,0,0,2.11,0c1,0,1.39.51,1.1,1.44-.54,1.77-1.12,3.53-1.66,5.31a3.24,3.24,0,0,1-1.76,2,8.63,8.63,0,0,1-2.18.74,76.86,76.86,0,0,1-11.16,1.75,1.08,1.08,0,0,0-.3.11,5.52,5.52,0,0,1-2.05.3H71.59c-.57,0-1.13,0-1.7,0-.22,0-.51,0-.52-.33,2.13-.19,4.26-.29,6.39-.56A84.68,84.68,0,0,0,86.91,56a5,5,0,0,0,2-1c.12-.1.29-.19.26-.36s-.24-.17-.38-.19a54.73,54.73,0,0,0-13.16-.71,33.57,33.57,0,0,0-5.36.75c-.37.09-.57.06-.37-.4.74-1.77,1.46-3.55,2.19-5.32A1.3,1.3,0,0,1,73.41,48l12.1-.36c.85,0,1.71-.1,2.57-.15A1.1,1.1,0,0,1,89,47.46Z"/><path class="cls-3" d="M76,61.92l.44-.3a10.67,10.67,0,0,1,11.06-.75,5.08,5.08,0,0,0,2.62.34l13.79-.83c.84-.05,1.68-.07,2.51-.1.28,0,.43,0,.09.26a12.92,12.92,0,0,1-2.9.41,9.31,9.31,0,0,0-1.87.34,9.76,9.76,0,0,1-2.48.23c-2.06.12-4.11.33-6.16.45-.68,0-1.36.11-2,.13,2-.11,4-.34,6-.43,1.75-.08,3.51-.49,5.27-.12.39,0,.78,0,1.17,0a12.08,12.08,0,0,1,2.45.15c-2.11.32-6.18.64-8.3.85s-4.08.36-6.12.54c-.18,0-.5-.05-.49.19s.31.24.53.22l6.93-.43c2-.11,4-.2,6-.29a1.82,1.82,0,0,1,1.06.13l-5.69.66a3.49,3.49,0,0,1-1.81.15L97,63.84a2.54,2.54,0,0,1-1.44.39c-.82,0-1.63.09-2.53.21a22.88,22.88,0,0,1,3.34-.25,19.43,19.43,0,0,1,2,.09,22.2,22.2,0,0,0,2.42-.13l2.6-.14h1.52a2.26,2.26,0,0,1-1.44.34c-3.4.36-6.8.68-10.2,1-.2,0-.57-.14-.55.23s.35.26.59.25c2.75-.16,5.5-.32,8.26-.46a16.15,16.15,0,0,1,2.5.08c-1.15.13-2.3.27-3.45.38-2.26.22-4.52.43-6.78.66-.19,0-.57-.12-.53.28s.36.25.59.24l9.18-.48a3.57,3.57,0,0,1,.86,0,4.34,4.34,0,0,1-1.67.31c-2.63.28-5.26.52-7.9.79-.19,0-.52-.08-.52.24s.35.32.6.31l7.93-.44c.5,0,1,0,1.67,0a3.44,3.44,0,0,1-1.58.3c-2.51.28-5,.51-7.56.77-.18,0-.52-.13-.51.22s.31.37.59.35l5.69-.32q1.48-.09,3-.15a.33.33,0,0,1,.39.18c-.85.1-1.67.22-2.48.29-1.94.19-3.87.35-5.8.55-.22,0-.65-.08-.63.27s.4.38.73.36l7.6-.39c.15,0,.31,0,.46,0l0,.18-7.77.81c.29.48.38.55.85.53,2.16-.1,4.33-.15,6.48-.34a15.5,15.5,0,0,0,3.27-1l1.35-.45c.11.17,0,.21-.06.24a59.37,59.37,0,0,1-6.78,2.63,6.42,6.42,0,0,1-5.19-.49,7.37,7.37,0,0,1-2.58-3A34,34,0,0,0,91.25,65,10.85,10.85,0,0,0,73,66.08l-.27.45c-.24,0-.23-.14-.17-.31a11.27,11.27,0,0,1,2.91-3.83Z"/><path class="cls-5" d="M58.25,70.74a18.14,18.14,0,0,1,.09-2.13c0,.07-.34,2-.34,2.11-.1.62-.11,1.06-.24,1.75a9.27,9.27,0,0,1-.67,2.5c0-.82,0-1.32.07-2.5.06-1.38,0-2,.24-4.47-.1.84-.46,3-.54,4-.14.75-.2,1.49-.34,2.24a2.82,2.82,0,0,1-.27.82c0-.69,0-.59,0-1.7.09-1.39.07-2.78.12-3.28a14.38,14.38,0,0,0-.32,2A16.57,16.57,0,0,1,55.35,75a32.53,32.53,0,0,1,.26-6.51A32.85,32.85,0,0,1,54.42,75v-2.3c.09-1.24.31-5,.42-5.41-.06.13-.59,4-.67,4.64a10.53,10.53,0,0,1-.62,3,60.69,60.69,0,0,1,1.82-14.46h.2l-.09,1.79c-.13.87-.51,3.61-.49,4.15.21-.84.36-2.34.65-3.34a16.83,16.83,0,0,1,.73-2.65v2.16A32.2,32.2,0,0,1,56,66a26.65,26.65,0,0,0,.52-2.8l.61-2.67.17,0v1.58c-.12,1.46-.14,1.79-.21,3.1.19-1.18.75-3.92.95-4.73l.21,0-.16,2.4a3,3,0,0,1-.1.81,6,6,0,0,0-.12,1.48c.09-.28.1-.52.17-.8l.18-.7.7-3.25c.1-.13.2-.09.31,0,.34.61-.07,1.22,0,1.83a2.31,2.31,0,0,1-.07.5c-.21.51-.07,1.08-.25,1.52a4,4,0,0,0,.13-1,13.78,13.78,0,0,0,.28-1.82,3,3,0,0,1,.24-1c.55-.18.76-.05.71.48s-.07.85-.13,1.23c.18-.55-.14-1.3.53-1.76.4,0,.47.24.49.52a4,4,0,0,1-.08.92,4.37,4.37,0,0,0-.19,1,5.81,5.81,0,0,0-.13,1v-.06a5.78,5.78,0,0,1,.13-.93c0-.62.24-1.21.25-1.84a.6.6,0,0,1,.4-.58c.43,0,.53.22.47.58s-.11.8-.12,1.06.09.15,0,.16,0,0,0-.05c.07-.41.08-.83.19-1.23s.2-.54.58-.45a1,1,0,0,1,.26,1.06,2.2,2.2,0,0,0-.09.77.6.6,0,0,1-.06.19c-.32.51-.16,1.1-.35,1.64a1.33,1.33,0,0,0,0,1.12A24.3,24.3,0,0,1,62.15,68c-.1.35,0,.76-.31,1.07a46.74,46.74,0,0,1-1.14,6,5.94,5.94,0,0,1,0-1.68c0-1,.13-4.22.21-4.81-.09.14-.21,2.32-.37,3.32L59.91,75l-.18,0c0-.79.06-1,.13-2.22a17.23,17.23,0,0,0,0-2.85,16.53,16.53,0,0,0-.42,2.29c-.19.93-.29,1.86-.51,2.92-.3-.46-.14-.85-.19-1.2,0-.81,0-.81,0-1.42,0-.9.21-2.75.19-3.31-.15.88-.22,1.79-.39,3.16-.15.7-.26,1.5-.41,2.2a.68.68,0,0,1-.22.52c0-.91.16-1.83.16-2.68Z"/><path class="cls-6" d="M95.33,55c-.55,0-1.1,0-1.66,0-.37,0-.53-.12-.44-.51.42-2,.82-4,1.27-6a1.48,1.48,0,0,1,1.78-1.21c1.88.21,3.76.47,5.64.7a1,1,0,0,1,1,.82q.7,2.69,1.45,5.37c.12.43.05.58-.42.59-2.87.06-5.74.15-8.6.23Z"/><path class="cls-7" d="M63,66.93a37.26,37.26,0,0,1-.67,4.21c0,.17-.06.35-.27.4-.16-1,0-2-.13-2.93a26.82,26.82,0,0,0,.33-3.8c0-.61.3-1.17.26-1.79.13-.57.28-1.14.38-1.72a1,1,0,0,0,0-.62.44.44,0,0,0-.57-.12c-.25.17-.45-.05-.68-.07-.4.18-.79-.22-1.19,0-.35-.13-.77-.08-1.06-.37.15-.25.4-.13.6-.13,1.18,0,2.37,0,3.55,0,.21,0,.44.07.64-.07l3.88-.37A11.3,11.3,0,0,1,71.36,59c.8-.06,1.6-.06,2.4-.13.46-.18.95,0,1.42-.12a11.83,11.83,0,0,0,3-.11c4-.27,8.09-.6,12.13-.91,5-.37,10.07-.66,15.11-.91.7,0,1.4,0,2.16,0a1.36,1.36,0,0,1-.79.19c-4.84.47-9.69,1-14.54,1.39-3.4.31-6.81.55-10.21.8-3.58.27-7.17.53-10.75.78-1.76.12-3.52.22-5.28.28-.57,0-.71.19-.66.73s-.06,1.4-.06,2a4.4,4.4,0,0,1-.16,2.07,8.43,8.43,0,0,1-.42,2.16c-.3-.06-.2-.31-.27-.47-.17-.63.06-1.29-.13-1.81,0,0,0-.08-.1,0-.21.91-.27,2.08-.56,3-.06.19,0,.43-.33.62a4.53,4.53,0,0,1-.09-1.25A6.8,6.8,0,0,1,63.33,65c0-.37.07-.74.11-1.11s0-.56.1-.83c0-.59.18-1.15.2-1.65,0,.2-.05.49-.1.78-.1.53-.13,1.07-.18,1.6A21.27,21.27,0,0,1,63,66.93Z"/><path class="cls-8" d="M65.67,62.55c.53-1.37,1.85-1.61,3-2a8.27,8.27,0,0,1,5.46.51c0,.25-.16.2-.31.17a8.68,8.68,0,0,0-4-.3c-.27.06-.55.14-.82.22s-.34.13-.13.35c1.45,1.53,1.33,3.19.37,5a9.41,9.41,0,0,0,2.12,0,3.5,3.5,0,0,1-1.37.46c-.52.08-1,.18-1.57.21-1.85.1-2.7-.61-3-2.46A3.15,3.15,0,0,1,65.67,62.55Z"/><path class="cls-9" d="M89.73,80.2a8.07,8.07,0,0,0,1-2.93l.08-.93a12,12,0,0,0-.58-5.54,5.41,5.41,0,0,0-1.73-2.62,1.48,1.48,0,0,0-1.3-.41,2.78,2.78,0,0,1,1.17,1,.59.59,0,0,0,.12.43,10.35,10.35,0,0,1,.88,2.23A14.37,14.37,0,0,1,89.71,77c0,.41.13.78,0,1.29a6.9,6.9,0,0,1-.66,2h.66A.35.35,0,0,0,89.73,80.2Z"/><path class="cls-9" d="M87.21,82a.92.92,0,0,0,.89-.11,4.05,4.05,0,0,0,1.58-1.6H89A3.92,3.92,0,0,1,87.21,82Z"/><path d="M102.21,61.73c-3.33.07-6.56.3-9.88.52l-2,.14c-.2,0-.47,0-.49-.2s.26-.17.42-.18q6.52-.51,13-1.19c1.08-.12,2.16-.19,3.24-.28h.78v.14c-1.6.18-.5.11-2.11.29,3-.17.22.17.22.19.56,0-1.8.15-1.25.11a1.32,1.32,0,0,1,.93.23c-.05.06.94.18.87.21a12.1,12.1,0,0,0-2.35-.08C102.85,61.68,102.74,61.68,102.21,61.73Z"/><path class="cls-3" d="M89.2,78.51a3.61,3.61,0,0,1-.78,1.31,1.19,1.19,0,0,1-.94.46,5,5,0,0,0,1.27-3.37,17.2,17.2,0,0,0-.11-4.86,4.41,4.41,0,0,0-1-2.48c.52,0,.61.07,1.24.94.37.07.45.38.54.66a12.32,12.32,0,0,1,.06,6.49C89.37,77.93,89.3,78.14,89.2,78.51Z"/><path class="cls-3" d="M85.35,71a17.15,17.15,0,0,0,.06,7.87C83.92,78,83.35,72.9,85.35,71Z"/><path d="M89.17,78.58a14.1,14.1,0,0,0,.58-4.33,9.29,9.29,0,0,0-.92-3.74,3.52,3.52,0,0,0-.49-1.45c-.07-.1-.22-.28.08-.3C90,71,90.19,73.6,90,76.23a11.35,11.35,0,0,1-.42,2.52c-.06.11-.07-.24-.14-.13S89.19,78.75,89.17,78.58Z"/><path class="cls-3" d="M112.13,66.65a4.77,4.77,0,0,1,.37-1.43,4.07,4.07,0,0,1,.35-.69,17.73,17.73,0,0,0,0,6.22,4.86,4.86,0,0,1-.75-2A17.14,17.14,0,0,1,112.13,66.65Z"/><path d="M98.37,64.28l-5.91.39c-.2,0-.46,0-.47-.24s.26-.17.41-.18L97,63.84l.56,0V64l-.62.07C97.49,64.22,98,64,98.37,64.28Z"/><path d="M73.92,59l-5.83.53-.53,0c.09-.24.36,0,.48-.22-1.47-.09-2.93.06-4.47-.11a.7.7,0,0,1,.63-.31,1.41,1.41,0,0,1,.46,0c2,0,4.06,0,6.09,0,.3-.1.43.06.91,0s1-.1,1.42-.1C73.34,59,73.67,58.77,73.92,59Z"/><path d="M59.45,60.14l1,.15c.11.08.24.14.16.31-.2.9-.67,3.76-.86,4.66-.06,0,.15-2,.09-2,0-.64.06-.59.07-1.13.06-.73,0-.91,0-1.41,0-.2-.1-.27-.27-.29a.89.89,0,0,1-.43,0,.45.45,0,0,0-.16,0l-.22,0v-.32A.41.41,0,0,1,59.45,60.14Z"/><path class="cls-3" d="M71.66,59c.28,0-.73,0-1,0-1.9.14-2.24.1-3.48.13-.55,0-1,0-1.5,0-.09,0-3.16.11-4.38,0-1.4-.12,3.12-.21,4.13-.24,1.32-.06,1.79-.06,4-.2A11.08,11.08,0,0,0,71.66,59Z"/><path class="cls-3" d="M59.45,60.14a3.35,3.35,0,0,1-.5,0c-.6-.09-.66,0-1.06-.3,2.21.18,4.26.09,6.32.09a2,2,0,0,1-1,.14C61.94,60.1,60.68,60.14,59.45,60.14Z"/><path d="M63,66.93a19.29,19.29,0,0,1,.39-3.2q0-.13.12,0l-.28,3.6C63.19,67.2,63.19,67,63,66.93Z"/><path class="cls-3" d="M72.53,66.22l.17.31c-.24.62-.78,2-1,2.63a3.19,3.19,0,0,1,.1-.82A8.48,8.48,0,0,1,72.53,66.22Z"/><path d="M62.12,68.51a23.57,23.57,0,0,0,0,3c-.28-.44-.1-.93-.14-1.4a2.91,2.91,0,0,0-.11-1.1A5.23,5.23,0,0,1,62,68C62.27,68.1,62.12,68.33,62.12,68.51Z"/><path class="cls-3" d="M73.83,61.25l.31-.17a6.94,6.94,0,0,1,1.74.77"/><path d="M73.92,59a2.64,2.64,0,0,1-.84-.14c.75-.1,1.67-.16,2.37-.23,0,0,.61.23.64.24C75.64,58.93,74.39,58.94,73.92,59Z"/><path d="M98.1,63.73l1.81-.15.55.05A4.31,4.31,0,0,1,98.1,63.73Z"/><path d="M64.22,65.2a3.51,3.51,0,0,1,.25-1v2.62C64.24,66.28,64.43,65.71,64.22,65.2Z"/><path d="M65.67,62.55a7.7,7.7,0,0,0-.28,2.13l-.23.41a17.26,17.26,0,0,1,.23-2.28C65.56,62.8,65.56,62.61,65.67,62.55Z"/><path class="cls-10" d="M89,47.46h-2.6A5.85,5.85,0,0,1,89,47.46Z"/><path d="M98.32,72.2l3.78-.41,0,.19A6.9,6.9,0,0,1,98.32,72.2Z"/><path d="M61.69,60.44h.78c.05,0,.07.05.06.08s0,0,0,0c-.24,1-.73,3.51-1,4.94,0,0,.12-2.19.12-2.19,0-1,0-1.81,0-2.77,0,0,0,0,0-.07Z"/><path d="M65,60.38a.55.55,0,0,1-.3.13c-.82,0-3,0-3,0a2.68,2.68,0,0,0-.49,1.64c0,.26-.58,3.21-.63,3.46.11-1.72.29-3.35.32-3.83s0-.63,0-1c0-.16,0-.38-.25-.26l-.16-.31C60.89,60.38,62.76,60.25,65,60.38Z"/><path d="M63.29,60.41,62.76,63c-.4-.09-.25-.38-.19-.81,0-.25,0-.16,0-.42,0-.44.13-.61.11-.85C62.64,60.37,62.86,60.26,63.29,60.41Z"/><path d="M59.57,61.48c-.13.62-.59,3.86-.72,4.47,0-1.45.16-2.87.17-3l.13-2.47h.07c.28,0,.27.19.25.39S59.37,61.29,59.57,61.48Z"/><path d="M62.12,68.51,62,68a24.78,24.78,0,0,0,.24-2.81c0-.23.09-1.08.28-2.65.06,0-.07,2.21,0,2.25Z"/><path d="M62.37,64.78l.15-2.36.09,0c0,.19,0,.4.15.56l-.27,1.84Z"/><path d="M59.57,61.48c-.54-.2-.09-.75-.35-1,.18-.17.35-.11.52,0Z"/><path d="M63.29,60.41c-.39,0-.54.14-.55.52a5.5,5.5,0,0,1-.11.69c-.1-.34.08-.73-.14-1.06a.5.5,0,0,1,0-.12A1.14,1.14,0,0,1,63.29,60.41Z"/><path d="M63.52,62a11.76,11.76,0,0,0,0-1.19c0-.42.16-.35.45-.41s.29-.06.29,0a2.31,2.31,0,0,1-.18.47c-.25.66-.24,1.37-.43,2C63.31,62.67,63.52,62.31,63.52,62Z"/><path d="M64.73,61.93c0,.46-.17,1.59-.23,2a4.86,4.86,0,0,1,0-.66,19.45,19.45,0,0,0,0-2.16,2.34,2.34,0,0,1,0-.75s.14,0,.24,0A5.25,5.25,0,0,0,64.73,61.93Z"/><path d="M64.74,61.92a1.83,1.83,0,0,1,0-1.5s0,0,.07-.05.19,0,.23,0,0,.3,0,.44C64.89,61.21,64.82,61.57,64.74,61.92Z"/><path d="M63.53,61.87c.08.31-.05.77.14,1.06,0,.27-.09.53-.13.8h-.12A13.69,13.69,0,0,1,63.53,61.87Z"/><path class="cls-3" d="M114.45,68.63a4.5,4.5,0,0,1-.37,1.42,3.81,3.81,0,0,1-.35.7,18.33,18.33,0,0,0,.26-3.1,18.12,18.12,0,0,0-.29-3.12,4.88,4.88,0,0,1,.75,1.94A17.3,17.3,0,0,1,114.45,68.63Z"/><path class="cls-3" d="M34.1,79.72a45.92,45.92,0,0,1,91.83,0v0a.52.52,0,0,0,.52.53h0a.56.56,0,0,0,.56-.55h0a47,47,0,1,0-94,0h0a.55.55,0,0,0,.56.55h0a.52.52,0,0,0,.52-.53Z"/><path class="cls-3" d="M80,125.64a45.84,45.84,0,0,1-36.7-18.37.56.56,0,0,0-.44-.22h0a.56.56,0,0,0-.45.89,48,48,0,0,0,4.36,5,47.06,47.06,0,0,0,70.82-5,.56.56,0,0,0-.44-.89h0a.54.54,0,0,0-.44.22A45.86,45.86,0,0,1,80,125.64Z"/><path class="cls-3" d="M31.17,79.8a48.85,48.85,0,0,1,97.69,0h0a.47.47,0,0,0,.48.48h.5a.48.48,0,0,0,.48-.48h0a50.31,50.31,0,1,0-100.61,0h0a.47.47,0,0,0,.48.47h.51a.47.47,0,0,0,.47-.47Z"/><path class="cls-3" d="M80,128.65a48.85,48.85,0,0,1-40.3-21.27.72.72,0,0,0-.61-.33h0a.74.74,0,0,0-.61,1.17,50.61,50.61,0,0,0,5.95,7.15,50.36,50.36,0,0,0,77.09-7.15.74.74,0,0,0-.61-1.17h0a.73.73,0,0,0-.61.33A48.85,48.85,0,0,1,80,128.65Z"/><path class="cls-3" d="M80,19.24a60.5,60.5,0,0,1,60.06,53.87l4,0A64.29,64.29,0,0,0,80,15.3a64.3,64.3,0,0,0-64.12,59l4,0A60.48,60.48,0,0,1,80,19.24Z"/><path class="cls-3" d="M80,140.05a60.47,60.47,0,0,1-53.8-33H21.8a64.38,64.38,0,0,0,116.43,0h-4.41A60.48,60.48,0,0,1,80,140.05Z"/><g class="cls-11"><path d="M33.93,91.19c0-3.39-1.5-5.2-4.15-5.2a4.67,4.67,0,0,0-3.67,2,11.48,11.48,0,0,0-1.92,6.64c0,2.89,1.56,4.53,3.94,4.53,1.82,0,3.31-1.1,4.62-3.29l1.35.42a6.68,6.68,0,0,1-6.18,4.26C24,100.53,21.5,98,21.5,94a10.53,10.53,0,0,1,2.4-6.56,7.49,7.49,0,0,1,5.75-2.88,7.1,7.1,0,0,1,2.72.59c.74.27,1.22.69,1.56.69s.67-.4.84-1.22H36.1l-.84,6.72H33.93Z"/><path d="M45,88.26A1.51,1.51,0,0,1,46.53,90a1.38,1.38,0,0,1-1.39,1.48c-.71,0-1.16-.38-1.16-.93a.73.73,0,0,0,0-.15c0-.15,0-.21-.12-.21-1,0-3,3.31-4.43,10H37.34L38.92,95a20.56,20.56,0,0,0,1-4.09c0-.42-.21-.7-.45-.7-.73,0-1.37.68-2.19,2H36.16c1.27-2.46,2.79-3.68,4-3.68,1,0,1.6.65,1.6,1.87a7,7,0,0,1-.11,1C42.76,89.3,43.77,88.26,45,88.26Z"/><path d="M51.55,100.47c-2.57,0-4.32-1.79-4.32-4.62A7.78,7.78,0,0,1,49.82,90,6.2,6.2,0,0,1,54,88.24c1.9,0,3.1,1,3.1,2.55,0,2.28-2.55,3.88-7.46,4.22a5.88,5.88,0,0,0-.23,1.43,2.44,2.44,0,0,0,2.44,2.74c1.39,0,2.74-.9,3.88-2.7l1.22,0C55.51,99.14,53.72,100.47,51.55,100.47Zm3.39-9.53a1.38,1.38,0,0,0-1.43-1.52c-1.46,0-2.85,1.54-3.73,4.56C53.15,93.77,54.94,92.54,54.94,90.94Z"/><path d="M62.53,100.55c-1.9,0-3.31-1.68-3.31-4.38a9,9,0,0,1,1.9-5.48,5.54,5.54,0,0,1,4.25-2.4c1.46,0,2.41.75,3,2.38l1-3.27a3.74,3.74,0,0,0,.14-.88c0-.53-.5-.78-1.51-.78h-.78l.31-1.16c1.63,0,3.16-.13,4.64-.3L68.49,97.16a4,4,0,0,0-.19,1c0,.48.26.76.63.76.59,0,1.29-.7,2-2.09h1.18c-1.12,2.46-2.45,3.71-3.94,3.71-1.1,0-1.69-.63-1.92-1.94A5.12,5.12,0,0,1,62.53,100.55Zm.23-8.83a9.35,9.35,0,0,0-1.45,4.89c0,1.6.78,2.53,2,2.53A3.43,3.43,0,0,0,66,97.5a9.68,9.68,0,0,0,1.75-5.23c0-1.6-.82-2.55-2-2.55A3.69,3.69,0,0,0,62.76,91.72Z"/><path d="M76.4,100.49a1.72,1.72,0,0,1-1.8-1.94,11,11,0,0,1,.8-3.39,23.07,23.07,0,0,0,1.44-4.3c0-.47-.15-.66-.49-.66-.67,0-1.3.68-2.1,2H73.07c1.26-2.46,2.76-3.68,4-3.68,1,0,1.71.71,1.71,2a16.54,16.54,0,0,1-1.22,4.38,13.75,13.75,0,0,0-1,3.25c0,.46.23.71.61.71.59,0,1.22-.67,2-2h1.16C79.22,99.24,77.91,100.49,76.4,100.49Zm1.81-16.27a1.37,1.37,0,0,1,1.39,1.39A1.4,1.4,0,0,1,78.21,87a1.39,1.39,0,0,1,0-2.78Z"/><path d="M97.39,98.76,97,100.13H90.58l.34-1.37c1.45-.11,2.06-.32,2.06-1.24a8.3,8.3,0,0,0-.1-1.08l-.24-1.56H86.89l-1.12,2.17a2.42,2.42,0,0,0-.29,1c0,.59.61.74,2,.76l-.34,1.37H81.52l.35-1.37A3.05,3.05,0,0,0,84,97l6.87-12h2.36l1.86,11.76C95.34,98.19,95.66,98.65,97.39,98.76Zm-5-5.25-1-6.53-3.73,6.53Z"/><path d="M102.13,88.48a1.71,1.71,0,0,1,1.79,1.93,12.2,12.2,0,0,1-1,3.8,15.85,15.85,0,0,0-1.22,3.94c0,.63.4,1,1.09,1,2,0,4.11-3.5,5.63-10.52h2.13L108.93,94a20.84,20.84,0,0,0-1,4.09c0,.42.19.67.51.67.69,0,1.51-.76,2.19-2.3h1.18c-1.1,2.64-2.82,4-4.09,4-1,0-1.6-.68-1.6-2a7,7,0,0,1,.1-1.06c-1.34,2-2.61,3-4.08,3a2.15,2.15,0,0,1-2.26-2.28A13.25,13.25,0,0,1,101,94.1a14.26,14.26,0,0,0,1-3.24c0-.47-.26-.72-.64-.72-.56,0-1.22.67-2,2H98.14C99.35,89.7,100.63,88.48,102.13,88.48Z"/><path d="M113.49,89.74l.31-1.12H116l1.14-4.11h2L118,88.62h2l-.25,1.12h-2.07l-2.06,7.42a3.82,3.82,0,0,0-.17,1.09c0,.49.19.7.65.7.74,0,1.62-.82,2.53-2.47h1.27c-1.29,2.66-2.81,4-4.54,4a1.85,1.85,0,0,1-1.93-2.07,10.17,10.17,0,0,1,.46-2.36l1.75-6.32Z"/><path d="M131,98.19a6,6,0,0,1-4.68,2.3c-2.63,0-4.49-1.92-4.49-4.91A7.62,7.62,0,0,1,124.09,90a5.83,5.83,0,0,1,4.17-1.69c2.7,0,4.43,1.94,4.43,4.87A8.25,8.25,0,0,1,131,98.19Zm-1.71-.86a10.13,10.13,0,0,0,1.16-4.77c0-2.1-.78-3.16-2.32-3.16-2.06,0-4,2.6-4,6.51,0,2.24.88,3.44,2.38,3.44C127.59,99.35,128.51,98.68,129.27,97.33Z"/><path d="M134.35,97.5c0-1,.53-1.65,1.33-1.65a1.07,1.07,0,0,1,1.18,1.08c0,.82-.76,1-.76,1.37s.82,1,2.06,1c1.5,0,2.39-.76,2.39-1.86s-.91-1.6-2.09-2.51c-1.6-1.22-2.47-2.1-2.47-3.45,0-1.77,1.5-3.18,3.73-3.18s3.57,1.24,3.57,2.67a1.42,1.42,0,0,1-1.42,1.54,1,1,0,0,1-1.13-1c0-.86.86-1,.86-1.43,0-.26-.74-.78-1.75-.78a1.82,1.82,0,0,0-2,1.6c0,.72.52,1.26,1.45,2,1.88,1.41,3.18,2.32,3.18,4.07,0,1.91-1.77,3.56-4.3,3.56C135.87,100.49,134.35,99.12,134.35,97.5Z"/></g><path class="cls-3" d="M34.2,90.66c0-3.39-1.5-5.2-4.16-5.2a4.65,4.65,0,0,0-3.66,2,11.41,11.41,0,0,0-1.92,6.64c0,2.89,1.56,4.53,3.94,4.53,1.81,0,3.31-1.1,4.61-3.29l1.35.42A6.66,6.66,0,0,1,28.19,100c-3.92,0-6.43-2.57-6.43-6.53a10.53,10.53,0,0,1,2.4-6.56A7.53,7.53,0,0,1,29.92,84a7.14,7.14,0,0,1,2.72.59c.73.27,1.22.69,1.56.69s.67-.4.84-1.22h1.33l-.85,6.72H34.2Z"/><path class="cls-3" d="M45.24,87.73a1.51,1.51,0,0,1,1.56,1.69,1.38,1.38,0,0,1-1.39,1.48c-.72,0-1.16-.38-1.16-.93a.73.73,0,0,0,0-.15c0-.15,0-.21-.13-.21-1,0-3,3.31-4.42,10H37.61l1.58-5.16a21,21,0,0,0,1-4.09c0-.42-.21-.7-.44-.7-.74,0-1.37.68-2.19,2H36.43c1.26-2.46,2.78-3.68,4-3.68,1,0,1.6.65,1.6,1.87a8.34,8.34,0,0,1-.1,1C43,88.77,44,87.73,45.24,87.73Z"/><path class="cls-3" d="M51.81,99.94c-2.57,0-4.32-1.79-4.32-4.62a7.79,7.79,0,0,1,2.6-5.88,6.18,6.18,0,0,1,4.13-1.73c1.89,0,3.09,1,3.09,2.55,0,2.28-2.55,3.88-7.46,4.22a6.42,6.42,0,0,0-.23,1.43,2.44,2.44,0,0,0,2.45,2.74c1.39,0,2.74-.9,3.87-2.7l1.23,0C55.78,98.61,54,99.94,51.81,99.94Zm3.4-9.53a1.38,1.38,0,0,0-1.44-1.52c-1.45,0-2.84,1.54-3.73,4.56C53.42,93.24,55.21,92,55.21,90.41Z"/><path class="cls-3" d="M62.79,100c-1.89,0-3.31-1.68-3.31-4.38a9.06,9.06,0,0,1,1.9-5.48,5.55,5.55,0,0,1,4.26-2.4c1.45,0,2.4.75,3,2.38l1-3.27a3.38,3.38,0,0,0,.15-.88c0-.53-.51-.78-1.52-.78h-.78l.32-1.16c1.62,0,3.16-.13,4.63-.3L68.76,96.63a3.53,3.53,0,0,0-.19,1c0,.48.25.76.63.76.59,0,1.29-.7,2-2.09H72.4C71.29,98.71,70,100,68.46,100c-1.09,0-1.68-.63-1.92-1.94A5.1,5.1,0,0,1,62.79,100ZM63,91.19a9.36,9.36,0,0,0-1.46,4.89c0,1.6.78,2.53,2,2.53A3.45,3.45,0,0,0,66.25,97,9.77,9.77,0,0,0,68,91.74c0-1.6-.82-2.55-2-2.55A3.67,3.67,0,0,0,63,91.19Z"/><path class="cls-3" d="M76.66,100A1.72,1.72,0,0,1,74.87,98a10.73,10.73,0,0,1,.8-3.39,23.53,23.53,0,0,0,1.43-4.3c0-.47-.14-.66-.48-.66-.68,0-1.31.68-2.11,2H73.33c1.26-2.46,2.76-3.68,4-3.68,1,0,1.7.71,1.7,2a16.15,16.15,0,0,1-1.22,4.38,14.28,14.28,0,0,0-1,3.25c0,.46.23.71.61.71.59,0,1.22-.67,2-2H80.6C79.48,98.71,78.18,100,76.66,100Zm1.81-16.27a1.37,1.37,0,0,1,1.39,1.39,1.4,1.4,0,0,1-1.39,1.39,1.39,1.39,0,0,1,0-2.78Z"/><path class="cls-3" d="M97.65,98.23l-.36,1.37H90.84l.34-1.37c1.45-.11,2.07-.32,2.07-1.24a8.55,8.55,0,0,0-.11-1.08l-.23-1.56H87.16L86,96.52a2.5,2.5,0,0,0-.3,1c0,.59.61.74,2,.76l-.33,1.37H81.78l.36-1.37a3.07,3.07,0,0,0,2.15-1.81l6.87-12h2.36l1.85,11.76C95.61,97.66,95.92,98.12,97.65,98.23ZM92.7,93l-1-6.53L88,93Z"/><path class="cls-3" d="M102.39,88a1.71,1.71,0,0,1,1.79,1.93,12.12,12.12,0,0,1-.94,3.8A16,16,0,0,0,102,97.62c0,.63.4,1,1.1,1,2,0,4.11-3.5,5.63-10.52h2.12l-1.66,5.38a20.84,20.84,0,0,0-1,4.09c0,.42.19.67.5.67.7,0,1.52-.76,2.19-2.3H112c-1.09,2.64-2.82,4-4.08,4-1,0-1.61-.68-1.61-2a7.07,7.07,0,0,1,.11-1.06c-1.35,2-2.61,3-4.09,3a2.14,2.14,0,0,1-2.25-2.28,13.12,13.12,0,0,1,1.09-4.11,14.26,14.26,0,0,0,1-3.24c0-.47-.25-.72-.63-.72-.57,0-1.22.67-2,2H98.41C99.61,89.17,100.9,88,102.39,88Z"/><path class="cls-3" d="M113.75,89.21l.32-1.12h2.19L117.4,84h2l-1.14,4.11h2l-.26,1.12H118l-2.07,7.42a4.21,4.21,0,0,0-.17,1.09c0,.49.19.7.66.7.73,0,1.62-.82,2.53-2.47h1.26c-1.29,2.66-2.8,4-4.53,4a1.85,1.85,0,0,1-1.94-2.07,10.17,10.17,0,0,1,.46-2.36l1.75-6.32Z"/><path class="cls-3" d="M131.24,97.66a6,6,0,0,1-4.68,2.3c-2.63,0-4.48-1.92-4.48-4.91a7.65,7.65,0,0,1,2.27-5.63,5.83,5.83,0,0,1,4.17-1.69c2.7,0,4.43,1.94,4.43,4.87A8.19,8.19,0,0,1,131.24,97.66Zm-1.7-.86A10.25,10.25,0,0,0,130.7,92c0-2.1-.78-3.16-2.32-3.16-2.07,0-4,2.59-4,6.51,0,2.24.89,3.44,2.39,3.44A3.27,3.27,0,0,0,129.54,96.8Z"/><path class="cls-3" d="M134.62,97c0-1,.52-1.65,1.32-1.65a1.07,1.07,0,0,1,1.18,1.08c0,.82-.76,1-.76,1.37s.83,1,2.07,1c1.5,0,2.38-.76,2.38-1.86s-.9-1.6-2.09-2.51c-1.6-1.22-2.46-2.1-2.46-3.45,0-1.77,1.5-3.18,3.73-3.18s3.56,1.24,3.56,2.67A1.42,1.42,0,0,1,142.14,92,1,1,0,0,1,141,91c0-.86.86-1,.86-1.43,0-.26-.73-.78-1.74-.78a1.83,1.83,0,0,0-2,1.6c0,.72.53,1.26,1.46,2,1.87,1.41,3.18,2.32,3.18,4.07,0,1.91-1.77,3.56-4.3,3.56C136.13,100,134.62,98.59,134.62,97Z"/><path class="cls-3" d="M64.17,113.89c0-1.28-.56-2-1.56-2a1.76,1.76,0,0,0-1.38.74,4.34,4.34,0,0,0-.72,2.5c0,1.09.59,1.7,1.48,1.7a2.07,2.07,0,0,0,1.74-1.23l.5.16a2.51,2.51,0,0,1-2.32,1.6,2.28,2.28,0,0,1-2.41-2.46,3.93,3.93,0,0,1,.9-2.46,2.81,2.81,0,0,1,2.16-1.09,2.7,2.7,0,0,1,1,.22c.28.11.46.26.59.26s.25-.15.32-.46H65l-.32,2.53h-.5Z"/><path class="cls-3" d="M68.8,116.52a2.27,2.27,0,0,1-1.76.86,1.68,1.68,0,0,1-1.69-1.85,2.84,2.84,0,0,1,.86-2.11,2.17,2.17,0,0,1,1.56-.63,1.64,1.64,0,0,1,1.67,1.83A3.13,3.13,0,0,1,68.8,116.52Zm-.65-.33a3.7,3.7,0,0,0,.44-1.79c0-.79-.29-1.19-.87-1.19-.78,0-1.5,1-1.5,2.45,0,.84.33,1.29.9,1.29A1.21,1.21,0,0,0,68.15,116.19Z"/><path class="cls-3" d="M71,117.38a.65.65,0,0,1-.68-.73,8.35,8.35,0,0,1,.38-1.65l.65-2.31a2.93,2.93,0,0,0,.12-.56q0-.3-.57-.3h-.29l.12-.43c.63,0,1.23-.05,1.78-.11l-1.16,4.07a7.77,7.77,0,0,0-.27,1.15.22.22,0,0,0,.22.25c.23,0,.47-.27.78-.82h.46C72.06,116.9,71.6,117.38,71,117.38Z"/><path class="cls-3" d="M76.58,116.52a2.26,2.26,0,0,1-1.76.86,1.67,1.67,0,0,1-1.68-1.85,2.87,2.87,0,0,1,.85-2.11,2.21,2.21,0,0,1,1.57-.63,1.64,1.64,0,0,1,1.67,1.83A3.07,3.07,0,0,1,76.58,116.52Zm-.64-.33a3.82,3.82,0,0,0,.44-1.79c0-.79-.3-1.19-.87-1.19-.78,0-1.5,1-1.5,2.45,0,.84.33,1.29.89,1.29A1.21,1.21,0,0,0,75.94,116.19Z"/><path class="cls-3" d="M78.78,115.3a7.76,7.76,0,0,0,.39-1.53c0-.17-.07-.26-.16-.26-.28,0-.53.25-.83.75h-.44c.48-.93,1.05-1.39,1.5-1.39s.61.26.61.74a3.18,3.18,0,0,1,0,.4c.48-.77.93-1.15,1.46-1.15s.77.31.77.86c0,.09,0,.18,0,.29.52-.76,1-1.15,1.48-1.15a.82.82,0,0,1,.87.84,4.37,4.37,0,0,1-.37,1.39,6.15,6.15,0,0,0-.44,1.4.24.24,0,0,0,.24.27c.24,0,.52-.3.8-.89H85c-.48,1-1,1.51-1.56,1.51-.42,0-.66-.26-.66-.73a5,5,0,0,1,.42-1.59,5.35,5.35,0,0,0,.38-1.31.35.35,0,0,0-.38-.38c-.74,0-1.55,1.29-2.1,3.88h-.79l.59-2a8.35,8.35,0,0,0,.44-1.56c0-.25-.12-.37-.38-.37-.69,0-1.45,1.29-2,3.88h-.8Z"/><path class="cls-3" d="M88.17,112.84c.81,0,1.33.6,1.33,1.62a3.29,3.29,0,0,1-.59,1.9,2.32,2.32,0,0,1-1.93,1A1.24,1.24,0,0,1,85.57,116a3.83,3.83,0,0,1,.19-1l.71-2.54a1.45,1.45,0,0,0,.06-.33q0-.3-.57-.3h-.29l.12-.43c.63,0,1.23-.05,1.77-.11l-.69,2.33A1.6,1.6,0,0,1,88.17,112.84Zm0,3.42a3.58,3.58,0,0,0,.51-1.81c0-.69-.26-1-.77-1a1.28,1.28,0,0,0-1,.56,3.53,3.53,0,0,0-.69,2c0,.59.31.94.81.94A1.28,1.28,0,0,0,88.2,116.26Z"/><path class="cls-3" d="M91.54,117.38a.64.64,0,0,1-.67-.73,3.84,3.84,0,0,1,.3-1.27,9.6,9.6,0,0,0,.54-1.62c0-.17-.06-.25-.19-.25s-.49.26-.79.75h-.44c.47-.93,1-1.39,1.51-1.39s.64.27.64.75a6.28,6.28,0,0,1-.46,1.65,5,5,0,0,0-.36,1.22c0,.17.09.26.23.26s.46-.25.74-.76H93C92.6,116.91,92.11,117.38,91.54,117.38Zm.68-6.12a.53.53,0,1,1-.51.53A.51.51,0,0,1,92.22,111.26Z"/><path class="cls-3" d="M95,117.4c-.71,0-1.24-.63-1.24-1.64a3.38,3.38,0,0,1,.71-2.06,2.09,2.09,0,0,1,1.6-.91,1.17,1.17,0,0,1,1.14.9l.22-.83h.75l-.91,3.27a1.88,1.88,0,0,0-.07.36.24.24,0,0,0,.23.27c.21,0,.46-.25.74-.77h.44c-.42.92-.92,1.39-1.48,1.39-.41,0-.63-.23-.72-.73A1.92,1.92,0,0,1,95,117.4Zm.1-3.32a3.65,3.65,0,0,0-.55,1.84c0,.6.29,1,.75,1a1.29,1.29,0,0,0,1-.61,3.74,3.74,0,0,0,.66-2c0-.6-.31-1-.76-1A1.42,1.42,0,0,0,95.1,114.08Z"/><circle class="cls-3" cx="100.24" cy="115.08" r="1.09"/><circle class="cls-3" cx="56.68" cy="115.08" r="1.09"/><path class="cls-3" d="M139.72,70.49c.08.85.09,2.24.13,3.08a2.26,2.26,0,0,0,1.48,2,14.87,14.87,0,0,1,9.32,14.09c0,8.21-6.19,14.9-13.8,14.9-.36,0-.71,0-1.07,0a1.45,1.45,0,0,0-1.45.91c-.44,1.07-.85,2.24-1.22,3a17.17,17.17,0,0,0,3.74.17c9.82,0,17.8-8.48,17.8-18.9C154.65,80.29,148.2,71.93,139.72,70.49Z"/><path class="cls-3" d="M20.13,72.18c-.05.78-.09,1.56-.11,2.34a.89.89,0,0,1-.63.81C13.55,77.06,9.25,82.85,9.25,89.69c0,8.21,6.19,14.9,13.8,14.9a11.64,11.64,0,0,0,1.45-.09.87.87,0,0,1,.91.55c.32.79.62,1.49.9,2.11a.87.87,0,0,1-.66,1.22,16,16,0,0,1-2.6.21c-9.82,0-17.8-8.48-17.8-18.9,0-9,5.91-16.49,13.82-18.42A.87.87,0,0,1,20.13,72.18Z"/></g></g></g></svg>